<mxfile host="app.diagrams.net" modified="2020-11-20T11:25:03.036Z" agent="5.0 (Windows NT 10.0; Win64; x64) AppleWebKit/537.36 (KHTML, like Gecko) Chrome/87.0.4280.66 Safari/537.36" etag="Fhri3lqMJcdmaEaKPSQd" version="13.9.9" type="github">
  <diagram id="6a731a19-8d31-9384-78a2-239565b7b9f0" name="Page-1">
    <mxGraphModel dx="1951" dy="381" grid="1" gridSize="10" guides="1" tooltips="1" connect="1" arrows="1" fold="1" page="1" pageScale="1" pageWidth="1169" pageHeight="827" background="#003469" math="0" shadow="0">
      <root>
        <mxCell id="0" />
        <mxCell id="1" parent="0" />
        <mxCell id="2019" value="" style="rounded=1;whiteSpace=wrap;html=1;dashed=1;strokeColor=none;strokeWidth=2;fillColor=#E6E6E6;fontFamily=Verdana;fontSize=12;fontColor=#00BEF2" parent="1" vertex="1">
          <mxGeometry x="-50" y="160.57999999999998" width="140" height="429.42" as="geometry" />
        </mxCell>
        <mxCell id="2020" value="" style="rounded=1;whiteSpace=wrap;html=1;dashed=1;strokeColor=none;strokeWidth=2;fillColor=#E6E6E6;fontFamily=Verdana;fontSize=12;fontColor=#00BEF2" parent="1" vertex="1">
          <mxGeometry x="130" y="120" width="230" height="470" as="geometry" />
        </mxCell>
        <mxCell id="2021" value="" style="rounded=1;whiteSpace=wrap;html=1;dashed=1;strokeColor=none;strokeWidth=2;fillColor=#E6E6E6;fontFamily=Verdana;fontSize=12;fontColor=#00BEF2" parent="1" vertex="1">
          <mxGeometry x="400" y="120" width="260" height="470" as="geometry" />
        </mxCell>
        <mxCell id="2025" value="流程策略" style="whiteSpace=wrap;html=1;dashed=1;strokeColor=none;strokeWidth=2;fillColor=#3399FF;fontFamily=Helvetica;fontSize=18;fontColor=#FFFFFF;fontStyle=1" parent="1" vertex="1">
          <mxGeometry x="-50" y="120" width="140" height="60" as="geometry" />
        </mxCell>
        <mxCell id="2026" value="管理平台" style="whiteSpace=wrap;html=1;dashed=1;strokeColor=none;strokeWidth=2;fillColor=#3399FF;fontFamily=Helvetica;fontSize=18;fontColor=#FFFFFF;fontStyle=1" parent="1" vertex="1">
          <mxGeometry x="130" y="120" width="230" height="60" as="geometry" />
        </mxCell>
        <mxCell id="2027" value="&lt;span&gt;执行平台&lt;/span&gt;" style="whiteSpace=wrap;html=1;dashed=1;strokeColor=none;strokeWidth=2;fillColor=#3399FF;fontFamily=Helvetica;fontSize=18;fontColor=#FFFFFF;fontStyle=1" parent="1" vertex="1">
          <mxGeometry x="400" y="120" width="260" height="60" as="geometry" />
        </mxCell>
        <mxCell id="2031" value="" style="shape=mxgraph.arrows.two_way_arrow_horizontal;html=1;verticalLabelPosition=bottom;verticalAlign=top;strokeWidth=2;strokeColor=none;dashed=1;fillColor=#FFFFFF;fontFamily=Verdana;fontSize=12;fontColor=#00BEF2" parent="1" vertex="1">
          <mxGeometry x="80" y="130.5" width="60" height="39" as="geometry" />
        </mxCell>
        <mxCell id="2032" value="" style="shape=mxgraph.arrows.two_way_arrow_horizontal;html=1;verticalLabelPosition=bottom;verticalAlign=top;strokeWidth=2;strokeColor=none;dashed=1;fillColor=#FFFFFF;fontFamily=Verdana;fontSize=12;fontColor=#00BEF2" parent="1" vertex="1">
          <mxGeometry x="350" y="130.5" width="62.25" height="39" as="geometry" />
        </mxCell>
        <mxCell id="2041" value="人员管理" style="verticalLabelPosition=bottom;html=1;verticalAlign=top;strokeColor=none;fillColor=#3399FF;shape=mxgraph.azure.user;dashed=1;fontSize=14;fontColor=#004C99" parent="1" vertex="1">
          <mxGeometry x="-3.75" y="487.81" width="47.5" height="50" as="geometry" />
        </mxCell>
        <mxCell id="2047" value="Test Automation System Architecture" style="text;html=1;strokeColor=none;fillColor=none;align=center;verticalAlign=middle;whiteSpace=wrap;overflow=hidden;dashed=1;fontSize=36;fontColor=#FFFFFF;fontFamily=Helvetica;fontStyle=1" parent="1" vertex="1">
          <mxGeometry x="-230" y="50" width="1060" height="50" as="geometry" />
        </mxCell>
        <mxCell id="2048" value="服务端自动化测试" style="rounded=1;whiteSpace=wrap;html=1;dashed=1;strokeColor=none;strokeWidth=2;fillColor=#FFFFFF;fontFamily=Helvetica;fontSize=14;fontColor=#FFB366;opacity=75;verticalAlign=top;fontStyle=1" parent="1" vertex="1">
          <mxGeometry x="410" y="190" width="240" height="120" as="geometry" />
        </mxCell>
        <mxCell id="2049" value="客户端自动化测试" style="rounded=1;whiteSpace=wrap;html=1;dashed=1;strokeColor=none;strokeWidth=2;fillColor=#FFFFFF;fontFamily=Helvetica;fontSize=14;fontColor=#FFB366;opacity=75;verticalAlign=top;fontStyle=1" parent="1" vertex="1">
          <mxGeometry x="412.25" y="328.48" width="237.75" height="114.5" as="geometry" />
        </mxCell>
        <mxCell id="2050" value="JMeter" style="verticalLabelPosition=bottom;html=1;verticalAlign=top;strokeColor=none;fillColor=#3399FF;shape=mxgraph.azure.sql_reporting;dashed=1;fontSize=14;fontColor=#004C99" parent="1" vertex="1">
          <mxGeometry x="436.8" y="225" width="40" height="50" as="geometry" />
        </mxCell>
        <mxCell id="2054" value="网页端测试" style="verticalLabelPosition=bottom;html=1;verticalAlign=top;strokeColor=none;fillColor=#3399FF;shape=mxgraph.azure.storage_blob;dashed=1;fontFamily=Helvetica;fontSize=14;fontColor=#004C99" parent="1" vertex="1">
          <mxGeometry x="439.95" y="363.23" width="50" height="45" as="geometry" />
        </mxCell>
        <mxCell id="2068" value="客户端自动化测试平台" style="rounded=1;whiteSpace=wrap;html=1;dashed=1;strokeColor=none;strokeWidth=2;fillColor=#FFFFFF;fontFamily=Helvetica;fontSize=14;fontColor=#FFB366;opacity=75;verticalAlign=top;fontStyle=1" parent="1" vertex="1">
          <mxGeometry x="140" y="328.48" width="210" height="111.52" as="geometry" />
        </mxCell>
        <mxCell id="2084" value="" style="arrow;html=1;endArrow=block;endFill=1;strokeColor=none;strokeWidth=4;fontFamily=Helvetica;fontSize=36;fontColor=#FFB366;fillColor=#FFB366;" parent="1" edge="1">
          <mxGeometry width="100" height="100" relative="1" as="geometry">
            <mxPoint x="341.13" y="380.72999999999996" as="sourcePoint" />
            <mxPoint x="421.13" y="380.72999999999996" as="targetPoint" />
          </mxGeometry>
        </mxCell>
        <mxCell id="DDIoOHOh3YlPJ9OeS1EO-2087" value="服务端自动化测试平台" style="rounded=1;whiteSpace=wrap;html=1;dashed=1;strokeColor=none;strokeWidth=2;fillColor=#FFFFFF;fontFamily=Helvetica;fontSize=14;fontColor=#FFB366;opacity=75;verticalAlign=top;fontStyle=1" vertex="1" parent="1">
          <mxGeometry x="140" y="190" width="205.25" height="120" as="geometry" />
        </mxCell>
        <mxCell id="DDIoOHOh3YlPJ9OeS1EO-2093" value="测试计划" style="verticalLabelPosition=bottom;html=1;verticalAlign=top;strokeColor=none;fillColor=#3399FF;shape=mxgraph.azure.storage_table;dashed=1;fontFamily=Helvetica;fontSize=14;fontColor=#004C99" vertex="1" parent="1">
          <mxGeometry x="218" y="360" width="52" height="43.73" as="geometry" />
        </mxCell>
        <mxCell id="DDIoOHOh3YlPJ9OeS1EO-2094" value="测试计划" style="verticalLabelPosition=bottom;html=1;verticalAlign=top;strokeColor=none;fillColor=#3399FF;shape=mxgraph.azure.storage_table;dashed=1;fontFamily=Helvetica;fontSize=14;fontColor=#004C99" vertex="1" parent="1">
          <mxGeometry x="220" y="228" width="50" height="45" as="geometry" />
        </mxCell>
        <mxCell id="DDIoOHOh3YlPJ9OeS1EO-2096" value="Python" style="shape=image;html=1;verticalAlign=top;verticalLabelPosition=bottom;labelBackgroundColor=#ffffff;imageAspect=0;aspect=fixed;image=https://cdn0.iconfinder.com/data/icons/long-shadow-web-icons/512/python-128.png" vertex="1" parent="1">
          <mxGeometry x="503.73" y="223.5" width="53" height="53" as="geometry" />
        </mxCell>
        <mxCell id="DDIoOHOh3YlPJ9OeS1EO-2100" value="手机端测试" style="verticalLabelPosition=bottom;html=1;verticalAlign=top;strokeColor=none;fillColor=#3399FF;shape=mxgraph.azure.mobile_services;dashed=1;fontFamily=Helvetica;fontSize=14;fontColor=#004C99" vertex="1" parent="1">
          <mxGeometry x="523.75" y="357.73" width="32.5" height="50" as="geometry" />
        </mxCell>
        <mxCell id="DDIoOHOh3YlPJ9OeS1EO-2103" value="压力测试" style="shape=image;verticalLabelPosition=bottom;labelBackgroundColor=#ffffff;verticalAlign=top;aspect=fixed;imageAspect=0;image=data:image/svg+xml,PHN2ZyB4bWxuczpjYz0iaHR0cDovL2NyZWF0aXZlY29tbW9ucy5vcmcvbnMjIiB4bWxuczpkYz0iaHR0cDovL3B1cmwub3JnL2RjL2VsZW1lbnRzLzEuMS8iIHhtbG5zOmlua3NjYXBlPSJodHRwOi8vd3d3Lmlua3NjYXBlLm9yZy9uYW1lc3BhY2VzL2lua3NjYXBlIiB4bWxuczpyZGY9Imh0dHA6Ly93d3cudzMub3JnLzE5OTkvMDIvMjItcmRmLXN5bnRheC1ucyMiIHhtbG5zOnNvZGlwb2RpPSJodHRwOi8vc29kaXBvZGkuc291cmNlZm9yZ2UubmV0L0RURC9zb2RpcG9kaS0wLmR0ZCIgeG1sbnM6c3ZnPSJodHRwOi8vd3d3LnczLm9yZy8yMDAwL3N2ZyIgeG1sbnM9Imh0dHA6Ly93d3cudzMub3JnLzIwMDAvc3ZnIiB4bWxuczp4bGluaz0iaHR0cDovL3d3dy53My5vcmcvMTk5OS94bGluayIgdmVyc2lvbj0iMS4xIiBpZD0ic3ZnMTg3OTAzIiBpbmtzY2FwZTp2ZXJzaW9uPSIwLjkyLjMgKDI0MDU1NDYsIDIwMTgtMDMtMTEpIiBzb2RpcG9kaTpkb2NuYW1lPSJwZXJmb3JtYW5jZS5zdmciIHg9IjBweCIgeT0iMHB4IiB2aWV3Qm94PSIwIDAgNDUgNDIuNTQiIHN0eWxlPSJlbmFibGUtYmFja2dyb3VuZDpuZXcgMCAwIDQ1IDQyLjU0OyIgeG1sOnNwYWNlPSJwcmVzZXJ2ZSI+JiN4YTs8c29kaXBvZGk6bmFtZWR2aWV3IGJvcmRlcmNvbG9yPSIjNjY2NjY2IiBib3JkZXJvcGFjaXR5PSIxIiBmaXQtbWFyZ2luLWJvdHRvbT0iMCIgZml0LW1hcmdpbi1sZWZ0PSIwIiBmaXQtbWFyZ2luLXJpZ2h0PSIwIiBmaXQtbWFyZ2luLXRvcD0iMCIgZ3JpZHRvbGVyYW5jZT0iMTAiIGd1aWRldG9sZXJhbmNlPSIxMCIgaWQ9Im5hbWVkdmlldzE4NzkwNSIgaW5rc2NhcGU6Y3VycmVudC1sYXllcj0ic3ZnMTg3OTAzIiBpbmtzY2FwZTpjeD0iMzAiIGlua3NjYXBlOmN5PSIyNy45OTk5OTciIGlua3NjYXBlOnBhZ2VvcGFjaXR5PSIwIiBpbmtzY2FwZTpwYWdlc2hhZG93PSIyIiBpbmtzY2FwZTp3aW5kb3ctaGVpZ2h0PSIxMDE3IiBpbmtzY2FwZTp3aW5kb3ctbWF4aW1pemVkPSIxIiBpbmtzY2FwZTp3aW5kb3ctd2lkdGg9IjE5MjAiIGlua3NjYXBlOndpbmRvdy14PSItOCIgaW5rc2NhcGU6d2luZG93LXk9Ii04IiBpbmtzY2FwZTp6b29tPSIxMy4xMzYzNjQiIG9iamVjdHRvbGVyYW5jZT0iMTAiIHBhZ2Vjb2xvcj0iI2ZmZmZmZiIgc2hvd2dyaWQ9ImZhbHNlIj4mI3hhOwk8L3NvZGlwb2RpOm5hbWVkdmlldz4mI3hhOzxnIGlkPSJzaGFwZTE0MDItMiIgdHJhbnNmb3JtPSJ0cmFuc2xhdGUoMjEsLTM3LjQzMjUpIj4mI3hhOwk8dGl0bGUgaWQ9InRpdGxlMTg3ODMwIj5yZWN0NjY3MjwvdGl0bGU+JiN4YTsJPHJlY3QgaWQ9InJlY3QxODc4MzIiIHk9IjQ1IiBzdHlsZT0iZmlsbDojNEQ0RTRFOyIgd2lkdGg9IjMiIGhlaWdodD0iNC41Ii8+JiN4YTs8L2c+JiN4YTs8ZyBpZD0ic2hhcGUxNDAzLTQiIHRyYW5zZm9ybT0icm90YXRlKC00NSwtMjUuOTI1MjUyLC00LjYwMjk2ODkpIj4mI3hhOwk8dGl0bGUgaWQ9InRpdGxlMTg3ODM1Ij5yZWN0NjY3NDwvdGl0bGU+JiN4YTsJJiN4YTsJCTxyZWN0IGlkPSJyZWN0MTg3ODM3IiB4PSIwIiB5PSI0OC4xMiIgdHJhbnNmb3JtPSJtYXRyaXgoLTEgMi41MzUxODFlLTA2IC0yLjUzNTE4MWUtMDYgLTEgMy4yMjUxIDk3LjYyKSIgc3R5bGU9ImZpbGw6IzRENEU0RTsiIHdpZHRoPSIzLjIyIiBoZWlnaHQ9IjEuMzgiLz4mI3hhOzwvZz4mI3hhOzxnIGlkPSJzaGFwZTE0MDQtNiIgdHJhbnNmb3JtPSJyb3RhdGUoLTEzNSw5LjkzNzM5NjMsMjMuNjM1MjUyKSI+JiN4YTsJPHRpdGxlIGlkPSJ0aXRsZTE4Nzg0MCI+cmVjdDY2NzY8L3RpdGxlPiYjeGE7CSYjeGE7CQk8cmVjdCBpZD0icmVjdDE4Nzg0MiIgeD0iMC40NiIgeT0iNDYuMjciIHRyYW5zZm9ybT0ibWF0cml4KC0yLjUzNTE4MmUtMDYgLTEgMSAtMi41MzUxODJlLTA2IC00Ni4yNzEyIDQ5Ljk2MTQpIiBzdHlsZT0iZmlsbDojMDA1MEM1OyIgd2lkdGg9IjIuNzciIGhlaWdodD0iMy42OSIvPiYjeGE7PC9nPiYjeGE7PGcgaWQ9InNoYXBlMTQwNS04IiB0cmFuc2Zvcm09InRyYW5zbGF0ZSgxMy40ODQ0LC0xNi42OTQ0KSI+JiN4YTsJPHRpdGxlIGlkPSJ0aXRsZTE4Nzg0NSI+cGF0aDY2Nzg8L3RpdGxlPiYjeGE7CTxwYXRoIGlkPSJwYXRoMTg3ODQ3IiBpbmtzY2FwZTpjb25uZWN0b3ItY3VydmF0dXJlPSIwIiBzdHlsZT0iZmlsbDojMkI2RENGOyIgZD0iTTIxLjc3LDQwLjQ4YzAsNy4wNC01LjcxLDEyLjc1LTEyLjc1LDEyLjc1ICAgUy0zLjczLDQ3LjUyLTMuNzMsNDAuNDhTMS45OCwyNy43Myw5LjAyLDI3LjczYzcuMDItMC4wMiwxMi43Myw1LjY1LDEyLjc1LDEyLjY3QzIxLjc3LDQwLjQzLDIxLjc3LDQwLjQ1LDIxLjc3LDQwLjQ4eiIvPiYjeGE7PC9nPiYjeGE7PGcgaWQ9InNoYXBlMTQwNi0xMCIgdHJhbnNmb3JtPSJ0cmFuc2xhdGUoMTcuMjUsLTIwLjQ2KSI+JiN4YTsJPHRpdGxlIGlkPSJ0aXRsZTE4Nzg1MCI+cGF0aDY2ODA8L3RpdGxlPiYjeGE7CTxwYXRoIGlkPSJwYXRoMTg3ODUyIiBpbmtzY2FwZTpjb25uZWN0b3ItY3VydmF0dXJlPSIwIiBzdHlsZT0iZmlsbDojRTZFNkU2OyIgZD0iTTUuMjUsNDkuNUMyLjM1LDQ5LjUsMCw0Ny4xNSwwLDQ0LjI1ICAgYy0wLjAxLTEuMDcsMC4zMS0yLjEyLDAuOTMtM2MxLjY2LTIuMzgsNC45My0yLjk3LDcuMzEtMS4zMXMyLjk3LDQuOTMsMS4zMSw3LjMxYy0wLjM1LDAuNTEtMC43OSwwLjk1LTEuMywxLjMgICBDNy4zNyw0OS4xNyw2LjMyLDQ5LjUsNS4yNSw0OS41eiIvPiYjeGE7PC9nPiYjeGE7PGcgaWQ9InNoYXBlMTQwNy0xMiIgdHJhbnNmb3JtPSJ0cmFuc2xhdGUoMTguNzUsLTQwLjcxKSI+JiN4YTsJPHRpdGxlIGlkPSJ0aXRsZTE4Nzg1NSI+cmVjdDY2ODI8L3RpdGxlPiYjeGE7CTxwYXRoIGlkPSJwYXRoMTg3ODU3IiBpbmtzY2FwZTpjb25uZWN0b3ItY3VydmF0dXJlPSIwIiBzdHlsZT0iZmlsbDojNEQ0RTRFOyIgZD0iTTAsNDguMzhDMCw0OSwwLjUsNDkuNSwxLjEyLDQ5LjVoNS4yNSAgIGMwLjYyLDAsMS4xMy0wLjUsMS4xMy0xLjEyYzAtMC42Mi0wLjUtMS4xMy0xLjEyLTEuMTNjMCwwLTAuMDEsMC0wLjAxLDBIMS4xMkMwLjUsNDcuMjUsMCw0Ny43NiwwLDQ4LjM4eiIvPiYjeGE7PC9nPiYjeGE7PGcgaWQ9InNoYXBlMTQwOC0xNCIgdHJhbnNmb3JtPSJ0cmFuc2xhdGUoMjEuNDI3NSwtMjUuMjk3NSkiPiYjeGE7CTx0aXRsZSBpZD0idGl0bGUxODc4NjAiPnBvbHlnb242Njg0PC90aXRsZT4mI3hhOwk8cGF0aCBpZD0icGF0aDE4Nzg2MiIgaW5rc2NhcGU6Y29ubmVjdG9yLWN1cnZhdHVyZT0iMCIgc3R5bGU9ImZpbGw6IzMzMzMzMzsiIGQ9Ik04LjYzLDQxLjk4bDAuMzQsMC40MmwtOC4xOSw3LjFMMCw0OC40OSAgIEw4LjYzLDQxLjk4eiIvPiYjeGE7PC9nPiYjeGE7PGcgaWQ9InNoYXBlMTQwOS0xNiIgdHJhbnNmb3JtPSJyb3RhdGUoLTkwLC00Ljk4LDI5LjUyKSI+JiN4YTsJPHRpdGxlIGlkPSJ0aXRsZTE4Nzg2NSI+cmVjdDY2ODY8L3RpdGxlPiYjeGE7CSYjeGE7CQk8cmVjdCBpZD0icmVjdDE4Nzg2NyIgeD0iLTEuMTIiIHk9IjQ2Ljg4IiB0cmFuc2Zvcm09Im1hdHJpeCgtMi41MzUxODJlLTA2IC0xIDEgLTIuNTM1MTgyZS0wNiAtNDYuODc1IDQ4LjM3NTEpIiBzdHlsZT0iZmlsbDojRkZGRkZGOyIgd2lkdGg9IjMuNzUiIGhlaWdodD0iMS41Ii8+JiN4YTs8L2c+JiN4YTs8ZyBpZD0ic2hhcGUxNDEwLTE4IiB0cmFuc2Zvcm09InJvdGF0ZSgxODAsMTEuNjI1LDMxLjAyKSI+JiN4YTsJPHRpdGxlIGlkPSJ0aXRsZTE4Nzg3MCI+cmVjdDY2ODg8L3RpdGxlPiYjeGE7CTxyZWN0IGlkPSJyZWN0MTg3ODcyIiB5PSI0NS43NSIgc3R5bGU9ImZpbGw6I0ZGRkZGRjsiIHdpZHRoPSIxLjUiIGhlaWdodD0iMy43NSIvPiYjeGE7PC9nPiYjeGE7PGcgaWQ9InNoYXBlMTQxMS0yMCIgdHJhbnNmb3JtPSJyb3RhdGUoMTgwLDExLjYyNSw0MC4wMikiPiYjeGE7CTx0aXRsZSBpZD0idGl0bGUxODc4NzUiPnJlY3Q2NjkwPC90aXRsZT4mI3hhOwk8cmVjdCBpZD0icmVjdDE4Nzg3NyIgeT0iNDUuNzUiIHN0eWxlPSJmaWxsOiNGRkZGRkY7IiB3aWR0aD0iMS41IiBoZWlnaHQ9IjMuNzUiLz4mI3hhOzwvZz4mI3hhOzxnIGlkPSJzaGFwZTE0MTItMjIiIHRyYW5zZm9ybT0icm90YXRlKC05MCw0LjM5NSwyMC4xNDUpIj4mI3hhOwk8dGl0bGUgaWQ9InRpdGxlMTg3ODgwIj5yZWN0NjY5MjwvdGl0bGU+JiN4YTsJJiN4YTsJCTxyZWN0IGlkPSJyZWN0MTg3ODgyIiB4PSItMS4xMiIgeT0iNDYuODgiIHRyYW5zZm9ybT0ibWF0cml4KC0yLjUzNTE4MmUtMDYgLTEgMSAtMi41MzUxODJlLTA2IC00Ni44NzUgNDguMzc1MSkiIHN0eWxlPSJmaWxsOiNGRkZGRkY7IiB3aWR0aD0iMy43NSIgaGVpZ2h0PSIxLjUiLz4mI3hhOzwvZz4mI3hhOzxnIGlkPSJzaGFwZTE0MTMtMjQiIHRyYW5zZm9ybT0idHJhbnNsYXRlKDAsLTYuOTYpIj4mI3hhOwk8dGl0bGUgaWQ9InRpdGxlMTg3ODg1Ij5wYXRoNjY5NDwvdGl0bGU+JiN4YTsJPHBhdGggaWQ9InBhdGgxODc4ODciIGlua3NjYXBlOmNvbm5lY3Rvci1jdXJ2YXR1cmU9IjAiIHN0eWxlPSJmaWxsOiMyQjZEQ0Y7IiBkPSJNMTAuNSw0OS41Yy0yLjI1LTAuMDctMy44OS0wLjY3LTUuMDMtMS44NCAgIGMtMS4xMy0xLjE2LTEuNzItMi45Ny0xLjcyLTUuNDN2LTcuMmMwLjA5LTEuNDMtMC4yNC0yLjg1LTAuOTUtNC4wOUMyLjE3LDI5Ljk5LDEuMTMsMjkuNCwwLDI5LjMydi0yLjE4ICAgYzIuNS0wLjI3LDMuNzUtMi4xMiwzLjc1LTUuNTN2LTcuMzZjMC0yLjUsMC41Ny00LjMyLDEuNy01LjQ3YzEuMTYtMS4xNCwyLjgtMS43NSw1LjA1LTEuODJ2Mi41N0M5LjM4LDkuNSw4LjMxLDkuOTksNy42MSwxMC44NyAgIGMtMC41NywwLjgxLTAuODYsMi4xMS0wLjg2LDMuOXY3LjA4YzAsMy41LTEuMTksNS42MS0zLjU4LDYuMzN2MC4xYzIuMzksMC43NCwzLjU4LDIuOTEsMy41OCw2LjUxdjYuODEgICBDNi43NCw0Mi40LDYuOCw0My4yMSw2Ljk0LDQ0YzAuMSwwLjU5LDAuMzMsMS4xNSwwLjY2LDEuNjRjMC4zLDAuNDMsMC43LDAuNzcsMS4xOCwwLjk4YzAuNTUsMC4yNCwxLjE1LDAuMzYsMS43NSwwLjM1TDEwLjUsNDkuNXogICAiLz4mI3hhOzwvZz4mI3hhOzxnIGlkPSJzaGFwZTE0MTQtMjYiIHRyYW5zZm9ybT0idHJhbnNsYXRlKDM0LjUsLTYuOTYpIj4mI3hhOwk8dGl0bGUgaWQ9InRpdGxlMTg3ODkwIj5wYXRoNjY5NjwvdGl0bGU+JiN4YTsJPHBhdGggaWQ9InBhdGgxODc4OTIiIGlua3NjYXBlOmNvbm5lY3Rvci1jdXJ2YXR1cmU9IjAiIHN0eWxlPSJmaWxsOiMyQjZEQ0Y7IiBkPSJNMCw0Ni45N2MwLjYsMCwxLjItMC4xMiwxLjc1LTAuMzYgICBjMC40OC0wLjIxLDAuODgtMC41NSwxLjE4LTAuOThjMC4zMy0wLjUsMC41NS0xLjA1LDAuNjUtMS42NGMwLjEzLTAuNzksMC4xOS0xLjU5LDAuMTctMi4zOXYtNi44MWMwLTMuNiwxLjE5LTUuNzcsMy41OC02LjUxICAgdi0wLjA5Yy0yLjM5LTAuNzMtMy41OC0yLjg0LTMuNTgtNi4zNHYtNy4wOGMwLTEuNzktMC4zLTMuMDktMC44OS0zLjkxQzIuMTYsMTAsMS4xMSw5LjUxLDAsOS41M1Y2Ljk2ICAgYzIuMjUsMC4wNywzLjg5LDAuNjgsNS4wMiwxLjg1YzEuMTQsMS4xNywxLjczLDMsMS43Myw1LjQ0djcuMzJjMCwzLjQyLDEuMjUsNS4yNiwzLjc1LDUuNTR2Mi4xN2MtMS4xNCwwLjA3LTIuMTgsMC42Ny0yLjgxLDEuNjIgICBjLTAuNzEsMS4yNS0xLjA0LDIuNjktMC45NCw0LjEzdjcuMmMwLDIuNDYtMC41Nyw0LjI3LTEuNyw1LjQzQzMuODksNDguODMsMi4yNSw0OS40MywwLDQ5LjVWNDYuOTd6Ii8+JiN4YTs8L2c+JiN4YTs8ZyBpZD0ic2hhcGUxNDE1LTI4IiB0cmFuc2Zvcm09InRyYW5zbGF0ZSgtMS41LC0zLjk2KSI+JiN4YTsJPHRpdGxlIGlkPSJ0aXRsZTE4Nzg5NSI+cmVjdDY2OTg8L3RpdGxlPiYjeGE7CTxyZWN0IGlkPSJyZWN0MTg3ODk3IiB5PSIxLjUiIHN0eWxlPSJmaWxsOm5vbmU7IiB3aWR0aD0iNDgiIGhlaWdodD0iNDgiLz4mI3hhOzwvZz4mI3hhOzwvc3ZnPg==;" vertex="1" parent="1">
          <mxGeometry x="577.86" y="228" width="48.14" height="46" as="geometry" />
        </mxCell>
        <mxCell id="DDIoOHOh3YlPJ9OeS1EO-2112" value="持续集成平台" style="rounded=1;whiteSpace=wrap;html=1;dashed=1;strokeColor=none;strokeWidth=2;fillColor=#FFFFFF;fontFamily=Helvetica;fontSize=14;fontColor=#FFB366;opacity=75;verticalAlign=top;fontStyle=1" vertex="1" parent="1">
          <mxGeometry x="140" y="460" width="210" height="113.5" as="geometry" />
        </mxCell>
        <mxCell id="DDIoOHOh3YlPJ9OeS1EO-2113" value="流程制定" style="aspect=fixed;perimeter=ellipsePerimeter;html=1;align=center;shadow=0;dashed=0;fontColor=#4277BB;labelBackgroundColor=#ffffff;fontSize=12;spacingTop=3;image;image=img/lib/ibm/management/process_management.svg;" vertex="1" parent="1">
          <mxGeometry x="-8.25" y="390" width="60" height="60" as="geometry" />
        </mxCell>
        <mxCell id="DDIoOHOh3YlPJ9OeS1EO-2114" value="项目选型" style="shape=image;html=1;verticalAlign=top;verticalLabelPosition=bottom;labelBackgroundColor=#ffffff;imageAspect=0;aspect=fixed;image=https://cdn4.iconfinder.com/data/icons/sphere-1-4-icon-theme/128/folder-project.png" vertex="1" parent="1">
          <mxGeometry x="-13.5" y="190" width="68.5" height="68.5" as="geometry" />
        </mxCell>
        <mxCell id="DDIoOHOh3YlPJ9OeS1EO-2116" value="策略目标" style="shape=image;html=1;verticalAlign=top;verticalLabelPosition=bottom;labelBackgroundColor=#ffffff;imageAspect=0;aspect=fixed;image=https://cdn0.iconfinder.com/data/icons/simpline-mix/64/simpline_39-128.png" vertex="1" parent="1">
          <mxGeometry x="-10.25" y="292.36" width="62" height="62" as="geometry" />
        </mxCell>
        <mxCell id="DDIoOHOh3YlPJ9OeS1EO-2120" value="" style="rounded=1;whiteSpace=wrap;html=1;dashed=1;strokeColor=none;strokeWidth=2;fillColor=#E6E6E6;fontFamily=Verdana;fontSize=12;fontColor=#00BEF2" vertex="1" parent="1">
          <mxGeometry x="-50" y="630" width="710" height="140" as="geometry" />
        </mxCell>
        <mxCell id="DDIoOHOh3YlPJ9OeS1EO-2121" value="信息平台" style="whiteSpace=wrap;html=1;dashed=1;strokeColor=none;strokeWidth=2;fillColor=#3399FF;fontFamily=Helvetica;fontSize=18;fontColor=#FFFFFF;fontStyle=1" vertex="1" parent="1">
          <mxGeometry x="-50" y="630" width="45" height="140" as="geometry" />
        </mxCell>
        <mxCell id="DDIoOHOh3YlPJ9OeS1EO-2122" value="用例存储" style="rounded=1;whiteSpace=wrap;html=1;dashed=1;strokeColor=none;strokeWidth=2;fillColor=#FFFFFF;fontFamily=Helvetica;fontSize=14;fontColor=#FFB366;opacity=75;verticalAlign=top;fontStyle=1" vertex="1" parent="1">
          <mxGeometry x="275" y="639.5" width="169.62" height="121" as="geometry" />
        </mxCell>
        <mxCell id="DDIoOHOh3YlPJ9OeS1EO-2124" value="测试数据" style="verticalLabelPosition=bottom;html=1;verticalAlign=top;strokeColor=none;fillColor=#3399FF;shape=mxgraph.azure.database;dashed=1;fontFamily=Helvetica;fontSize=14;fontColor=#004C99" vertex="1" parent="1">
          <mxGeometry x="380" y="675.39" width="37.5" height="50" as="geometry" />
        </mxCell>
        <mxCell id="DDIoOHOh3YlPJ9OeS1EO-2125" value="测试脚本" style="shadow=0;dashed=0;html=1;strokeColor=none;fillColor=#4495D1;labelPosition=center;verticalLabelPosition=bottom;verticalAlign=top;align=center;outlineConnect=0;shape=mxgraph.veeam.script;" vertex="1" parent="1">
          <mxGeometry x="300.45000000000005" y="678.6999999999999" width="44.8" height="44.8" as="geometry" />
        </mxCell>
        <mxCell id="DDIoOHOh3YlPJ9OeS1EO-2126" value="结果报表" style="rounded=1;whiteSpace=wrap;html=1;dashed=1;strokeColor=none;strokeWidth=2;fillColor=#FFFFFF;fontFamily=Helvetica;fontSize=14;fontColor=#FFB366;opacity=75;verticalAlign=top;fontStyle=1" vertex="1" parent="1">
          <mxGeometry x="476.8" y="639.5" width="166.29" height="121" as="geometry" />
        </mxCell>
        <mxCell id="DDIoOHOh3YlPJ9OeS1EO-2127" value="测试报告" style="shadow=0;dashed=0;html=1;strokeColor=none;fillColor=#4495D1;labelPosition=center;verticalLabelPosition=bottom;verticalAlign=top;align=center;outlineConnect=0;shape=mxgraph.veeam.2d.report;" vertex="1" parent="1">
          <mxGeometry x="506.00000000000006" y="672.7" width="36.8" height="50.8" as="geometry" />
        </mxCell>
        <mxCell id="DDIoOHOh3YlPJ9OeS1EO-2128" value="缺陷管理" style="shape=image;verticalLabelPosition=bottom;labelBackgroundColor=#ffffff;verticalAlign=top;aspect=fixed;imageAspect=0;image=data:image/svg+xml,PHN2ZyB4bWxuczpkYz0iaHR0cDovL3B1cmwub3JnL2RjL2VsZW1lbnRzLzEuMS8iIHhtbG5zOmNjPSJodHRwOi8vY3JlYXRpdmVjb21tb25zLm9yZy9ucyMiIHhtbG5zOnJkZj0iaHR0cDovL3d3dy53My5vcmcvMTk5OS8wMi8yMi1yZGYtc3ludGF4LW5zIyIgeG1sbnM6c3ZnPSJodHRwOi8vd3d3LnczLm9yZy8yMDAwL3N2ZyIgeG1sbnM9Imh0dHA6Ly93d3cudzMub3JnLzIwMDAvc3ZnIiB4bWxuczp4bGluaz0iaHR0cDovL3d3dy53My5vcmcvMTk5OS94bGluayIgeG1sbnM6c29kaXBvZGk9Imh0dHA6Ly9zb2RpcG9kaS5zb3VyY2Vmb3JnZS5uZXQvRFREL3NvZGlwb2RpLTAuZHRkIiB4bWxuczppbmtzY2FwZT0iaHR0cDovL3d3dy5pbmtzY2FwZS5vcmcvbmFtZXNwYWNlcy9pbmtzY2FwZSIgdmVyc2lvbj0iMS4xIiBpZD0iTGF5ZXJfMSIgeD0iMHB4IiB5PSIwcHgiIHZpZXdCb3g9IjAgMCA0Mi42NiA0NS43MzUwMDEiIHhtbDpzcGFjZT0icHJlc2VydmUiIHNvZGlwb2RpOmRvY25hbWU9Imlzc3VlX2J1Zy5zdmciIHdpZHRoPSI0Mi42NiIgaGVpZ2h0PSI0NS43MzUwMDEiIGlua3NjYXBlOnZlcnNpb249IjAuOTIuMyAoMjQwNTU0NiwgMjAxOC0wMy0xMSkiPjxtZXRhZGF0YSBpZD0ibWV0YWRhdGE0MjcxNCI+PHJkZjpSREY+PGNjOldvcmsgcmRmOmFib3V0PSIiPjxkYzpmb3JtYXQ+aW1hZ2Uvc3ZnK3htbDwvZGM6Zm9ybWF0PjxkYzp0eXBlIHJkZjpyZXNvdXJjZT0iaHR0cDovL3B1cmwub3JnL2RjL2RjbWl0eXBlL1N0aWxsSW1hZ2UiLz48ZGM6dGl0bGUvPjwvY2M6V29yaz48L3JkZjpSREY+PC9tZXRhZGF0YT48ZGVmcyBpZD0iZGVmczQyNzEyIi8+PHNvZGlwb2RpOm5hbWVkdmlldyBwYWdlY29sb3I9IiNmZmZmZmYiIGJvcmRlcmNvbG9yPSIjNjY2NjY2IiBib3JkZXJvcGFjaXR5PSIxIiBvYmplY3R0b2xlcmFuY2U9IjEwIiBncmlkdG9sZXJhbmNlPSIxMCIgZ3VpZGV0b2xlcmFuY2U9IjEwIiBpbmtzY2FwZTpwYWdlb3BhY2l0eT0iMCIgaW5rc2NhcGU6cGFnZXNoYWRvdz0iMiIgaW5rc2NhcGU6d2luZG93LXdpZHRoPSIxOTIwIiBpbmtzY2FwZTp3aW5kb3ctaGVpZ2h0PSIxMDE3IiBpZD0ibmFtZWR2aWV3NDI3MTAiIHNob3dncmlkPSJmYWxzZSIgZml0LW1hcmdpbi10b3A9IjAiIGZpdC1tYXJnaW4tbGVmdD0iMCIgZml0LW1hcmdpbi1yaWdodD0iMCIgZml0LW1hcmdpbi1ib3R0b209IjAiIGlua3NjYXBlOnpvb209IjEuMDMwMzAzIiBpbmtzY2FwZTpjeD0iLTIzLjgzNSIgaW5rc2NhcGU6Y3k9Ii0yODEuNDIyNSIgaW5rc2NhcGU6d2luZG93LXg9Ii04IiBpbmtzY2FwZTp3aW5kb3cteT0iLTgiIGlua3NjYXBlOndpbmRvdy1tYXhpbWl6ZWQ9IjEiIGlua3NjYXBlOmN1cnJlbnQtbGF5ZXI9IkxheWVyXzEiLz4mI3hhOyYjeGE7PGcgaWQ9Imc0MjcwNyIgdHJhbnNmb3JtPSJ0cmFuc2xhdGUoLTMyMS4yMSwtOTMuNTkyNSkiPiYjeGE7CTxkZWZzIGlkPSJkZWZzNDI2NjgiPiYjeGE7CQk8cmVjdCBpZD0iU1ZHSURfM18iIHg9IjMyMS4xNzk5OSIgeT0iOTMuNTciIHdpZHRoPSI0NS4zMzAwMDIiIGhlaWdodD0iNDguMTYiLz4mI3hhOwk8L2RlZnM+JiN4YTsJPGNsaXBQYXRoIGlkPSJTVkdJRF80XyI+JiN4YTsJCTx1c2UgeGxpbms6aHJlZj0iI1NWR0lEXzNfIiBzdHlsZT0ib3ZlcmZsb3c6dmlzaWJsZSIgaWQ9InVzZTQyNjcwIiB4PSIwIiB5PSIwIiB3aWR0aD0iMTAwJSIgaGVpZ2h0PSIxMDAlIi8+JiN4YTsJPC9jbGlwUGF0aD4mI3hhOwk8ZyBjbGlwLXBhdGg9InVybCgjU1ZHSURfNF8pIiBpZD0iZzQyNzA1Ij4mI3hhOwkJPGRlZnMgaWQ9ImRlZnM0MjY3NCI+JiN4YTsJCQk8cmVjdCBpZD0iU1ZHSURfNV8iIHg9IjMyMS4xNzk5OSIgeT0iOTMuNTciIHdpZHRoPSI0NS4zMzAwMDIiIGhlaWdodD0iNDguMTYiLz4mI3hhOwkJPC9kZWZzPiYjeGE7CQk8Y2xpcFBhdGggaWQ9IlNWR0lEXzZfIj4mI3hhOwkJCTx1c2UgeGxpbms6aHJlZj0iI1NWR0lEXzVfIiBzdHlsZT0ib3ZlcmZsb3c6dmlzaWJsZSIgaWQ9InVzZTQyNjc2IiB4PSIwIiB5PSIwIiB3aWR0aD0iMTAwJSIgaGVpZ2h0PSIxMDAlIi8+JiN4YTsJCTwvY2xpcFBhdGg+JiN4YTsJCTxwYXRoIHN0eWxlPSJmaWxsOiM1NTZhOGEiIGQ9Im0gMzQ1LjQsOTcuNzcgMy45NSwtMy45NiBjIDAuMjksLTAuMjkgMC43NywtMC4yOSAxLjA2LDAgMC4yOSwwLjI5IDAuMjksMC43NyAwLDEuMDYgbCAtMy45NSwzLjk2IGMgLTAuMjksMC4yOSAtMC43NywwLjI5IC0xLjA2LDAgLTAuMjksLTAuMjkgLTAuMywtMC43NiAwLC0xLjA2IHoiIGNsaXAtcGF0aD0idXJsKCNTVkdJRF82XykiIGlkPSJwYXRoNDI2NzkiIGlua3NjYXBlOmNvbm5lY3Rvci1jdXJ2YXR1cmU9IjAiLz4mI3hhOwkJPHBhdGggc3R5bGU9ImZpbGw6IzU1NmE4YSIgZD0ibSAzMzcuOTEsOTguODQgLTQuMDEsLTMuOTYgYyAtMC4yOSwtMC4yOSAtMC4zLC0wLjc3IC0wLjAxLC0xLjA2IDAuMjksLTAuMjkgMC43NiwtMC4zIDEuMDYsLTAuMDEgbCA0LjAxLDMuOTYgYyAwLjI5LDAuMjkgMC4zLDAuNzcgMC4wMSwxLjA2IC0wLjI5LDAuMjkgLTAuNzYsMC4zIC0xLjA2LDAuMDEgeiIgY2xpcC1wYXRoPSJ1cmwoI1NWR0lEXzZfKSIgaWQ9InBhdGg0MjY4MSIgaW5rc2NhcGU6Y29ubmVjdG9yLWN1cnZhdHVyZT0iMCIvPiYjeGE7CQk8Y2lyY2xlIHN0eWxlPSJmaWxsOiMyYmM3ZjQiIGN4PSIzNDIuMTQ5OTkiIGN5PSIxMDIuMDgiIHI9IjUuOTg5OTk5OCIgY2xpcC1wYXRoPSJ1cmwoI1NWR0lEXzZfKSIgaWQ9ImNpcmNsZTQyNjgzIi8+JiN4YTsJCTxwYXRoIHN0eWxlPSJmaWxsOiM1NTZhOGEiIGQ9Im0gMzQ3LjM2LDEwMS41MSAwLjAxLDAuMDcgLTAuMDksLTAuNiAwLjAyLDAuMDggLTAuMTUsLTAuNTcgMC4wMiwwLjA3IC0wLjIsLTAuNTUgMC4wMywwLjA3IC0wLjI1LC0wLjUyIDAuMDQsMC4wNyAtMC4zLC0wLjQ5IDAuMDYsMC4wOCAtMC43MywtMC44OSAwLjEsMC4xIC0wLjg5LC0wLjczIDAuMDgsMC4wNiAtMC40OSwtMC4zIDAuMDcsMC4wMyAtMC41MiwtMC4yNSAwLjA3LDAuMDMgLTAuNTUsLTAuMiAwLjA3LDAuMDIgLTAuNTcsLTAuMTUgMC4wOCwwLjAyIC0wLjYsLTAuMDkgMC4wNywwLjAxIC0wLjYxLC0wLjAzIGggMC4wNyBsIC0wLjYxLDAuMDMgMC4wNywtMC4wMSAtMC42LDAuMDkgMC4wOCwtMC4wMiAtMC41NywwLjE1IDAuMDcsLTAuMDIgLTAuNTUsMC4yIDAuMDcsLTAuMDMgLTAuNTIsMC4yNSAwLjA3LC0wLjAzIC0wLjQ5LDAuMyAwLjA4LC0wLjA2IC0wLjg5LDAuNzMgMC4xLC0wLjEgLTAuNzMsMC44OSAwLjA2LC0wLjA4IC0wLjMsMC40OSAwLjA0LC0wLjA3IC0wLjI1LDAuNTIgMC4wMywtMC4wNyAtMC4yLDAuNTUgMC4wMiwtMC4wNyAtMC4xNSwwLjU3IDAuMDIsLTAuMDggLTAuMDksMC42IDAuMDEsLTAuMDcgLTAuMDMsMC42MSB2IC0wLjA3IGwgMC4wMywwLjYxIC0wLjAxLC0wLjA3IDAuMDksMC42IC0wLjAyLC0wLjA4IDAuMTUsMC41NyAtMC4wMiwtMC4wNyAwLjIsMC41NSAtMC4wMywtMC4wNyAwLjI1LDAuNTIgLTAuMDQsLTAuMDYgMC4zLDAuNDkgLTAuMDYsLTAuMDggMC43MywwLjg5IC0wLjEsLTAuMSAwLjg5LDAuNzMgLTAuMDgsLTAuMDYgMC40OSwwLjMgLTAuMDcsLTAuMDQgMC41MiwwLjI1IC0wLjA3LC0wLjAzIDAuNTUsMC4yIC0wLjA3LC0wLjAyIDAuNTcsMC4xNSAtMC4wOCwtMC4wMiAwLjYsMC4wOSAtMC4wNywtMC4wMSAwLjYxLDAuMDMgaCAtMC4wNyBsIDAuNjEsLTAuMDMgLTAuMDcsMC4wMSAwLjYsLTAuMDkgLTAuMDgsMC4wMiAwLjU3LC0wLjE1IC0wLjA3LDAuMDIgMC41NSwtMC4yIC0wLjA3LDAuMDMgMC41MiwtMC4yNSAtMC4wNywwLjA0IDAuNDksLTAuMyAtMC4wOCwwLjA2IDAuODksLTAuNzMgLTAuMSwwLjEgMC43MywtMC44OSAtMC4wNiwwLjA4IDAuMywtMC40OSAtMC4wNCwwLjA2IDAuMjUsLTAuNTIgLTAuMDMsMC4wNyAwLjIsLTAuNTUgLTAuMDIsMC4wNyAwLjE1LC0wLjU3IC0wLjAyLDAuMDggMC4wOSwtMC42IC0wLjAxLDAuMDcgMC4wMywtMC42MSB2IDAuMDcgeiBtIDEuNTMsMC41MyB2IDAuMDcgbCAtMC4wMywwLjYxIC0wLjAxLDAuMDcgLTAuMDksMC42IC0wLjAyLDAuMDggLTAuMTUsMC41NyAtMC4wMiwwLjA3IC0wLjIsMC41NSAtMC4wMywwLjA3IC0wLjI1LDAuNTIgLTAuMDQsMC4wNyAtMC4zLDAuNDkgLTAuMDYsMC4wOCAtMC43MywwLjg5IC0wLjEsMC4xIC0wLjg5LDAuNzMgLTAuMDgsMC4wNiAtMC40OSwwLjMgLTAuMDcsMC4wMyAtMC41MiwwLjI1IC0wLjA3LDAuMDMgLTAuNTUsMC4yIC0wLjA3LDAuMDIgLTAuNTcsMC4xNSAtMC4wOCwwLjAyIC0wLjYsMC4wOSAtMC4wNywwLjAxIC0wLjYxLDAuMDMgaCAtMC4wNyBsIC0wLjYxLC0wLjAzIC0wLjA3LC0wLjAxIC0wLjYsLTAuMDkgLTAuMDgsLTAuMDIgLTAuNTcsLTAuMTUgLTAuMDcsLTAuMDIgLTAuNTUsLTAuMiAtMC4wNywtMC4wMyAtMC41MiwtMC4yNSAtMC4wNywtMC4wMyAtMC40OSwtMC4zIC0wLjA4LC0wLjA2IC0wLjg5LC0wLjczIC0wLjEsLTAuMSAtMC43MywtMC44OSAtMC4wNiwtMC4wOCAtMC4zLC0wLjQ5IC0wLjA0LC0wLjA3IC0wLjI1LC0wLjUyIC0wLjAzLC0wLjA3IC0wLjIsLTAuNTUgLTAuMDIsLTAuMDcgLTAuMTUsLTAuNTcgLTAuMDIsLTAuMDggLTAuMDksLTAuNiAtMC4wMSwtMC4wNyAtMC4wMywtMC42MSB2IC0wLjA3IGwgMC4wMywtMC42MSAwLjAxLC0wLjA3IDAuMDksLTAuNiAwLjAyLC0wLjA4IDAuMTUsLTAuNTcgMC4wMiwtMC4wNyAwLjIsLTAuNTUgMC4wMywtMC4wNyAwLjI1LC0wLjUyIDAuMDQsLTAuMDYgMC4zLC0wLjQ5IDAuMDYsLTAuMDggMC43MywtMC44OSAwLjEsLTAuMSAwLjg5LC0wLjczIDAuMDgsLTAuMDYgMC40OSwtMC4zIDAuMDcsLTAuMDQgMC41MiwtMC4yNSAwLjA3LC0wLjAzIDAuNTUsLTAuMiAwLjA3LC0wLjAyIDAuNTcsLTAuMTUgMC4wOCwtMC4wMiAwLjYsLTAuMDkgMC4wNywtMC4wMSAwLjYxLC0wLjAzIGggMC4wNyBsIDAuNjEsMC4wMyAwLjA3LDAuMDEgMC42LDAuMDkgMC4wOCwwLjAyIDAuNTcsMC4xNSAwLjA3LDAuMDIgMC41NSwwLjIgMC4wNywwLjAzIDAuNTIsMC4yNSAwLjA3LDAuMDQgMC40OSwwLjMgMC4wOCwwLjA2IDAuODksMC43MyAwLjEsMC4xIDAuNzMsMC44OSAwLjA2LDAuMDggMC4zLDAuNDkgMC4wNCwwLjA2IDAuMjUsMC41MiAwLjAzLDAuMDcgMC4yLDAuNTUgMC4wMiwwLjA3IDAuMTUsMC41NyAwLjAyLDAuMDggMC4wOSwwLjYgMC4wMSwwLjA3IHoiIGNsaXAtcGF0aD0idXJsKCNTVkdJRF82XykiIGlkPSJwYXRoNDI2ODUiIGlua3NjYXBlOmNvbm5lY3Rvci1jdXJ2YXR1cmU9IjAiLz4mI3hhOwkJPHBhdGggc3R5bGU9ImZpbGw6IzU1NmE4YSIgZD0ibSAzNDkuNjQsMTIwLjAzIGggMTMuNDggYyAwLjQxLDAgMC43NSwwLjM0IDAuNzUsMC43NSAwLDAuNDEgLTAuMzQsMC43NSAtMC43NSwwLjc1IGggLTEzLjQ4IGMgLTAuNDEsMCAtMC43NSwtMC4zNCAtMC43NSwtMC43NSAwLC0wLjQyIDAuMzQsLTAuNzUgMC43NSwtMC43NSB6IiBjbGlwLXBhdGg9InVybCgjU1ZHSURfNl8pIiBpZD0icGF0aDQyNjg3IiBpbmtzY2FwZTpjb25uZWN0b3ItY3VydmF0dXJlPSIwIi8+JiN4YTsJCTxwYXRoIHN0eWxlPSJmaWxsOiM1NTZhOGEiIGQ9Im0gMzQ3Ljg1LDExMi43NSA5LjUzLC05LjUzIGMgMC4yOSwtMC4yOSAwLjc3LC0wLjI5IDEuMDYsMCAwLjI5LDAuMjkgMC4yOSwwLjc3IDAsMS4wNiBsIC05LjUzLDkuNTMgYyAtMC4yOSwwLjI5IC0wLjc3LDAuMjkgLTEuMDYsMCAtMC4yOSwtMC4yOSAtMC4yOSwtMC43NiAwLC0xLjA2IHoiIGNsaXAtcGF0aD0idXJsKCNTVkdJRF82XykiIGlkPSJwYXRoNDI2ODkiIGlua3NjYXBlOmNvbm5lY3Rvci1jdXJ2YXR1cmU9IjAiLz4mI3hhOwkJPHBhdGggc3R5bGU9ImZpbGw6IzU1NmE4YSIgZD0ibSAzMzUuNjMsMTEzLjgxIC05LjUzLC05LjUzIGMgLTAuMjksLTAuMjkgLTAuMjksLTAuNzcgMCwtMS4wNiAwLjI5LC0wLjI5IDAuNzcsLTAuMjkgMS4wNiwwIGwgOS41Myw5LjUzIGMgMC4yOSwwLjI5IDAuMjksMC43NyAwLDEuMDYgLTAuMjksMC4zIC0wLjc3LDAuMyAtMS4wNiwwIHoiIGNsaXAtcGF0aD0idXJsKCNTVkdJRF82XykiIGlkPSJwYXRoNDI2OTEiIGlua3NjYXBlOmNvbm5lY3Rvci1jdXJ2YXR1cmU9IjAiLz4mI3hhOwkJPHBhdGggc3R5bGU9ImZpbGw6IzU1NmE4YSIgZD0ibSAzNDguOTEsMTI4LjUyIDkuNTMsOS41MyBjIDAuMjksMC4yOSAwLjI5LDAuNzcgMCwxLjA2IC0wLjI5LDAuMjkgLTAuNzcsMC4yOSAtMS4wNiwwIGwgLTkuNTMsLTkuNTMgYyAtMC4yOSwtMC4yOSAtMC4yOSwtMC43NyAwLC0xLjA2IDAuMywtMC4zIDAuNzcsLTAuMyAxLjA2LDAgeiIgY2xpcC1wYXRoPSJ1cmwoI1NWR0lEXzZfKSIgaWQ9InBhdGg0MjY5MyIgaW5rc2NhcGU6Y29ubmVjdG9yLWN1cnZhdHVyZT0iMCIvPiYjeGE7CQk8cGF0aCBzdHlsZT0iZmlsbDojNTU2YThhIiBkPSJtIDMzNi42OSwxMjkuNTggLTkuNTMsOS41MyBjIC0wLjI5LDAuMjkgLTAuNzcsMC4yOSAtMS4wNiwwIC0wLjI5LC0wLjI5IC0wLjI5LC0wLjc3IDAsLTEuMDYgbCA5LjUzLC05LjUzIGMgMC4yOSwtMC4yOSAwLjc3LC0wLjI5IDEuMDYsMCAwLjI5LDAuMjkgMC4yOSwwLjc2IDAsMS4wNiB6IiBjbGlwLXBhdGg9InVybCgjU1ZHSURfNl8pIiBpZD0icGF0aDQyNjk1IiBpbmtzY2FwZTpjb25uZWN0b3ItY3VydmF0dXJlPSIwIi8+JiN4YTsJCTxwYXRoIHN0eWxlPSJmaWxsOiM1NTZhOGEiIGQ9Im0gMzIxLjk2LDEyMC4wMyBoIDEzLjQ4IGMgMC40MSwwIDAuNzUsMC4zNCAwLjc1LDAuNzUgMCwwLjQxIC0wLjM0LDAuNzUgLTAuNzUsMC43NSBoIC0xMy40OCBjIC0wLjQxLDAgLTAuNzUsLTAuMzQgLTAuNzUsLTAuNzUgMCwtMC40MiAwLjM0LC0wLjc1IDAuNzUsLTAuNzUgeiIgY2xpcC1wYXRoPSJ1cmwoI1NWR0lEXzZfKSIgaWQ9InBhdGg0MjY5NyIgaW5rc2NhcGU6Y29ubmVjdG9yLWN1cnZhdHVyZT0iMCIvPiYjeGE7CQk8cGF0aCBzdHlsZT0iZmlsbDojMmJjN2Y0IiBkPSJtIDM1NS42MywxMTguMDggdiA2LjE3IGMgMCwxLjggLTAuMzYsMy42NiAtMS4wOCw1LjMzIC0wLjY2LDEuNjIgLTEuNjgsMy4xMiAtMi44OCw0LjM4IC0xLjIsMS4yNiAtMi43LDIuMjggLTQuMjUsMyAtMy4zNiwxLjQ0IC03LjE5LDEuNDQgLTEwLjQ5LDAgLTAuMywtMC4xMiAtMC41NCwtMC4yNCAtMC43OCwtMC4zNiAtMS4zMiwtMC43MiAtMi40NiwtMS41NiAtMy41NCwtMi42NCAtMS4yLC0xLjI2IC0yLjE2LC0yLjc2IC0yLjg4LC00LjM4IC0wLjcyLC0xLjY4IC0xLjA4LC0zLjU0IC0xLjA4LC01LjMzIHYgLTYuMTcgYyAwLC0xLjggMC4zNiwtMy42NiAxLjA4LC01LjMzIDAuNzIsLTEuNjIgMS42OCwtMy4wNiAyLjk0LC00LjMxIDEuMDIsLTEuMDggMi4yMiwtMS45OCAzLjQ4LC0yLjY0IDAuMjQsLTAuMTIgMC41NCwtMC4yNCAwLjc4LC0wLjM2IDMuMywtMS41IDcuMTMsLTEuNSAxMC40OSwwIDEuNTYsMC43MiAzLDEuNzQgNC4yNSwzIDEuMiwxLjI2IDIuMTYsMi43NiAyLjg4LDQuMzcgMC43MiwxLjY3IDEuMDgsMy40NyAxLjA4LDUuMjcgeiIgY2xpcC1wYXRoPSJ1cmwoI1NWR0lEXzZfKSIgaWQ9InBhdGg0MjY5OSIgaW5rc2NhcGU6Y29ubmVjdG9yLWN1cnZhdHVyZT0iMCIvPiYjeGE7CQk8cGF0aCBzdHlsZT0iZmlsbDojNTVkMmY2IiBkPSJtIDM1NS42MywxMTguMDggdiA2LjE3IGMgMCwxLjggLTAuMzYsMy42NiAtMS4wOCw1LjMzIC0wLjY2LDEuNjIgLTEuNjgsMy4xMiAtMi44OCw0LjM4IC0xLjIsMS4yNiAtMi43LDIuMjggLTQuMjUsMyAtMS42OCwwLjcyIC0zLjQ4LDEuMDggLTUuMjcsMS4wOCBWIDEwNC4zIGMgMS44LDAgMy42LDAuMzYgNS4yNywxLjE0IDEuNTYsMC43MiAzLDEuNzQgNC4yNSwzIDEuMiwxLjI2IDIuMTYsMi43NiAyLjg4LDQuMzcgMC43MiwxLjY3IDEuMDgsMy40NyAxLjA4LDUuMjcgeiIgY2xpcC1wYXRoPSJ1cmwoI1NWR0lEXzZfKSIgaWQ9InBhdGg0MjcwMSIgaW5rc2NhcGU6Y29ubmVjdG9yLWN1cnZhdHVyZT0iMCIvPiYjeGE7CQk8cGF0aCBzdHlsZT0iZmlsbDojNTU2YThhIiBkPSJtIDM0My40NiwxMzcuMjIgLTAuMDcsMC4wMSAxLjMzLC0wLjIgLTAuMDcsMC4wMiAxLjMxLC0wLjM0IC0wLjA3LDAuMDIgMS4yOCwtMC40NyAtMC4wOCwwLjA0IDEuMTUsLTAuNTkgLTAuMDYsMC4wMyAxLjExLC0wLjcgLTAuMDUsMC4wNCAxLjA0LC0wLjggLTAuMDYsMC4wNSAwLjk1LC0wLjkgLTAuMDUsMC4wNSAwLjg2LC0wLjk5IC0wLjA0LDAuMDUgMC43OCwtMS4wNiAtMC4wNCwwLjA2IDAuNjcsLTEuMTMgLTAuMDMsMC4wNiAwLjU2LC0xLjE5IC0wLjAzLDAuMDYgMC40NywtMS4yOSAtMC4wMiwwLjA3IDAuMzQsLTEuMzMgLTAuMDEsMC4wNyAwLjIsLTEuMzYgLTAuMDEsMC4wNyAwLjA3LC0xLjM2IHYgMC4wNCAtNi4xNyAwLjA0IGwgLTAuMDcsLTEuMzYgMC4wMSwwLjA3IC0wLjIsLTEuMzYgMC4wMSwwLjA3IC0wLjM0LC0xLjMzIDAuMDIsMC4wNyAtMC40NywtMS4yOSAwLjAzLDAuMDYgLTAuNTYsLTEuMTkgMC4wMywwLjA2IC0wLjY3LC0xLjEzIDAuMDQsMC4wNiAtMC43OCwtMS4wNiAwLjA0LDAuMDUgLTAuODYsLTAuOTkgMC4wNSwwLjA1IC0wLjk1LC0wLjkgMC4wNiwwLjA1IC0xLjA0LC0wLjggMC4wNSwwLjA0IC0xLjExLC0wLjcgMC4wNiwwLjAzIC0xLjE1LC0wLjU5IDAuMDgsMC4wNCAtMS4yNywtMC40NyAwLjA3LDAuMDIgLTEuMzEsLTAuMzQgMC4wNywwLjAxIC0xLjMzLC0wLjIgMC4wNywwLjAxIC0xLjMzLC0wLjA3IGggMC4wOCBsIC0xLjMzLDAuMDcgMC4wNywtMC4wMSAtMS4zMywwLjIgMC4wNywtMC4wMSAtMS4zMSwwLjM0IDAuMDcsLTAuMDIgLTEuMjcsMC40NyAwLjA4LC0wLjAzIC0xLjE4LDAuNTkgMC4wNiwtMC4wNCAtMS4xMSwwLjcgMC4wNiwtMC4wNCAtMS4wMywwLjggMC4wNSwtMC4wNSAtMC45NCwwLjkgMC4wNSwtMC4wNSAtMC44OSwxLjAxIDAuMDQsLTAuMDUgLTAuNzgsMS4wNiAwLjAzLC0wLjA1IC0wLjY4LDEuMTIgMC4wMywtMC4wNiAtMC41OCwxLjE4IDAuMDMsLTAuMDcgLTAuNDcsMS4yOSAwLjAyLC0wLjA3IC0wLjM0LDEuMzMgMC4wMSwtMC4wNyAtMC4yLDEuMzYgMC4wMSwtMC4wNyAtMC4wNywxLjM2IHYgLTAuMDQgNi4xNyAtMC4wNCBsIDAuMDcsMS4zNiAtMC4wMSwtMC4wNyAwLjIsMS4zNiAtMC4wMSwtMC4wNyAwLjM0LDEuMzMgLTAuMDIsLTAuMDcgMC40NywxLjI5IC0wLjAzLC0wLjA3IDAuNTgsMS4xOSAtMC4wMywtMC4wNSAwLjY3LDEuMTMgLTAuMDMsLTAuMDUgMC43NiwxLjA2IC0wLjA0LC0wLjA1IDAuODUsMC45OSAtMC4wNiwtMC4wNiAwLjk4LDAuOSAtMC4wNSwtMC4wNCAxLjA0LDAuOCAtMC4wNiwtMC4wNCAxLjEyLDAuNyAtMC4wNiwtMC4wNCAxLjE4LDAuNTkgLTAuMDcsLTAuMDMgMS4yNCwwLjQ3IC0wLjA4LC0wLjAyIDEuMywwLjM0IC0wLjA3LC0wLjAyIDEuMzMsMC4yIC0wLjA4LC0wLjAxIDEuMzUsMC4wNyBoIC0wLjA3IHogbSAtMS4yNywxLjU2IGggLTAuMDcgbCAtMS4zNSwtMC4wNyAtMC4wOCwtMC4wMSAtMS4zMywtMC4yIC0wLjA3LC0wLjAyIC0xLjMsLTAuMzQgLTAuMDgsLTAuMDIgLTEuMjQsLTAuNDcgLTAuMDcsLTAuMDMgLTEuMTgsLTAuNTkgLTAuMDYsLTAuMDQgLTEuMTIsLTAuNyAtMC4wNiwtMC4wNCAtMS4wNCwtMC44IC0wLjA1LC0wLjA0IC0wLjk4LC0wLjkgLTAuMDYsLTAuMDYgLTAuODUsLTAuOTkgLTAuMDQsLTAuMDUgLTAuNzYsLTEuMDYgLTAuMDQsLTAuMDUgLTAuNjcsLTEuMTMgLTAuMDMsLTAuMDUgLTAuNTgsLTEuMTkgLTAuMDMsLTAuMDcgLTAuNDcsLTEuMjkgLTAuMDIsLTAuMDcgLTAuMzQsLTEuMzMgLTAuMDEsLTAuMDcgLTAuMiwtMS4zNiAtMC4wMSwtMC4wNyAtMC4wNywtMS4zNiB2IC0wLjA0IC02LjE3IC0wLjA0IGwgMC4wNywtMS4zNiAwLjAxLC0wLjA3IDAuMiwtMS4zNiAwLjAxLC0wLjA3IDAuMzQsLTEuMzMgMC4wMiwtMC4wNyAwLjQ3LC0xLjI5IDAuMDMsLTAuMDcgMC41OCwtMS4xOCAwLjAzLC0wLjA2IDAuNjgsLTEuMTIgMC4wMywtMC4wNSAwLjc4LC0xLjA2IDAuMDQsLTAuMDUgMC44OSwtMS4wMSAwLjA1LC0wLjA1IDAuOTQsLTAuOSAwLjA1LC0wLjA1IDEuMDMsLTAuOCAwLjA2LC0wLjA0IDEuMTEsLTAuNyAwLjA2LC0wLjA0IDEuMTgsLTAuNTkgMC4wOCwtMC4wMyAxLjI3LC0wLjQ3IDAuMDcsLTAuMDIgMS4zMSwtMC4zNCAwLjA3LC0wLjAyIDEuMzMsLTAuMiAwLjA3LC0wLjAxIDEuMzMsLTAuMDcgaCAwLjA4IGwgMS4zMywwLjA3IDAuMDcsMC4wMSAxLjMzLDAuMiAwLjA3LDAuMDIgMS4zMSwwLjM0IDAuMDcsMC4wMiAxLjI3LDAuNDcgMC4wOCwwLjA0IDEuMTUsMC41OSAwLjA2LDAuMDMgMS4xMSwwLjcgMC4wNSwwLjA0IDEuMDQsMC44IDAuMDYsMC4wNSAwLjk1LDAuOSAwLjA1LDAuMDUgMC44NiwwLjk5IDAuMDQsMC4wNSAwLjc4LDEuMDYgMC4wNCwwLjA2IDAuNjcsMS4xMyAwLjAzLDAuMDYgMC41NiwxLjE5IDAuMDMsMC4wNiAwLjQ3LDEuMjkgMC4wMiwwLjA3IDAuMzQsMS4zMyAwLjAxLDAuMDcgMC4yLDEuMzYgMC4wMSwwLjA3IDAuMDcsMS4zNiB2IDAuMDQgNi4xNyAwLjA0IGwgLTAuMDcsMS4zNiAtMC4wMSwwLjA3IC0wLjIsMS4zNiAtMC4wMSwwLjA3IC0wLjM0LDEuMzMgLTAuMDIsMC4wNyAtMC40NywxLjI5IC0wLjAzLDAuMDYgLTAuNTYsMS4xOSAtMC4wMywwLjA2IC0wLjY3LDEuMTMgLTAuMDQsMC4wNiAtMC43OCwxLjA2IC0wLjA0LDAuMDUgLTAuODYsMC45OSAtMC4wNSwwLjA1IC0wLjk1LDAuOSAtMC4wNiwwLjA1IC0xLjA0LDAuOCAtMC4wNSwwLjA0IC0xLjExLDAuNyAtMC4wNiwwLjAzIC0xLjE1LDAuNTkgLTAuMDgsMC4wNCAtMS4yOCwwLjQ3IC0wLjA3LDAuMDIgLTEuMzEsMC4zNCAtMC4wNywwLjAyIC0xLjMzLDAuMiAtMC4wNywwLjAxIHoiIGNsaXAtcGF0aD0idXJsKCNTVkdJRF82XykiIGlkPSJwYXRoNDI3MDMiIGlua3NjYXBlOmNvbm5lY3Rvci1jdXJ2YXR1cmU9IjAiLz4mI3hhOwk8L2c+JiN4YTs8L2c+JiN4YTs8L3N2Zz4=;" vertex="1" parent="1">
          <mxGeometry x="590" y="680.74" width="36" height="38.51" as="geometry" />
        </mxCell>
        <mxCell id="DDIoOHOh3YlPJ9OeS1EO-2135" value="专项测试" style="rounded=1;whiteSpace=wrap;html=1;dashed=1;strokeColor=none;strokeWidth=2;fillColor=#FFFFFF;fontFamily=Helvetica;fontSize=14;fontColor=#FFB366;opacity=75;verticalAlign=top;fontStyle=1" vertex="1" parent="1">
          <mxGeometry x="410.48" y="462.31" width="239.52" height="116.5" as="geometry" />
        </mxCell>
        <mxCell id="DDIoOHOh3YlPJ9OeS1EO-2136" value="安全性测试" style="html=1;strokeColor=none;fillColor=#0079D6;labelPosition=center;verticalLabelPosition=middle;verticalAlign=top;align=center;fontSize=12;outlineConnect=0;spacingTop=-6;shape=mxgraph.sitemap.security;fontColor=#0F0F0F;" vertex="1" parent="1">
          <mxGeometry x="570.33" y="499.06" width="63.2" height="49.5" as="geometry" />
        </mxCell>
        <mxCell id="DDIoOHOh3YlPJ9OeS1EO-2137" value="稳定性测试" style="shape=image;verticalLabelPosition=bottom;labelBackgroundColor=#ffffff;verticalAlign=top;aspect=fixed;imageAspect=0;image=data:image/svg+xml,PHN2ZyB4bWxuczpkYz0iaHR0cDovL3B1cmwub3JnL2RjL2VsZW1lbnRzLzEuMS8iIHhtbG5zOmNjPSJodHRwOi8vY3JlYXRpdmVjb21tb25zLm9yZy9ucyMiIHhtbG5zOnJkZj0iaHR0cDovL3d3dy53My5vcmcvMTk5OS8wMi8yMi1yZGYtc3ludGF4LW5zIyIgeG1sbnM6c3ZnPSJodHRwOi8vd3d3LnczLm9yZy8yMDAwL3N2ZyIgeG1sbnM9Imh0dHA6Ly93d3cudzMub3JnLzIwMDAvc3ZnIiB4bWxuczpzb2RpcG9kaT0iaHR0cDovL3NvZGlwb2RpLnNvdXJjZWZvcmdlLm5ldC9EVEQvc29kaXBvZGktMC5kdGQiIHhtbG5zOmlua3NjYXBlPSJodHRwOi8vd3d3Lmlua3NjYXBlLm9yZy9uYW1lc3BhY2VzL2lua3NjYXBlIiB2ZXJzaW9uPSIxLjEiIGlkPSJzdmcxMDAwMTQiIGlua3NjYXBlOnZlcnNpb249IjAuOTIuMyAoMjQwNTU0NiwgMjAxOC0wMy0xMSkiIHNvZGlwb2RpOmRvY25hbWU9InVuaWRlbnRpZmllZF9mZWF0dXJlLnN2ZyIgeD0iMHB4IiB5PSIwcHgiIHZpZXdCb3g9IjAgMCAzNy41IDM2Ljg4MjAwNyIgeG1sOnNwYWNlPSJwcmVzZXJ2ZSIgd2lkdGg9IjM3LjUiIGhlaWdodD0iMzYuODgyMDA4Ij48bWV0YWRhdGEgaWQ9Im1ldGFkYXRhMzQyOSI+PHJkZjpSREY+PGNjOldvcmsgcmRmOmFib3V0PSIiPjxkYzpmb3JtYXQ+aW1hZ2Uvc3ZnK3htbDwvZGM6Zm9ybWF0PjxkYzp0eXBlIHJkZjpyZXNvdXJjZT0iaHR0cDovL3B1cmwub3JnL2RjL2RjbWl0eXBlL1N0aWxsSW1hZ2UiLz48ZGM6dGl0bGUvPjwvY2M6V29yaz48L3JkZjpSREY+PC9tZXRhZGF0YT48ZGVmcyBpZD0iZGVmczM0MjciPiYjeGE7CSYjeGE7JiN4YTsJJiN4YTsmI3hhOwkmI3hhOyYjeGE7CSYjeGE7JiN4YTsJJiN4YTsmI3hhOwkmI3hhOyYjeGE7CSYjeGE7JiN4YTsJJiN4YTsmI3hhOwkmI3hhOyYjeGE7CSYjeGE7JiN4YTsJJiN4YTsmI3hhOwkmI3hhOyYjeGE7CSYjeGE7JiN4YTsJJiN4YTsmI3hhOwkmI3hhOyYjeGE7CSYjeGE7JiN4YTsJJiN4YTsmI3hhOwkmI3hhOyYjeGE7CSYjeGE7JiN4YTsJJiN4YTsmI3hhOwkmI3hhOyYjeGE7CQkmI3hhOwkmI3hhOwkJJiN4YTsJJiN4YTsJCSYjeGE7CSYjeGE7CQkmI3hhOwkmI3hhOwkJJiN4YTsJJiN4YTsJCSYjeGE7CSYjeGE7CQkmI3hhOwkmI3hhOwkJJiN4YTsJJiN4YTsJCSYjeGE7CSYjeGE7CQkmI3hhOwkmI3hhOwkJJiN4YTsJJiN4YTsJCSYjeGE7CSYjeGE7CQkmI3hhOwkmI3hhOwkJJiN4YTsJJiN4YTsJCSYjeGE7CSYjeGE7CQkmI3hhOwkmI3hhOwkJJiN4YTsJJiN4YTsJCSYjeGE7CSYjeGE7CQkmI3hhOwkmI3hhOwkJJiN4YTsJJiN4YTsJCSYjeGE7CTwvZGVmcz4mI3hhOzxmaWx0ZXIgaWQ9ImZpbHRlcl8yIj4mI3hhOwk8ZmVHYXVzc2lhbkJsdXIgaWQ9ImZlR2F1c3NpYW5CbHVyOTk4MzUiIHN0ZERldmlhdGlvbj0iMiIvPiYjeGE7PC9maWx0ZXI+JiN4YTs8c29kaXBvZGk6bmFtZWR2aWV3IGJvcmRlcmNvbG9yPSIjNjY2NjY2IiBib3JkZXJvcGFjaXR5PSIxIiBmaXQtbWFyZ2luLWJvdHRvbT0iMCIgZml0LW1hcmdpbi1sZWZ0PSIwIiBmaXQtbWFyZ2luLXJpZ2h0PSIwIiBmaXQtbWFyZ2luLXRvcD0iMCIgZ3JpZHRvbGVyYW5jZT0iMTAiIGd1aWRldG9sZXJhbmNlPSIxMCIgaWQ9Im5hbWVkdmlldzEwMDAxNiIgaW5rc2NhcGU6Y3VycmVudC1sYXllcj0ic3ZnMTAwMDE0IiBpbmtzY2FwZTpjeD0iMjMuNTE4NzI0IiBpbmtzY2FwZTpjeT0iMTMuMjc5Mzk5IiBpbmtzY2FwZTpwYWdlb3BhY2l0eT0iMCIgaW5rc2NhcGU6cGFnZXNoYWRvdz0iMiIgaW5rc2NhcGU6d2luZG93LWhlaWdodD0iMTAxNyIgaW5rc2NhcGU6d2luZG93LW1heGltaXplZD0iMSIgaW5rc2NhcGU6d2luZG93LXdpZHRoPSIxOTIwIiBpbmtzY2FwZTp3aW5kb3cteD0iLTgiIGlua3NjYXBlOndpbmRvdy15PSItOCIgaW5rc2NhcGU6em9vbT0iMTAuNzIzNjk3IiBvYmplY3R0b2xlcmFuY2U9IjEwIiBwYWdlY29sb3I9IiNmZmZmZmYiIHNob3dncmlkPSJmYWxzZSI+JiN4YTsJPC9zb2RpcG9kaTpuYW1lZHZpZXc+JiN4YTsmI3hhOzxwYXRoIGlkPSJwYXRoOTk4NDgiIGlua3NjYXBlOmNvbm5lY3Rvci1jdXJ2YXR1cmU9IjAiIHN0eWxlPSJmaWxsOiNlNWU1ZTUiIGQ9Im0gMTcuNzEsMTMuNzcyMDA5IGMgLTAuMTEsMCAtMC4xOCwtMC4wNCAtMC4zLC0wLjA0IC02LjIyLDAgLTguMzcsMi40NyAtOC4zNywyLjQ3IDYuMSwzLjcgOC4zNywxMS41NiA4LjM3LDExLjU2IDAsMCAwLjEyLC0wLjI4IDAuMywtMC43NCAwLjE5LDAuNDYgMC4zMSwwLjc0IDAuMzEsMC43NCAwLDAgMi4yNywtNy44NiA4LjM3LC0xMS41NiAwLDAgLTIuMTUsLTIuNDcgLTguMzcsLTIuNDcgLTAuMTIsMCAtMC4yLDAuMDQgLTAuMzEsMC4wNCB6Ii8+JiN4YTsmI3hhOzxwYXRoIGlkPSJwYXRoOTk4NTYiIGlua3NjYXBlOmNvbm5lY3Rvci1jdXJ2YXR1cmU9IjAiIHN0eWxlPSJmaWxsOiMzOTk5YzYiIGQ9Im0gMzUuMzMsMzAuNzgyMDA5IGMgMC4wOSwtMC4wNiAwLjE0LC0wLjEgMC4xNCwtMC4xIDAsMCAtMS4xNCwtMS44MSAtMy42NiwtMy43NiAtMS40NywtMS4xMyAtMy4zOSwtMi4zMSAtNS44NCwtMy4yMiB2IC0wLjA0IGMgLTIuNDYsLTAuODUgLTUuMjYsLTEuMzMgLTguMjQsLTEuMzMgLTIuOTcsMCAtNS43NywwLjQ4IC04LjIzLDEuMzMgdiAwLjA0IGMgLTIuNDUsMC45MSAtNC4zOCwyLjA5IC01Ljg0LDMuMjIgLTIuNTMsMS45NSAtMy42NiwzLjc2IC0zLjY2LDMuNzYgMCwwIDAuMDUsMC4wNCAwLjE1LDAuMTIgMC4xMSwwLjA4IDAuMjcsMC4xOSAwLjQ5LDAuMzQgMS45MywxLjMzIDguMiw1Ljc0IDE3LjA5LDUuNzQgOC45LDAgMTUuMTYsLTQuNDEgMTcuMSwtNS43NCAwLjIzLC0wLjE1IDAuMzksLTAuMjggMC41LC0wLjM2IHoiLz4mI3hhOyYjeGE7PHBhdGggaWQ9InBhdGg5OTg2NCIgaW5rc2NhcGU6Y29ubmVjdG9yLWN1cnZhdHVyZT0iMCIgc3R5bGU9ImZpbGw6IzFlMWUxZTtmaWxsLW9wYWNpdHk6MC41IiBkPSJtIDI4LjUyLDI2LjI1MjAwOSBjIDAsMS41MyAtNC44NSwyLjc4IC0xMC44NCwyLjc4IC01Ljk5LDAgLTEwLjg0LC0xLjI1IC0xMC44NCwtMi43OCAwLC0xLjUzIDQuODUsLTIuNzcgMTAuODQsLTIuNzcgNS45OSwwIDEwLjg0LDEuMjQgMTAuODQsMi43NyB6Ii8+JiN4YTsmI3hhOzxwYXRoIGlkPSJwYXRoOTk4NzIiIGlua3NjYXBlOmNvbm5lY3Rvci1jdXJ2YXR1cmU9IjAiIHN0eWxlPSJmaWxsOiM3YTdhN2EiIGQ9Im0gMTcuNjQsMjMuNDgyMDA5IGggLTAuMDEgLTAuMDEgYyAtNiwwLjE4IC0xMC43NSwxLjMzIC0xMC45LDIuNjkgLTAuMDEsLTAuMzcgLTAuMDIsLTAuNzMgLTAuMDIsLTEuMDkgLTAuMDIsLTEuMzggNC44LC0yLjU4IDEwLjkyLC0yLjc2IGggMC4wMSAwLjAxIGMgNi4xMSwwLjE4IDEwLjkzLDEuMzggMTAuOTIsMi43NiAtMC4wMSwwLjM2IC0wLjAyLDAuNzIgLTAuMDIsMS4wOSAtMC4xNiwtMS4zNiAtNC45LC0yLjUxIC0xMC45LC0yLjY5IHoiLz4mI3hhOyYjeGE7PHBhdGggaWQ9InBhdGg5OTg4MCIgaW5rc2NhcGU6Y29ubmVjdG9yLWN1cnZhdHVyZT0iMCIgc3R5bGU9ImZpbGw6IzU5YjRkOSIgZD0ibSAxNS41NCwyNS41NTIwMDkgYyAtMC4yMywtMC4wNSAtNS41MSwtMS4xIC02LjY3LC01LjU4IC0wLjA1LC0wLjIgMC4wMywtMC40IDAuMjEsLTAuNDkgMC4xNiwtMC4xMSAwLjM4LC0wLjA5IDAuNTIsMC4wNSAwLjAzLDAuMDIgMi43NSwyLjYzIDQuOTksMi42NiAwLjE5LC0wLjAxIDAuMzUsMC4xMSAwLjQxLDAuMjcgbCAxLjAzLDIuNDggYyAwLjA3LDAuMTUgMC4wNCwwLjMyIC0wLjA2LDAuNDUgLTAuMSwwLjEzIC0wLjI3LDAuMTkgLTAuNDMsMC4xNiB6Ii8+JiN4YTsmI3hhOzxwYXRoIGlkPSJwYXRoOTk4ODgiIGlua3NjYXBlOmNvbm5lY3Rvci1jdXJ2YXR1cmU9IjAiIHN0eWxlPSJmaWxsOiM1OWI0ZDkiIGQ9Im0gMjUuMDUsMTkuMjIyMDA5IGMgLTAuMDIsMC4wMyAtMi4yNCwyLjc1IC00LjMyLDMuMDUgLTAuMTcsMC4wMSAtMC4zLDAuMTQgLTAuMzQsMC4zIGwgLTAuNjYsMi40MSBjIC0wLjA0LDAuMTYgMCwwLjMxIDAuMTEsMC40MSAwLjEyLDAuMTEgMC4yOCwwLjE1IDAuNDIsMC4xIDAuMiwtMC4wNiA0Ljk4LC0xLjY3IDUuNTIsLTUuOTcgMC4wMywtMC4xOCAtMC4wOCwtMC4zNSAtMC4yNSwtMC40MiAtMC4xNywtMC4wOCAtMC4zNiwtMC4wMiAtMC40OCwwLjEyIHoiLz4mI3hhOyYjeGE7PHBhdGggaWQ9InBhdGg5OTg5NiIgaW5rc2NhcGU6Y29ubmVjdG9yLWN1cnZhdHVyZT0iMCIgc3R5bGU9ImZpbGw6IzFlMWUxZSIgZD0ibSAyMC4wNCwyMy4xOTIwMDkgMC42OSw0Ljc2IGggLTYuMTYgbCAwLjY5LC00Ljc2IHoiLz4mI3hhOyYjeGE7PHBhdGggaWQ9InBhdGg5OTkwNCIgaW5rc2NhcGU6Y29ubmVjdG9yLWN1cnZhdHVyZT0iMCIgc3R5bGU9ImZpbGw6IzU5YjRkOSIgZD0ibSAxNy40LDI4LjExMjAwOSBjIC0xLjY5LC02LjczIC00LjE2LC05LjE2IC03LjE5LC0xNS42OSAtMi45NCwtNi4zNDk5OTk5IDEuNzcsLTEyLjU0OTk5OTg5IDcuODIsLTEyLjQxOTk5OTg5IDYuMDQsMC4xNCAxMC40Nyw2LjU0OTk5OTk5IDcuMjQsMTIuNzQ5OTk5ODkgLTMuMzIsNi40IC01Ljg4LDguNzEgLTcuODcsMTUuMzYgeiIvPiYjeGE7JiN4YTs8cGF0aCBpZD0icGF0aDk5OTEyIiBpbmtzY2FwZTpjb25uZWN0b3ItY3VydmF0dXJlPSIwIiBzdHlsZT0iZmlsbDojMWUxZTFlIiBkPSJtIDE1LjI2LDEwLjgyMjAwOSBjIC0wLjAxLDAuNTYgLTAuMjgsMSAtMC41OSwwLjk5IC0wLjMxLC0wLjAxIC0wLjU1LC0wLjQ2IC0wLjU1LC0xLjAyIDAuMDIsLTAuNTUgMC4yOSwtMC45ODk5OTk5IDAuNTksLTAuOTc5OTk5OSAwLjMyLDAuMDEgMC41NiwwLjQ1OTk5OTkgMC41NSwxLjAwOTk5OTkgeiIvPiYjeGE7JiN4YTs8cGF0aCBpZD0icGF0aDk5OTIwIiBpbmtzY2FwZTpjb25uZWN0b3ItY3VydmF0dXJlPSIwIiBzdHlsZT0iZmlsbDojMWUxZTFlIiBkPSJtIDIxLjI2LDEwLjk4MjAwOSBjIC0wLjAxLDAuNTQgLTAuMjcsMC45OSAtMC41OSwwLjk4IC0wLjMxLC0wLjAxIC0wLjU1LC0wLjQ2IC0wLjUzLC0xLjAxIDAsLTAuNTYgMC4yNiwtMC45OTk5OTk5IDAuNTgsLTAuOTg5OTk5OSAwLjMxLDAgMC41NiwwLjQ1OTk5OTkgMC41NCwxLjAxOTk5OTkgeiIvPiYjeGE7JiN4YTs8cGF0aCBpZD0icGF0aDk5OTI4IiBpbmtzY2FwZTpjb25uZWN0b3ItY3VydmF0dXJlPSIwIiBzdHlsZT0iZmlsbDojYTBhMWEyIiBkPSJtIDIwLjc0LDE5LjM3MjAwOSBjIC0xLjc3LDEuOTkgLTIuNjIsNC42OSAtMy4wMyw2LjUyIC0wLjQsLTEuODMgLTEuMjYsLTQuNTMgLTMuMDIsLTYuNTIgMCwwIC0yLjg0LC0zLjAyIC01LjU5LC0zLjA1IDAsMCA3LjQ3LDcuMSA4LjE5LDExLjU3IGggMC4wOSAwLjY3IDAuMDkgYyAwLjcyLC00LjQ3IDguMTksLTExLjU3IDguMTksLTExLjU3IC0yLjc2LDAuMDMgLTUuNTksMy4wNSAtNS41OSwzLjA1IHoiLz4mI3hhOyYjeGE7PHBhdGggaWQ9InBhdGg5OTkzNiIgaW5rc2NhcGU6Y29ubmVjdG9yLWN1cnZhdHVyZT0iMCIgc3R5bGU9ImZpbGw6I2U1ZTVlNSIgZD0ibSAxNy42NCwyNy42NjIwMDkgaCAtMC4wMiBjIC02LC0wLjE3IC0xMC43NSwtMC45NSAtMTAuOSwtMi4zIC0wLjAxLDAuMzcgLTAuMDIsMC43MyAtMC4wMiwxLjA5IC0wLjAyLDEuMzggNC44LDIuNTggMTAuOTIsMi43NSB2IDAuMDEgYyAwLDAgMCwtMC4wMSAwLjAxLC0wLjAxIDAsMCAwLDAuMDEgMC4wMSwwLjAxIHYgLTAuMDEgYyA2LjExLC0wLjE3IDEwLjkzLC0xLjM3IDEwLjkyLC0yLjc1IC0wLjAxLC0wLjM2IC0wLjAyLC0wLjcyIC0wLjAyLC0xLjA5IC0wLjE2LDEuMzUgLTQuOSwyLjEzIC0xMC45LDIuMyB6Ii8+JiN4YTsmI3hhOzxwYXRoIGlkPSJwYXRoOTk5NDQiIGlua3NjYXBlOmNvbm5lY3Rvci1jdXJ2YXR1cmU9IjAiIHN0eWxlPSJmaWxsOiNiOGQ0MzIiIGQ9Im0gMzIuNjIsNS4xNzIwMDkxIGMgLTIuNywwIC00Ljg4LDIuMTkgLTQuODgsNC44Nzk5OTk5IDAsMC45NiAwLjExLDEuNTUgMC41OCwyLjMgbCAtMS42LDEuMzMgaCAyLjYzIGMgMC44NywwLjc4IDIuMDEsMS4yNiAzLjI3LDEuMjYgMi43LDAgNC44OCwtMi4xOSA0Ljg4LC00Ljg5IDAsLTIuNjg5OTk5OSAtMi4xOCwtNC44Nzk5OTk5IC00Ljg4LC00Ljg3OTk5OTkgeiIvPiYjeGE7JiN4YTs8cGF0aCBpZD0icGF0aDk5OTUyIiBpbmtzY2FwZTpjb25uZWN0b3ItY3VydmF0dXJlPSIwIiBzdHlsZT0iZmlsbDojZmZmZmZmIiBkPSJtIDM1LjExLDguMDIyMDA5MSBjIDAsMC43NCAtMC4zNiwxLjQgLTEuMSwxLjk5OTk5OTkgLTAuMywwLjI0IC0wLjUxLDAuNDQgLTAuNjEsMC42IC0wLjEsMC4xNiAtMC4xNiwwLjM3IC0wLjE2LDAuNjMgdiAwLjI5IGggLTEuMzYgdiAtMC40NSBjIDAsLTAuNjMgMC4yNSwtMS4xNTk5OTk5IDAuNzYsLTEuNTg5OTk5OSAwLjMxLC0wLjI2IDAuNTMsLTAuNDcgMC42NCwtMC42NCAwLjExLC0wLjE3IDAuMTcsLTAuMzcgMC4xNywtMC42MSAwLC0wLjIyIC0wLjA4LC0wLjQgLTAuMjQsLTAuNTQgLTAuMTcsLTAuMTQgLTAuMzgsLTAuMjEgLTAuNjMsLTAuMjEgLTAuNTgsMCAtMS4xMywwLjIzIC0xLjY1LDAuNjggdiAtMS41OCBjIDAuNTQsLTAuMzIgMS4xNSwtMC40OCAxLjgyLC0wLjQ4IDAuNzQsMCAxLjMyLDAuMTcgMS43NCwwLjUxIDAuNDEsMC4zMyAwLjYyLDAuOCAwLjYyLDEuMzkgeiIvPiYjeGE7JiN4YTs8cGF0aCBpZD0icGF0aDk5OTYwIiBpbmtzY2FwZTpjb25uZWN0b3ItY3VydmF0dXJlPSIwIiBzdHlsZT0iZmlsbDojZmZmZmZmIiBkPSJtIDMzLjU2LDEzLjAzMjAwOSBjIDAsMC4yNiAtMC4wOSwwLjQ2IC0wLjI3LDAuNjMgLTAuMTgsMC4xNiAtMC40MSwwLjI1IC0wLjY5LDAuMjUgLTAuMjcsMCAtMC41LC0wLjA5IC0wLjY5LC0wLjI1IC0wLjE5LC0wLjE3IC0wLjI5LC0wLjM4IC0wLjI5LC0wLjYzIDAsLTAuMjUgMC4wOSwtMC40NSAwLjI4LC0wLjYxIDAuMTksLTAuMTcgMC40MiwtMC4yNSAwLjcsLTAuMjUgMC4yOCwwIDAuNTEsMC4wOCAwLjY5LDAuMjUgMC4xOCwwLjE2IDAuMjcsMC4zNiAwLjI3LDAuNjEgeiIvPiYjeGE7JiN4YTs8cGF0aCBpZD0icGF0aDk5OTY4IiBpbmtzY2FwZTpjb25uZWN0b3ItY3VydmF0dXJlPSIwIiBzdHlsZT0iZmlsbDojMWUxZTFlO2ZpbGwtb3BhY2l0eTowLjUiIGQ9Im0gMTcuNzMsMzYuODgyMDA5IGMgOC45LDAgMTUuMTYsLTQuNDEgMTcuMSwtNS43NCAwLjIzLC0wLjE1IDAuMzksLTAuMjggMC41LC0wLjM2IC0zLjUyLDEuNDIgLTEwLjIsNCAtMTcuNjMsNCAtNy40NCwwIC0xNC4wNCwtMi41MyAtMTcuNTUsLTMuOTggMC4xMSwwLjA4IDAuMjcsMC4xOSAwLjQ5LDAuMzQgMS45MywxLjMzIDguMTksNS43NCAxNy4wOSw1Ljc0IHoiLz4mI3hhOyYjeGE7PHBhdGggaWQ9InBhdGg5OTk3NiIgaW5rc2NhcGU6Y29ubmVjdG9yLWN1cnZhdHVyZT0iMCIgc3R5bGU9ImZpbGw6IzNlM2UzZTtmaWxsLW9wYWNpdHk6MC44NSIgZD0ibSAyMy4yNCwxMy42NzIwMDkgYyAwLjAxLC0wLjQ5IC0xMC44LC0wLjczIC0xMC44MSwtMC4yNSAtMC4wMSwwLjM0IDEuMjIsMS44OSAyLjk4LDIuODMgMC42NiwtMC4xOCAxLjQ2LC0wLjI0IDIuMjksLTAuMTIgMC43MiwwLjExIDEuMzQsMC4zMiAxLjgyLDAuNjEgMi4xOCwtMC42OSAzLjcxLC0yLjY4IDMuNzIsLTMuMDcgeiIvPiYjeGE7JiN4YTs8cGF0aCBpZD0icGF0aDk5OTg0IiBpbmtzY2FwZTpjb25uZWN0b3ItY3VydmF0dXJlPSIwIiBzdHlsZT0iZmlsbDojMWUxZTFlIiBkPSJtIDE4LjMxLDE0LjE5MjAwOSBjIC0wLjU0LC0wLjA0IC0wLjU3LDAuMzggLTAuNTUsMC44OCAwLjAyLDAuNSAwLjA2LDAuNjkgLTAuMTYsMC42OSAtMC4yMiwwIC0wLjU0LC0wLjEzIC0wLjI3LC0wLjY4IDAuMjksLTAuNTUgMC4wMywtMS4yOSAtMS4wOSwtMC42MyAtMC44OCwwLjUxIC0wLjc3LDEuNDEgLTAuNjgsMS43NyAwLjYzLC0wLjE2IDEuMzcsLTAuMiAyLjE1LC0wLjA5IDAuNzIsMC4xMSAxLjM0LDAuMzIgMS44MiwwLjYxIDAuMDgsLTAuMDMgMC4xNiwtMC4wNyAwLjI0LC0wLjEgMCwtMC4wMiAwLjAxLC0wLjAzIDAuMDIsLTAuMDUgMC42MiwtMS40NyAtMC45MywtMi4zNyAtMS40OCwtMi40IHoiLz4mI3hhOyYjeGE7PHBhdGggaWQ9InBhdGg5OTk5MiIgaW5rc2NhcGU6Y29ubmVjdG9yLWN1cnZhdHVyZT0iMCIgc3R5bGU9ImZpbGw6I2ZmZmZmZiIgZD0ibSAxOC45NCwxNC4yNzIwMDkgYyAwLjU1LDAgMS4wMSwtMC40NSAxLjA3LC0xLjAxIC0wLjY5LC0wLjA0IC0xLjQzLC0wLjA2IC0yLjE4LC0wLjA4IDAuMDIsMC42MSAwLjUxLDEuMSAxLjExLDEuMDkgeiIvPiYjeGE7JiN4YTs8cGF0aCBpZD0icGF0aDEwMDAwMCIgaW5rc2NhcGU6Y29ubmVjdG9yLWN1cnZhdHVyZT0iMCIgc3R5bGU9ImZpbGw6I2ZmZmZmZiIgZD0ibSAxNi41LDE0LjIzMjAwOSBjIDAuNTksMC4wMyAxLjEsLTAuNDUgMS4xNCwtMS4wNSAtMC41NywtMC4wMiAtMS4xNCwtMC4wMiAtMS42NywtMC4wMiAtMC4xOCwwIC0wLjM0LDAgLTAuNTEsMCAwLjAzLDAuNTggMC40OCwxLjA1IDEuMDQsMS4wNyB6Ii8+JiN4YTsmI3hhOzxwYXRoIGlkPSJwYXRoMTAwMDA4IiBpbmtzY2FwZTpjb25uZWN0b3ItY3VydmF0dXJlPSIwIiBzdHlsZT0iZmlsbDojZGQ1OTAwIiBkPSJtIDE1LjQxLDE2LjI0MjAwOSBjIDAuNzcsMC40MSAxLjYzLDAuNyAyLjU0LDAuNzIgMC41NSwwLjAyIDEuMDgsLTAuMDcgMS41NywtMC4yMyAtMC40OCwtMC4yOCAtMS4xLC0wLjUgLTEuODIsLTAuNiAtMC44MywtMC4xMiAtMS42MywtMC4wNyAtMi4yOSwwLjExIHoiLz4mI3hhOzwvc3ZnPg==;" vertex="1" parent="1">
          <mxGeometry x="515.81" y="501.84" width="30.64" height="29.83" as="geometry" />
        </mxCell>
        <mxCell id="DDIoOHOh3YlPJ9OeS1EO-2138" value="性能测试" style="shape=image;verticalLabelPosition=bottom;labelBackgroundColor=#ffffff;verticalAlign=top;aspect=fixed;imageAspect=0;image=data:image/svg+xml,PHN2ZyB4bWxuczpjYz0iaHR0cDovL2NyZWF0aXZlY29tbW9ucy5vcmcvbnMjIiB4bWxuczpkYz0iaHR0cDovL3B1cmwub3JnL2RjL2VsZW1lbnRzLzEuMS8iIHhtbG5zOmlua3NjYXBlPSJodHRwOi8vd3d3Lmlua3NjYXBlLm9yZy9uYW1lc3BhY2VzL2lua3NjYXBlIiB4bWxuczpyZGY9Imh0dHA6Ly93d3cudzMub3JnLzE5OTkvMDIvMjItcmRmLXN5bnRheC1ucyMiIHhtbG5zOnNvZGlwb2RpPSJodHRwOi8vc29kaXBvZGkuc291cmNlZm9yZ2UubmV0L0RURC9zb2RpcG9kaS0wLmR0ZCIgeG1sbnM6c3ZnPSJodHRwOi8vd3d3LnczLm9yZy8yMDAwL3N2ZyIgeG1sbnM9Imh0dHA6Ly93d3cudzMub3JnLzIwMDAvc3ZnIiB4bWxuczp4bGluaz0iaHR0cDovL3d3dy53My5vcmcvMTk5OS94bGluayIgdmVyc2lvbj0iMS4xIiBpZD0ic3ZnMTg5MTc0IiBpbmtzY2FwZTp2ZXJzaW9uPSIwLjkyLjMgKDI0MDU1NDYsIDIwMTgtMDMtMTEpIiBzb2RpcG9kaTpkb2NuYW1lPSJwZXJmb3JtYW5jZV90ZXN0aW5nLnN2ZyIgeD0iMHB4IiB5PSIwcHgiIHZpZXdCb3g9IjAgMCAxNTQuNjQgNjguOTciIHN0eWxlPSJlbmFibGUtYmFja2dyb3VuZDpuZXcgMCAwIDE1NC42NCA2OC45NzsiIHhtbDpzcGFjZT0icHJlc2VydmUiPiYjeGE7PHNvZGlwb2RpOm5hbWVkdmlldyBib3JkZXJjb2xvcj0iIzY2NjY2NiIgYm9yZGVyb3BhY2l0eT0iMSIgZml0LW1hcmdpbi1ib3R0b209IjAiIGZpdC1tYXJnaW4tbGVmdD0iMCIgZml0LW1hcmdpbi1yaWdodD0iMCIgZml0LW1hcmdpbi10b3A9IjAiIGdyaWR0b2xlcmFuY2U9IjEwIiBndWlkZXRvbGVyYW5jZT0iMTAiIGlkPSJuYW1lZHZpZXcxODkxNzYiIGlua3NjYXBlOmN1cnJlbnQtbGF5ZXI9InN2ZzE4OTE3NCIgaW5rc2NhcGU6Y3g9IjEwMy4wOTIyOSIgaW5rc2NhcGU6Y3k9IjQ1Ljk4MDI4OCIgaW5rc2NhcGU6cGFnZW9wYWNpdHk9IjAiIGlua3NjYXBlOnBhZ2VzaGFkb3c9IjIiIGlua3NjYXBlOndpbmRvdy1oZWlnaHQ9IjEwMTciIGlua3NjYXBlOndpbmRvdy1tYXhpbWl6ZWQ9IjEiIGlua3NjYXBlOndpbmRvdy13aWR0aD0iMTkyMCIgaW5rc2NhcGU6d2luZG93LXg9Ii04IiBpbmtzY2FwZTp3aW5kb3cteT0iLTgiIGlua3NjYXBlOnpvb209IjguNDgwOTg0NCIgb2JqZWN0dG9sZXJhbmNlPSIxMCIgcGFnZWNvbG9yPSIjZmZmZmZmIiBzaG93Z3JpZD0iZmFsc2UiPiYjeGE7CTwvc29kaXBvZGk6bmFtZWR2aWV3PiYjeGE7PGcgaWQ9ImcxODkxNzIiIHRyYW5zZm9ybT0idHJhbnNsYXRlKC0xLjQ3NDcsLTEuNDc4KSI+JiN4YTsJPHRpdGxlIGlkPSJ0aXRsZTE4ODY1NyI+UGFnZS0xPC90aXRsZT4mI3hhOwk8ZyBpZD0iZ3JvdXAyNTg3LTEiIHRyYW5zZm9ybT0idHJhbnNsYXRlKDEuNDc0NywtMS40NzQ3KSI+JiN4YTsJCTx0aXRsZSBpZD0idGl0bGUxODg2NTkiPlBlcmZvcm1hbmNlIFRlc3Rpbmc8L3RpdGxlPiYjeGE7CQk8ZyBpZD0ic2hhcGUyNTg4LTIiIHRyYW5zZm9ybT0idHJhbnNsYXRlKDUwLjgzOTksLTEzLjIwNzMpIj4mI3hhOwkJCTx0aXRsZSBpZD0idGl0bGUxODg2NjEiPlNoZWV0LjI1ODg8L3RpdGxlPiYjeGE7CQkJPHBhdGggaWQ9InBhdGgxODg2NjMiIGlua3NjYXBlOmNvbm5lY3Rvci1jdXJ2YXR1cmU9IjAiIHN0eWxlPSJmaWxsOiNCMkQ3RjA7IiBkPSJNNzkuMjYsNzEuOTJIMjYuOTQgICAgIGMtNS4wMSwwLTguMTctMC4wNC0xMC41MS0wLjI0Yy0wLjE1LTAuMDItMC4zLTAuMDMtMC40NS0wLjA1Yy0yLjQzLTAuMjQtMy44My0wLjgzLTUuMzItMS40NmwtMC4yOC0wLjExICAgICBDNC4wNyw2Ny4xMSwwLDYwLjcxLDAsNTMuNzZjMC05LjkyLDguMDctMTcuOTksMTcuOTktMTcuOTljMS4yNiwwLDIuNTEsMC4xMywzLjc0LDAuMzljMi44Mi03LjczLDEwLjA4LTEyLjk5LDE4LjIyLTEyLjk5ICAgICBjMi45NCwwLDUuODMsMC42OCw4LjQ1LDEuOThjMy40OS01LjU5LDkuNDctOC45OSwxNi4wMS04Ljk5YzkuMzMsMCwxNy4zMyw3LjEzLDE4LjgsMTYuNDdjOC44NiwxLjg3LDE1LjM4LDkuOTYsMTUuMzgsMTkuNCAgICAgYzAsOS40Ni02LjU0LDE3LjYzLTE1LjU1LDE5LjQ0QzgxLjgsNzEuNzcsODAuNTIsNzEuOTIsNzkuMjYsNzEuOTJMNzkuMjYsNzEuOTJ6Ii8+JiN4YTsJCTwvZz4mI3hhOwkJPGcgaWQ9InNoYXBlMjU4OS00IiB0cmFuc2Zvcm09InRyYW5zbGF0ZSgxMzIuMzk2LC02LjM1NDk5KSI+JiN4YTsJCQk8dGl0bGUgaWQ9InRpdGxlMTg4NjY2Ij5TaGVldC4yNTg5PC90aXRsZT4mI3hhOwkJCTxjaXJjbGUgaWQ9ImVsbGlwc2UxODg2NjgiIHN0eWxlPSJmaWxsOiNGRkZGRkY7IiBjeD0iMTAuNTkiIGN5PSI2MS4zMyIgcj0iMTAuNTkiLz4mI3hhOwkJPC9nPiYjeGE7CQk8ZyBpZD0iZ3JvdXAyNTkwLTYiIHRyYW5zZm9ybT0idHJhbnNsYXRlKDg0LjczMzIsLTM5LjY5NTkpIj4mI3hhOwkJCTx0aXRsZSBpZD0idGl0bGUxODg2NzEiPlNoZWV0LjI1OTA8L3RpdGxlPiYjeGE7CQkJPGcgaWQ9Imdyb3VwMjU5MS03IiB0cmFuc2Zvcm09InRyYW5zbGF0ZSg2LjQxODAxLC0wLjc2MzY1OCkiPiYjeGE7CQkJCTx0aXRsZSBpZD0idGl0bGUxODg2NzMiPlNoZWV0LjI1OTE8L3RpdGxlPiYjeGE7CQkJCTxnIGlkPSJzaGFwZTI1OTItOCI+JiN4YTsJCQkJCTx0aXRsZSBpZD0idGl0bGUxODg2NzUiPlNoZWV0LjI1OTI8L3RpdGxlPiYjeGE7CQkJCQk8cGF0aCBpZD0icGF0aDE4ODY3NyIgaW5rc2NhcGU6Y29ubmVjdG9yLWN1cnZhdHVyZT0iMCIgc3R5bGU9ImZpbGw6IzE3MTcxNzsiIGQ9Ik00MC41NCw3MS45MkgxLjc0ICAgICAgIEMwLjc4LDcxLjkyLDAsNzEuMTQsMCw3MC4xOFY0OC40NWMwLTAuOTYsMC43OC0xLjc0LDEuNzQtMS43NGgzOC44YzAuOTYsMCwxLjc0LDAuNzgsMS43NCwxLjc0djIxLjczICAgICAgIEM0Mi4yOCw3MS4xNCw0MS41LDcxLjkyLDQwLjU0LDcxLjkyeiIvPiYjeGE7CQkJCTwvZz4mI3hhOwkJCQk8ZyBpZD0ic2hhcGUyNTkzLTEwIiB0cmFuc2Zvcm09InRyYW5zbGF0ZSgxLjQ1NDc2LC0zLjI3OTE4KSI+JiN4YTsJCQkJCTx0aXRsZSBpZD0idGl0bGUxODg2ODAiPlNoZWV0LjI1OTM8L3RpdGxlPiYjeGE7CQkJCQk8cmVjdCBpZD0icmVjdDE4ODY4MiIgeD0iMCIgeT0iNTEuMzIiIHN0eWxlPSJmaWxsOiM3Q0FCQzI7IiB3aWR0aD0iMzkuNDEiIGhlaWdodD0iMjAuNiIvPiYjeGE7CQkJCTwvZz4mI3hhOwkJCQk8ZyBpZD0ic2hhcGUyNTk0LTEyIiB0cmFuc2Zvcm09InRyYW5zbGF0ZSgxLjQ1NDc2LC0zLjI3OTE4KSI+JiN4YTsJCQkJCTx0aXRsZSBpZD0idGl0bGUxODg2ODUiPlNoZWV0LjI1OTQ8L3RpdGxlPiYjeGE7CQkJCQk8cmVjdCBpZD0icmVjdDE4ODY4NyIgeD0iMCIgeT0iNTEuMzIiIHN0eWxlPSJmaWxsOm5vbmU7IiB3aWR0aD0iMzkuNDEiIGhlaWdodD0iMjAuNiIvPiYjeGE7CQkJCTwvZz4mI3hhOwkJCQk8ZyBpZD0ic2hhcGUyNTk1LTE0IiB0cmFuc2Zvcm09InRyYW5zbGF0ZSgxLjQ1NDc2LC0zLjI3OTE4KSI+JiN4YTsJCQkJCTx0aXRsZSBpZD0idGl0bGUxODg2OTAiPlNoZWV0LjI1OTU8L3RpdGxlPiYjeGE7CQkJCQk8cGF0aCBpZD0icGF0aDE4ODY5MiIgaW5rc2NhcGU6Y29ubmVjdG9yLWN1cnZhdHVyZT0iMCIgc3R5bGU9ImZpbGw6IzQ3OEFBOTsiIGQ9Ik0zOS4zNiw2Ni41MkwyOCw1MS4zMkgwdjIwLjZoMzkuMzZWNjYuNTJ6Ii8+JiN4YTsJCQkJPC9nPiYjeGE7CQkJPC9nPiYjeGE7CQkJPGcgaWQ9InNoYXBlMjU5Ni0xNiI+JiN4YTsJCQkJPHRpdGxlIGlkPSJ0aXRsZTE4ODY5NiI+U2hlZXQuMjU5NjwvdGl0bGU+JiN4YTsJCQkJPHBhdGggaWQ9InBhdGgxODg2OTgiIGlua3NjYXBlOmNvbm5lY3Rvci1jdXJ2YXR1cmU9IjAiIHN0eWxlPSJmaWxsOiMxNzE3MTc7IiBkPSJNMC4wMSw3MC4xNmMwLDAuMDMtMC4wMSwwLjA1LTAuMDEsMC4wOCAgICAgIGMwLDAuOTMsMC43MywxLjY4LDEuNjMsMS42OGg1Mi4yOGMwLjg5LDAsMS42Mi0wLjc1LDEuNjItMS42OGMwLTAuMDMsMC0wLjA1LTAuMDEtMC4wOEgwLjAxeiIvPiYjeGE7CQkJPC9nPiYjeGE7CQk8L2c+JiN4YTsJCTxnIGlkPSJncm91cDI1OTctMTgiIHRyYW5zZm9ybT0idHJhbnNsYXRlKDEwNS4yMDMsLTUuMzIwNzIpIj4mI3hhOwkJCTx0aXRsZSBpZD0idGl0bGUxODg3MDIiPlNoZWV0LjI1OTc8L3RpdGxlPiYjeGE7CQkJPGcgaWQ9Imdyb3VwMjU5OC0xOSIgdHJhbnNmb3JtPSJ0cmFuc2xhdGUoMjYuNDg1KSI+JiN4YTsJCQkJPHRpdGxlIGlkPSJ0aXRsZTE4ODcwNCI+U2hlZXQuMjU5ODwvdGl0bGU+JiN4YTsJCQkJPGcgaWQ9InNoYXBlMjU5OS0yMCI+JiN4YTsJCQkJCTx0aXRsZSBpZD0idGl0bGUxODg3MDYiPlNoZWV0LjI1OTk8L3RpdGxlPiYjeGE7CQkJCQk8cGF0aCBpZD0icGF0aDE4ODcwOCIgaW5rc2NhcGU6Y29ubmVjdG9yLWN1cnZhdHVyZT0iMCIgc3R5bGU9ImZpbGw6IzQ3OEFBOTsiIGQ9Ik0xMS4zNyw0OS4xOEM1LjA5LDQ5LjE4LDAsNTQuMjcsMCw2MC41NSAgICAgICBzNS4wOSwxMS4zNywxMS4zNywxMS4zN3MxMS4zNy01LjA5LDExLjM3LTExLjM3UzE3LjY1LDQ5LjE4LDExLjM3LDQ5LjE4eiBNMTEuMzcsNjkuMDRjLTQuNjksMC04LjQ5LTMuOC04LjQ5LTguNDkgICAgICAgYzAtNC42OSwzLjgtOC41LDguNDktOC41czguNSwzLjgxLDguNSw4LjVTMTYuMDYsNjkuMDQsMTEuMzcsNjkuMDR6Ii8+JiN4YTsJCQkJPC9nPiYjeGE7CQkJCTxnIGlkPSJzaGFwZTI2MDAtMjIiIHRyYW5zZm9ybT0idHJhbnNsYXRlKDcuODE1MDUsLTguMDcyNDMpIj4mI3hhOwkJCQkJPHRpdGxlIGlkPSJ0aXRsZTE4ODcxMSI+U2hlZXQuMjYwMDwvdGl0bGU+JiN4YTsJCQkJCTxwYXRoIGlkPSJwYXRoMTg4NzEzIiBpbmtzY2FwZTpjb25uZWN0b3ItY3VydmF0dXJlPSIwIiBzdHlsZT0iZmlsbDojMkUyRTJFOyIgZD0iTTUuOTgsNjYuOTFsMi4xLTRsLTEtMC43MmwtMy4wMiwzLjM2ICAgICAgIGMtMS4xNC0wLjI0LTIuMzcsMC4xOS0zLjA5LDEuMmMtMC45NywxLjM1LTAuNjYsMy4yNCwwLjcsNC4yYzEuMzUsMC45NywzLjI0LDAuNjYsNC4yLTAuN0M2LjYsNjkuMjMsNi42LDY3LjkxLDUuOTgsNjYuOTF6Ii8+JiN4YTsJCQkJPC9nPiYjeGE7CQkJCTxnIGlkPSJzaGFwZTI2MDEtMjQiIHRyYW5zZm9ybT0idHJhbnNsYXRlKDYuNzE0MDUsLTI0LjI1MTIpIj4mI3hhOwkJCQkJPHRpdGxlIGlkPSJ0aXRsZTE4ODcxNiI+U2hlZXQuMjYwMTwvdGl0bGU+JiN4YTsJCQkJCTxwYXRoIGlkPSJwYXRoMTg4NzE4IiBpbmtzY2FwZTpjb25uZWN0b3ItY3VydmF0dXJlPSIwIiBzdHlsZT0iZmlsbDojNDc4QUE5OyIgZD0iTTkuMzIsNjUuNDhIMHY0LjhoMi40N3YxLjY0aDQuMjR2LTEuNjRoMi42MSAgICAgICBWNjUuNDh6Ii8+JiN4YTsJCQkJPC9nPiYjeGE7CQkJCTxnIGlkPSJzaGFwZTI2MDItMjYiIHRyYW5zZm9ybT0icm90YXRlKC00NC45OTE5LC0xMy41NDk1NzksMzYuNTY4MDcpIj4mI3hhOwkJCQkJPHRpdGxlIGlkPSJ0aXRsZTE4ODcyMSI+U2hlZXQuMjYwMjwvdGl0bGU+JiN4YTsJCQkJCSYjeGE7CQkJCQkJPHJlY3QgaWQ9InJlY3QxODg3MjMiIHg9IjAiIHk9IjY4LjYzIiB0cmFuc2Zvcm09Im1hdHJpeCgtMSAyLjU5NTk2MmUtMDYgLTIuNTk1OTYyZS0wNiAtMSAyLjcyMDYgMTQwLjU1MjEpIiBzdHlsZT0iZmlsbDojNDc4QUE5OyIgd2lkdGg9IjIuNzIiIGhlaWdodD0iMy4yOSIvPiYjeGE7CQkJCTwvZz4mI3hhOwkJCTwvZz4mI3hhOwkJCTxnIGlkPSJncm91cDI2MDMtMjgiIHRyYW5zZm9ybT0idHJhbnNsYXRlKDAsLTExLjI2MTYpIj4mI3hhOwkJCQk8dGl0bGUgaWQ9InRpdGxlMTg4NzI3Ij5TaGVldC4yNjAzPC90aXRsZT4mI3hhOwkJCQk8ZyBpZD0iZ3JvdXAyNjA0LTI5Ij4mI3hhOwkJCQkJPHRpdGxlIGlkPSJ0aXRsZTE4ODcyOSI+U2hlZXQuMjYwNDwvdGl0bGU+JiN4YTsJCQkJPC9nPiYjeGE7CQkJCTxnIGlkPSJncm91cDI2MDUtMzAiPiYjeGE7CQkJCQk8dGl0bGUgaWQ9InRpdGxlMTg4NzMyIj5TaGVldC4yNjA1PC90aXRsZT4mI3hhOwkJCQk8L2c+JiN4YTsJCQkJPGcgaWQ9InNoYXBlMjYwNi0zMSI+JiN4YTsJCQkJCTx0aXRsZSBpZD0idGl0bGUxODg3MzUiPlNoZWV0LjI2MDY8L3RpdGxlPiYjeGE7CQkJCQk8cmVjdCBpZD0icmVjdDE4ODczNyIgeD0iMCIgeT0iNzAuNTMiIHN0eWxlPSJmaWxsOiM5MDkwOTA7IiB3aWR0aD0iMjguNjgiIGhlaWdodD0iMS4zOSIvPiYjeGE7CQkJCTwvZz4mI3hhOwkJCTwvZz4mI3hhOwkJPC9nPiYjeGE7CQk8ZyBpZD0iZ3JvdXAyNjA3LTMzIj4mI3hhOwkJCTx0aXRsZSBpZD0idGl0bGUxODg3NDIiPlNoZWV0LjI2MDc8L3RpdGxlPiYjeGE7CQkJPGcgaWQ9Imdyb3VwMjYwOC0zNCI+JiN4YTsJCQkJPHRpdGxlIGlkPSJ0aXRsZTE4ODc0NCI+U2hlZXQuMjYwODwvdGl0bGU+JiN4YTsJCQkJPGcgaWQ9Imdyb3VwMjYwOS0zNSIgdHJhbnNmb3JtPSJ0cmFuc2xhdGUoMTAuMzc5OCwtMS4yMzQ5OSkiPiYjeGE7CQkJCQk8dGl0bGUgaWQ9InRpdGxlMTg4NzQ2Ij5TaGVldC4yNjA5PC90aXRsZT4mI3hhOwkJCQkJPGcgaWQ9InNoYXBlMjYxMC0zNiI+JiN4YTsJCQkJCQk8dGl0bGUgaWQ9InRpdGxlMTg4NzQ4Ij5TaGVldC4yNjEwPC90aXRsZT4mI3hhOwkJCQkJCTxwYXRoIGlkPSJwYXRoMTg4NzUwIiBpbmtzY2FwZTpjb25uZWN0b3ItY3VydmF0dXJlPSIwIiBzdHlsZT0iZmlsbDojMTcxNzE3OyIgZD0iTTY1LjU2LDcxLjkySDIuODIgICAgICAgIEMxLjI2LDcxLjkyLDAsNzAuNjYsMCw2OS4xVjMzLjk3YzAtMS41NiwxLjI2LTIuODIsMi44Mi0yLjgyaDYyLjc0YzEuNTUsMCwyLjgyLDEuMjYsMi44MiwyLjgyVjY5LjEgICAgICAgIEM2OC4zOCw3MC42Niw2Ny4xMSw3MS45Miw2NS41Niw3MS45MnoiLz4mI3hhOwkJCQkJPC9nPiYjeGE7CQkJCQk8ZyBpZD0ic2hhcGUyNjExLTM4IiB0cmFuc2Zvcm09InRyYW5zbGF0ZSgyLjM1MjQxLC01LjMwMzc3KSI+JiN4YTsJCQkJCQk8dGl0bGUgaWQ9InRpdGxlMTg4NzUzIj5TaGVldC4yNjExPC90aXRsZT4mI3hhOwkJCQkJCTxyZWN0IGlkPSJyZWN0MTg4NzU1IiB4PSIwIiB5PSIzOC42MSIgc3R5bGU9ImZpbGw6Izc1NzU3NTsiIHdpZHRoPSI2My43MyIgaGVpZ2h0PSIzMy4zMSIvPiYjeGE7CQkJCQk8L2c+JiN4YTsJCQkJCTxnIGlkPSJzaGFwZTI2MTItNDAiIHRyYW5zZm9ybT0idHJhbnNsYXRlKDIuMzUyNDEsLTUuMzAzNzcpIj4mI3hhOwkJCQkJCTx0aXRsZSBpZD0idGl0bGUxODg3NTgiPlNoZWV0LjI2MTI8L3RpdGxlPiYjeGE7CQkJCQkJPHJlY3QgaWQ9InJlY3QxODg3NjAiIHg9IjAiIHk9IjM4LjYxIiBzdHlsZT0iZmlsbDpub25lOyIgd2lkdGg9IjYzLjczIiBoZWlnaHQ9IjMzLjMxIi8+JiN4YTsJCQkJCTwvZz4mI3hhOwkJCQkJPGcgaWQ9InNoYXBlMjYxMy00MiIgdHJhbnNmb3JtPSJ0cmFuc2xhdGUoMi4zNTI0MSwtNS4zMDM3NykiPiYjeGE7CQkJCQkJPHRpdGxlIGlkPSJ0aXRsZTE4ODc2MyI+U2hlZXQuMjYxMzwvdGl0bGU+JiN4YTsJCQkJCQk8cGF0aCBpZD0icGF0aDE4ODc2NSIgaW5rc2NhcGU6Y29ubmVjdG9yLWN1cnZhdHVyZT0iMCIgc3R5bGU9ImZpbGw6IzVENUQ1RDsiIGQ9Ik02My42Niw2My4xOEw0NS4yOSwzOC42MUgwdjMzLjMxaDYzLjY2ICAgICAgICBWNjMuMTh6Ii8+JiN4YTsJCQkJCTwvZz4mI3hhOwkJCQk8L2c+JiN4YTsJCQkJPGcgaWQ9InNoYXBlMjYxNC00NCI+JiN4YTsJCQkJCTx0aXRsZSBpZD0idGl0bGUxODg3NjkiPlNoZWV0LjI2MTQ8L3RpdGxlPiYjeGE7CQkJCQk8cGF0aCBpZD0icGF0aDE4ODc3MSIgaW5rc2NhcGU6Y29ubmVjdG9yLWN1cnZhdHVyZT0iMCIgc3R5bGU9ImZpbGw6IzE3MTcxNzsiIGQ9Ik0wLjAxLDY5LjA3YzAsMC4wNS0wLjAxLDAuMDktMC4wMSwwLjE0ICAgICAgIGMwLDEuNSwxLjE4LDIuNzEsMi42MywyLjcxaDg0LjU1YzEuNDUsMCwyLjYzLTEuMjEsMi42My0yLjcxYzAtMC4wNS0wLjAxLTAuMDktMC4wMS0wLjE0SDAuMDF6Ii8+JiN4YTsJCQkJPC9nPiYjeGE7CQkJPC9nPiYjeGE7CQkJPGcgaWQ9Imdyb3VwMjYxNS00NiIgdHJhbnNmb3JtPSJ0cmFuc2xhdGUoMTcuMzg2NywtOS43NTA2NykiPiYjeGE7CQkJCTx0aXRsZSBpZD0idGl0bGUxODg3NzUiPlNoZWV0LjI2MTU8L3RpdGxlPiYjeGE7CQkJCTxnIGlkPSJncm91cDI2MTYtNDciPiYjeGE7CQkJCQk8dGl0bGUgaWQ9InRpdGxlMTg4Nzc3Ij5TaGVldC4yNjE2PC90aXRsZT4mI3hhOwkJCQkJPGcgaWQ9InNoYXBlMjYxNy00OCIgdHJhbnNmb3JtPSJyb3RhdGUoLTkwLDAsNzEuOTIwMSkiPiYjeGE7CQkJCQkJPHRpdGxlIGlkPSJ0aXRsZTE4ODc3OSI+U2hlZXQuMjYxNzwvdGl0bGU+JiN4YTsJCQkJCQkmI3hhOwkJCQkJCQk8cGF0aCBpZD0icGF0aDE4ODc4MSIgaW5rc2NhcGU6Y29ubmVjdG9yLWN1cnZhdHVyZT0iMCIgc3R5bGU9ImZpbGw6bm9uZTtzdHJva2U6I0JBRDgwQTtzdHJva2Utd2lkdGg6NC41NDY2O3N0cm9rZS1taXRlcmxpbWl0OjM7IiBkPSIgICAgICAgIE0wLDcxLjkyaDI4LjA0Ii8+JiN4YTsJCQkJCTwvZz4mI3hhOwkJCQkJPGcgaWQ9InNoYXBlMjYxOC01MSIgdHJhbnNmb3JtPSJyb3RhdGUoLTkwLDEuNzUyNCw3MC4xNjc3KSI+JiN4YTsJCQkJCQk8dGl0bGUgaWQ9InRpdGxlMTg4Nzg0Ij5TaGVldC4yNjE4PC90aXRsZT4mI3hhOwkJCQkJCSYjeGE7CQkJCQkJCTxwYXRoIGlkPSJwYXRoMTg4Nzg2IiBpbmtzY2FwZTpjb25uZWN0b3ItY3VydmF0dXJlPSIwIiBzdHlsZT0iZmlsbDpub25lO3N0cm9rZTojQkFEODBBO3N0cm9rZS13aWR0aDo0LjU0NjY7c3Ryb2tlLW1pdGVybGltaXQ6MzsiIGQ9IiAgICAgICAgTTAsNzEuOTJoMjguMDQiLz4mI3hhOwkJCQkJPC9nPiYjeGE7CQkJCQk8ZyBpZD0ic2hhcGUyNjE5LTU0IiB0cmFuc2Zvcm09InJvdGF0ZSgtOTAsMy41MDQ3NSw2OC40MTUzNSkiPiYjeGE7CQkJCQkJPHRpdGxlIGlkPSJ0aXRsZTE4ODc4OSI+U2hlZXQuMjYxOTwvdGl0bGU+JiN4YTsJCQkJCQkmI3hhOwkJCQkJCQk8cGF0aCBpZD0icGF0aDE4ODc5MSIgaW5rc2NhcGU6Y29ubmVjdG9yLWN1cnZhdHVyZT0iMCIgc3R5bGU9ImZpbGw6bm9uZTtzdHJva2U6I0JBRDgwQTtzdHJva2Utd2lkdGg6NC41NDY2O3N0cm9rZS1taXRlcmxpbWl0OjM7IiBkPSIgICAgICAgIE0wLDcxLjkyaDI4LjA0Ii8+JiN4YTsJCQkJCTwvZz4mI3hhOwkJCQkJPGcgaWQ9InNoYXBlMjYyMC01NyIgdHJhbnNmb3JtPSJyb3RhdGUoLTkwLDUuMjU3NDUsNjYuNjYyNjUpIj4mI3hhOwkJCQkJCTx0aXRsZSBpZD0idGl0bGUxODg3OTQiPlNoZWV0LjI2MjA8L3RpdGxlPiYjeGE7CQkJCQkJJiN4YTsJCQkJCQkJPHBhdGggaWQ9InBhdGgxODg3OTYiIGlua3NjYXBlOmNvbm5lY3Rvci1jdXJ2YXR1cmU9IjAiIHN0eWxlPSJmaWxsOm5vbmU7c3Ryb2tlOiNCQUQ4MEE7c3Ryb2tlLXdpZHRoOjQuNTQ2NjtzdHJva2UtbWl0ZXJsaW1pdDozOyIgZD0iICAgICAgICBNMCw3MS45MmgyOC4wNCIvPiYjeGE7CQkJCQk8L2c+JiN4YTsJCQkJCTxnIGlkPSJzaGFwZTI2MjEtNjAiIHRyYW5zZm9ybT0icm90YXRlKC05MCw3LjAwOTgsNjQuOTEwMykiPiYjeGE7CQkJCQkJPHRpdGxlIGlkPSJ0aXRsZTE4ODc5OSI+U2hlZXQuMjYyMTwvdGl0bGU+JiN4YTsJCQkJCQkmI3hhOwkJCQkJCQk8cGF0aCBpZD0icGF0aDE4ODgwMSIgaW5rc2NhcGU6Y29ubmVjdG9yLWN1cnZhdHVyZT0iMCIgc3R5bGU9ImZpbGw6bm9uZTtzdHJva2U6I0JBRDgwQTtzdHJva2Utd2lkdGg6NC41NDY2O3N0cm9rZS1taXRlcmxpbWl0OjM7IiBkPSIgICAgICAgIE0wLDcxLjkyaDI4LjA0Ii8+JiN4YTsJCQkJCTwvZz4mI3hhOwkJCQkJPGcgaWQ9InNoYXBlMjYyMi02MyIgdHJhbnNmb3JtPSJyb3RhdGUoLTkwLDguNzYyNDUsNjMuMTU3NjUpIj4mI3hhOwkJCQkJCTx0aXRsZSBpZD0idGl0bGUxODg4MDQiPlNoZWV0LjI2MjI8L3RpdGxlPiYjeGE7CQkJCQkJJiN4YTsJCQkJCQkJPHBhdGggaWQ9InBhdGgxODg4MDYiIGlua3NjYXBlOmNvbm5lY3Rvci1jdXJ2YXR1cmU9IjAiIHN0eWxlPSJmaWxsOm5vbmU7c3Ryb2tlOiNCQUQ4MEE7c3Ryb2tlLXdpZHRoOjQuNTQ2NjtzdHJva2UtbWl0ZXJsaW1pdDozOyIgZD0iICAgICAgICBNMCw3MS45MmgyOC4wNCIvPiYjeGE7CQkJCQk8L2c+JiN4YTsJCQkJCTxnIGlkPSJzaGFwZTI2MjMtNjYiIHRyYW5zZm9ybT0icm90YXRlKC05MCwxMC41MTQ4NSw2MS40MDUyNSkiPiYjeGE7CQkJCQkJPHRpdGxlIGlkPSJ0aXRsZTE4ODgwOSI+U2hlZXQuMjYyMzwvdGl0bGU+JiN4YTsJCQkJCQkmI3hhOwkJCQkJCQk8cGF0aCBpZD0icGF0aDE4ODgxMSIgaW5rc2NhcGU6Y29ubmVjdG9yLWN1cnZhdHVyZT0iMCIgc3R5bGU9ImZpbGw6bm9uZTtzdHJva2U6I0JBRDgwQTtzdHJva2Utd2lkdGg6NC41NDY2O3N0cm9rZS1taXRlcmxpbWl0OjM7IiBkPSIgICAgICAgIE0wLDcxLjkyaDI4LjA0Ii8+JiN4YTsJCQkJCTwvZz4mI3hhOwkJCQkJPGcgaWQ9InNoYXBlMjYyNC02OSIgdHJhbnNmb3JtPSJyb3RhdGUoLTkwLDEyLjI2NzUsNTkuNjUyNikiPiYjeGE7CQkJCQkJPHRpdGxlIGlkPSJ0aXRsZTE4ODgxNCI+U2hlZXQuMjYyNDwvdGl0bGU+JiN4YTsJCQkJCQkmI3hhOwkJCQkJCQk8cGF0aCBpZD0icGF0aDE4ODgxNiIgaW5rc2NhcGU6Y29ubmVjdG9yLWN1cnZhdHVyZT0iMCIgc3R5bGU9ImZpbGw6bm9uZTtzdHJva2U6I0JBRDgwQTtzdHJva2Utd2lkdGg6NC41NDY2O3N0cm9rZS1taXRlcmxpbWl0OjM7IiBkPSIgICAgICAgIE0wLDcxLjkyaDI4LjA0Ii8+JiN4YTsJCQkJCTwvZz4mI3hhOwkJCQkJPGcgaWQ9InNoYXBlMjYyNS03MiIgdHJhbnNmb3JtPSJyb3RhdGUoLTkwLDE0LjAxOTksNTcuOTAwMikiPiYjeGE7CQkJCQkJPHRpdGxlIGlkPSJ0aXRsZTE4ODgxOSI+U2hlZXQuMjYyNTwvdGl0bGU+JiN4YTsJCQkJCQkmI3hhOwkJCQkJCQk8cGF0aCBpZD0icGF0aDE4ODgyMSIgaW5rc2NhcGU6Y29ubmVjdG9yLWN1cnZhdHVyZT0iMCIgc3R5bGU9ImZpbGw6bm9uZTtzdHJva2U6I0JBRDgwQTtzdHJva2Utd2lkdGg6NC41NDY2O3N0cm9rZS1taXRlcmxpbWl0OjM7IiBkPSIgICAgICAgIE0wLDcxLjkyaDI4LjA0Ii8+JiN4YTsJCQkJCTwvZz4mI3hhOwkJCQkJPGcgaWQ9InNoYXBlMjYyNi03NSIgdHJhbnNmb3JtPSJyb3RhdGUoLTkwLDE1Ljc3MjU1LDU2LjE0NzU1KSI+JiN4YTsJCQkJCQk8dGl0bGUgaWQ9InRpdGxlMTg4ODI0Ij5TaGVldC4yNjI2PC90aXRsZT4mI3hhOwkJCQkJCSYjeGE7CQkJCQkJCTxwYXRoIGlkPSJwYXRoMTg4ODI2IiBpbmtzY2FwZTpjb25uZWN0b3ItY3VydmF0dXJlPSIwIiBzdHlsZT0iZmlsbDpub25lO3N0cm9rZTojQkFEODBBO3N0cm9rZS13aWR0aDo0LjU0NjY7c3Ryb2tlLW1pdGVybGltaXQ6MzsiIGQ9IiAgICAgICAgTTAsNzEuOTJoMjguMDQiLz4mI3hhOwkJCQkJPC9nPiYjeGE7CQkJCQk8ZyBpZD0ic2hhcGUyNjI3LTc4IiB0cmFuc2Zvcm09InJvdGF0ZSgtOTAsMTcuNTI0OTUsNTQuMzk1MTUpIj4mI3hhOwkJCQkJCTx0aXRsZSBpZD0idGl0bGUxODg4MjkiPlNoZWV0LjI2Mjc8L3RpdGxlPiYjeGE7CQkJCQkJJiN4YTsJCQkJCQkJPHBhdGggaWQ9InBhdGgxODg4MzEiIGlua3NjYXBlOmNvbm5lY3Rvci1jdXJ2YXR1cmU9IjAiIHN0eWxlPSJmaWxsOm5vbmU7c3Ryb2tlOiNCQUQ4MEE7c3Ryb2tlLXdpZHRoOjQuNTQ2NjtzdHJva2UtbWl0ZXJsaW1pdDozOyIgZD0iICAgICAgICBNMCw3MS45MmgyOC4wNCIvPiYjeGE7CQkJCQk8L2c+JiN4YTsJCQkJCTxnIGlkPSJzaGFwZTI2MjgtODEiIHRyYW5zZm9ybT0icm90YXRlKC05MCwxOS4yNzczNSw1Mi42NDI3NSkiPiYjeGE7CQkJCQkJPHRpdGxlIGlkPSJ0aXRsZTE4ODgzNCI+U2hlZXQuMjYyODwvdGl0bGU+JiN4YTsJCQkJCQkmI3hhOwkJCQkJCQk8cGF0aCBpZD0icGF0aDE4ODgzNiIgaW5rc2NhcGU6Y29ubmVjdG9yLWN1cnZhdHVyZT0iMCIgc3R5bGU9ImZpbGw6bm9uZTtzdHJva2U6I0JBRDgwQTtzdHJva2Utd2lkdGg6NC41NDY2O3N0cm9rZS1taXRlcmxpbWl0OjM7IiBkPSIgICAgICAgIE0wLDcxLjkyaDI4LjA0Ii8+JiN4YTsJCQkJCTwvZz4mI3hhOwkJCQkJPGcgaWQ9InNoYXBlMjYyOS04NCIgdHJhbnNmb3JtPSJyb3RhdGUoLTkwLDIxLjAzLDUwLjg5MDEpIj4mI3hhOwkJCQkJCTx0aXRsZSBpZD0idGl0bGUxODg4MzkiPlNoZWV0LjI2Mjk8L3RpdGxlPiYjeGE7CQkJCQkJJiN4YTsJCQkJCQkJPHBhdGggaWQ9InBhdGgxODg4NDEiIGlua3NjYXBlOmNvbm5lY3Rvci1jdXJ2YXR1cmU9IjAiIHN0eWxlPSJmaWxsOm5vbmU7c3Ryb2tlOiNCQUQ4MEE7c3Ryb2tlLXdpZHRoOjQuNTQ2NjtzdHJva2UtbWl0ZXJsaW1pdDozOyIgZD0iICAgICAgICBNMCw3MS45MmgyOC4wNCIvPiYjeGE7CQkJCQk8L2c+JiN4YTsJCQkJCTxnIGlkPSJzaGFwZTI2MzAtODciIHRyYW5zZm9ybT0icm90YXRlKC05MCwyMi43ODIzNSw0OS4xMzc3NSkiPiYjeGE7CQkJCQkJPHRpdGxlIGlkPSJ0aXRsZTE4ODg0NCI+U2hlZXQuMjYzMDwvdGl0bGU+JiN4YTsJCQkJCQkmI3hhOwkJCQkJCQk8cGF0aCBpZD0icGF0aDE4ODg0NiIgaW5rc2NhcGU6Y29ubmVjdG9yLWN1cnZhdHVyZT0iMCIgc3R5bGU9ImZpbGw6bm9uZTtzdHJva2U6I0JBRDgwQTtzdHJva2Utd2lkdGg6NC41NDY2O3N0cm9rZS1taXRlcmxpbWl0OjM7IiBkPSIgICAgICAgIE0wLDcxLjkyaDI4LjA0Ii8+JiN4YTsJCQkJCTwvZz4mI3hhOwkJCQkJPGcgaWQ9InNoYXBlMjYzMS05MCIgdHJhbnNmb3JtPSJyb3RhdGUoLTkwLDI0LjUzNSw0Ny4zODUxKSI+JiN4YTsJCQkJCQk8dGl0bGUgaWQ9InRpdGxlMTg4ODQ5Ij5TaGVldC4yNjMxPC90aXRsZT4mI3hhOwkJCQkJCSYjeGE7CQkJCQkJCTxwYXRoIGlkPSJwYXRoMTg4ODUxIiBpbmtzY2FwZTpjb25uZWN0b3ItY3VydmF0dXJlPSIwIiBzdHlsZT0iZmlsbDpub25lO3N0cm9rZTojQkFEODBBO3N0cm9rZS13aWR0aDo0LjU0NjY7c3Ryb2tlLW1pdGVybGltaXQ6MzsiIGQ9IiAgICAgICAgTTAsNzEuOTJoMjguMDQiLz4mI3hhOwkJCQkJPC9nPiYjeGE7CQkJCQk8ZyBpZD0ic2hhcGUyNjMyLTkzIiB0cmFuc2Zvcm09InJvdGF0ZSgtOTAsMjYuMjg3NCw0NS42MzI3KSI+JiN4YTsJCQkJCQk8dGl0bGUgaWQ9InRpdGxlMTg4ODU0Ij5TaGVldC4yNjMyPC90aXRsZT4mI3hhOwkJCQkJCSYjeGE7CQkJCQkJCTxwYXRoIGlkPSJwYXRoMTg4ODU2IiBpbmtzY2FwZTpjb25uZWN0b3ItY3VydmF0dXJlPSIwIiBzdHlsZT0iZmlsbDpub25lO3N0cm9rZTojQkFEODBBO3N0cm9rZS13aWR0aDo0LjU0NjY7c3Ryb2tlLW1pdGVybGltaXQ6MzsiIGQ9IiAgICAgICAgTTAsNzEuOTJoMjguMDQiLz4mI3hhOwkJCQkJPC9nPiYjeGE7CQkJCQk8ZyBpZD0ic2hhcGUyNjMzLTk2IiB0cmFuc2Zvcm09InJvdGF0ZSgtOTAsMjguMDQwMDUsNDMuODgwMDUpIj4mI3hhOwkJCQkJCTx0aXRsZSBpZD0idGl0bGUxODg4NTkiPlNoZWV0LjI2MzM8L3RpdGxlPiYjeGE7CQkJCQkJJiN4YTsJCQkJCQkJPHBhdGggaWQ9InBhdGgxODg4NjEiIGlua3NjYXBlOmNvbm5lY3Rvci1jdXJ2YXR1cmU9IjAiIHN0eWxlPSJmaWxsOm5vbmU7c3Ryb2tlOiNCQUQ4MEE7c3Ryb2tlLXdpZHRoOjQuNTQ2NjtzdHJva2UtbWl0ZXJsaW1pdDozOyIgZD0iICAgICAgICBNMCw3MS45MmgyOC4wNCIvPiYjeGE7CQkJCQk8L2c+JiN4YTsJCQkJPC9nPiYjeGE7CQkJPC9nPiYjeGE7CQkJPGcgaWQ9Imdyb3VwMjYzNC05OSIgdHJhbnNmb3JtPSJ0cmFuc2xhdGUoMTUuNjMwNiwtOS43NTA2NykiPiYjeGE7CQkJCTx0aXRsZSBpZD0idGl0bGUxODg4NjYiPlNoZWV0LjI2MzQ8L3RpdGxlPiYjeGE7CQkJCTxnIGlkPSJncm91cDI2MzUtMTAwIj4mI3hhOwkJCQkJPHRpdGxlIGlkPSJ0aXRsZTE4ODg2OCI+U2hlZXQuMjYzNTwvdGl0bGU+JiN4YTsJCQkJCTxnIGlkPSJzaGFwZTI2MzYtMTAxIj4mI3hhOwkJCQkJCTx0aXRsZSBpZD0idGl0bGUxODg4NzAiPlNoZWV0LjI2MzY8L3RpdGxlPiYjeGE7CQkJCQkJPHJlY3QgaWQ9InJlY3QxODg4NzIiIHg9IjAiIHk9IjQzLjg4IiBzdHlsZT0iZmlsbDojRkY4QzAwOyIgd2lkdGg9IjEuMDIiIGhlaWdodD0iMjguMDQiLz4mI3hhOwkJCQkJPC9nPiYjeGE7CQkJCQk8ZyBpZD0ic2hhcGUyNjM3LTEwMyIgdHJhbnNmb3JtPSJ0cmFuc2xhdGUoMy41MDUzMSkiPiYjeGE7CQkJCQkJPHRpdGxlIGlkPSJ0aXRsZTE4ODg3NSI+U2hlZXQuMjYzNzwvdGl0bGU+JiN4YTsJCQkJCQk8cmVjdCBpZD0icmVjdDE4ODg3NyIgeD0iMCIgeT0iNDMuODgiIHN0eWxlPSJmaWxsOiNGRjhDMDA7IiB3aWR0aD0iMS4wMiIgaGVpZ2h0PSIyOC4wNCIvPiYjeGE7CQkJCQk8L2c+JiN4YTsJCQkJCTxnIGlkPSJzaGFwZTI2MzgtMTA1IiB0cmFuc2Zvcm09InRyYW5zbGF0ZSg3LjAxMDA4KSI+JiN4YTsJCQkJCQk8dGl0bGUgaWQ9InRpdGxlMTg4ODgwIj5TaGVldC4yNjM4PC90aXRsZT4mI3hhOwkJCQkJCTxyZWN0IGlkPSJyZWN0MTg4ODgyIiB4PSIwIiB5PSI0My44OCIgc3R5bGU9ImZpbGw6I0ZGOEMwMDsiIHdpZHRoPSIxLjAyIiBoZWlnaHQ9IjI4LjA0Ii8+JiN4YTsJCQkJCTwvZz4mI3hhOwkJCQkJPGcgaWQ9InNoYXBlMjYzOS0xMDciIHRyYW5zZm9ybT0idHJhbnNsYXRlKDEwLjUxNTQpIj4mI3hhOwkJCQkJCTx0aXRsZSBpZD0idGl0bGUxODg4ODUiPlNoZWV0LjI2Mzk8L3RpdGxlPiYjeGE7CQkJCQkJPHJlY3QgaWQ9InJlY3QxODg4ODciIHg9IjAiIHk9IjQzLjg4IiBzdHlsZT0iZmlsbDojRkY4QzAwOyIgd2lkdGg9IjEuMDIiIGhlaWdodD0iMjguMDQiLz4mI3hhOwkJCQkJPC9nPiYjeGE7CQkJCQk8ZyBpZD0ic2hhcGUyNjQwLTEwOSIgdHJhbnNmb3JtPSJ0cmFuc2xhdGUoMTQuMDIwMikiPiYjeGE7CQkJCQkJPHRpdGxlIGlkPSJ0aXRsZTE4ODg5MCI+U2hlZXQuMjY0MDwvdGl0bGU+JiN4YTsJCQkJCQk8cmVjdCBpZD0icmVjdDE4ODg5MiIgeD0iMCIgeT0iNDMuODgiIHN0eWxlPSJmaWxsOiNGRjhDMDA7IiB3aWR0aD0iMS4wMiIgaGVpZ2h0PSIyOC4wNCIvPiYjeGE7CQkJCQk8L2c+JiN4YTsJCQkJCTxnIGlkPSJzaGFwZTI2NDEtMTExIiB0cmFuc2Zvcm09InRyYW5zbGF0ZSgxNy41MjU1KSI+JiN4YTsJCQkJCQk8dGl0bGUgaWQ9InRpdGxlMTg4ODk1Ij5TaGVldC4yNjQxPC90aXRsZT4mI3hhOwkJCQkJCTxyZWN0IGlkPSJyZWN0MTg4ODk3IiB4PSIwIiB5PSI0My44OCIgc3R5bGU9ImZpbGw6I0ZGOEMwMDsiIHdpZHRoPSIxLjAyIiBoZWlnaHQ9IjI4LjA0Ii8+JiN4YTsJCQkJCTwvZz4mI3hhOwkJCQkJPGcgaWQ9InNoYXBlMjY0Mi0xMTMiIHRyYW5zZm9ybT0idHJhbnNsYXRlKDIxLjAzMDMpIj4mI3hhOwkJCQkJCTx0aXRsZSBpZD0idGl0bGUxODg5MDAiPlNoZWV0LjI2NDI8L3RpdGxlPiYjeGE7CQkJCQkJPHJlY3QgaWQ9InJlY3QxODg5MDIiIHg9IjAiIHk9IjQzLjg4IiBzdHlsZT0iZmlsbDojRkY4QzAwOyIgd2lkdGg9IjEuMDIiIGhlaWdodD0iMjguMDQiLz4mI3hhOwkJCQkJPC9nPiYjeGE7CQkJCQk8ZyBpZD0ic2hhcGUyNjQzLTExNSIgdHJhbnNmb3JtPSJ0cmFuc2xhdGUoMjQuNTM1KSI+JiN4YTsJCQkJCQk8dGl0bGUgaWQ9InRpdGxlMTg4OTA1Ij5TaGVldC4yNjQzPC90aXRsZT4mI3hhOwkJCQkJCTxyZWN0IGlkPSJyZWN0MTg4OTA3IiB4PSIwIiB5PSI0My44OCIgc3R5bGU9ImZpbGw6I0ZGOEMwMDsiIHdpZHRoPSIxLjAyIiBoZWlnaHQ9IjI4LjA0Ii8+JiN4YTsJCQkJCTwvZz4mI3hhOwkJCQkJPGcgaWQ9InNoYXBlMjY0NC0xMTciIHRyYW5zZm9ybT0idHJhbnNsYXRlKDI4LjA0MDMpIj4mI3hhOwkJCQkJCTx0aXRsZSBpZD0idGl0bGUxODg5MTAiPlNoZWV0LjI2NDQ8L3RpdGxlPiYjeGE7CQkJCQkJPHJlY3QgaWQ9InJlY3QxODg5MTIiIHg9IjAiIHk9IjQzLjg4IiBzdHlsZT0iZmlsbDojRkY4QzAwOyIgd2lkdGg9IjEuMDIiIGhlaWdodD0iMjguMDQiLz4mI3hhOwkJCQkJPC9nPiYjeGE7CQkJCQk8ZyBpZD0ic2hhcGUyNjQ1LTExOSIgdHJhbnNmb3JtPSJ0cmFuc2xhdGUoMzEuNTQ1NikiPiYjeGE7CQkJCQkJPHRpdGxlIGlkPSJ0aXRsZTE4ODkxNSI+U2hlZXQuMjY0NTwvdGl0bGU+JiN4YTsJCQkJCQk8cmVjdCBpZD0icmVjdDE4ODkxNyIgeD0iMCIgeT0iNDMuODgiIHN0eWxlPSJmaWxsOiNGRjhDMDA7IiB3aWR0aD0iMS4wMiIgaGVpZ2h0PSIyOC4wNCIvPiYjeGE7CQkJCQk8L2c+JiN4YTsJCQkJCTxnIGlkPSJzaGFwZTI2NDYtMTIxIiB0cmFuc2Zvcm09InRyYW5zbGF0ZSgzNS4wNTA0KSI+JiN4YTsJCQkJCQk8dGl0bGUgaWQ9InRpdGxlMTg4OTIwIj5TaGVldC4yNjQ2PC90aXRsZT4mI3hhOwkJCQkJCTxyZWN0IGlkPSJyZWN0MTg4OTIyIiB4PSIwIiB5PSI0My44OCIgc3R5bGU9ImZpbGw6I0ZGOEMwMDsiIHdpZHRoPSIxLjAyIiBoZWlnaHQ9IjI4LjA0Ii8+JiN4YTsJCQkJCTwvZz4mI3hhOwkJCQkJPGcgaWQ9InNoYXBlMjY0Ny0xMjMiIHRyYW5zZm9ybT0idHJhbnNsYXRlKDM4LjU1NTIpIj4mI3hhOwkJCQkJCTx0aXRsZSBpZD0idGl0bGUxODg5MjUiPlNoZWV0LjI2NDc8L3RpdGxlPiYjeGE7CQkJCQkJPHJlY3QgaWQ9InJlY3QxODg5MjciIHg9IjAiIHk9IjQzLjg4IiBzdHlsZT0iZmlsbDojRkY4QzAwOyIgd2lkdGg9IjEuMDIiIGhlaWdodD0iMjguMDQiLz4mI3hhOwkJCQkJPC9nPiYjeGE7CQkJCQk8ZyBpZD0ic2hhcGUyNjQ4LTEyNSIgdHJhbnNmb3JtPSJ0cmFuc2xhdGUoNDIuMDYwNSkiPiYjeGE7CQkJCQkJPHRpdGxlIGlkPSJ0aXRsZTE4ODkzMCI+U2hlZXQuMjY0ODwvdGl0bGU+JiN4YTsJCQkJCQk8cmVjdCBpZD0icmVjdDE4ODkzMiIgeD0iMCIgeT0iNDMuODgiIHN0eWxlPSJmaWxsOiNGRjhDMDA7IiB3aWR0aD0iMS4wMiIgaGVpZ2h0PSIyOC4wNCIvPiYjeGE7CQkJCQk8L2c+JiN4YTsJCQkJCTxnIGlkPSJzaGFwZTI2NDktMTI3IiB0cmFuc2Zvcm09InRyYW5zbGF0ZSg0NS41NjUzKSI+JiN4YTsJCQkJCQk8dGl0bGUgaWQ9InRpdGxlMTg4OTM1Ij5TaGVldC4yNjQ5PC90aXRsZT4mI3hhOwkJCQkJCTxyZWN0IGlkPSJyZWN0MTg4OTM3IiB4PSIwIiB5PSI0My44OCIgc3R5bGU9ImZpbGw6I0ZGOEMwMDsiIHdpZHRoPSIxLjAyIiBoZWlnaHQ9IjI4LjA0Ii8+JiN4YTsJCQkJCTwvZz4mI3hhOwkJCQkJPGcgaWQ9InNoYXBlMjY1MC0xMjkiIHRyYW5zZm9ybT0idHJhbnNsYXRlKDQ5LjA3MDYpIj4mI3hhOwkJCQkJCTx0aXRsZSBpZD0idGl0bGUxODg5NDAiPlNoZWV0LjI2NTA8L3RpdGxlPiYjeGE7CQkJCQkJPHJlY3QgaWQ9InJlY3QxODg5NDIiIHg9IjAiIHk9IjQzLjg4IiBzdHlsZT0iZmlsbDojRkY4QzAwOyIgd2lkdGg9IjEuMDIiIGhlaWdodD0iMjguMDQiLz4mI3hhOwkJCQkJPC9nPiYjeGE7CQkJCQk8ZyBpZD0ic2hhcGUyNjUxLTEzMSIgdHJhbnNmb3JtPSJ0cmFuc2xhdGUoNTIuNTc1NCkiPiYjeGE7CQkJCQkJPHRpdGxlIGlkPSJ0aXRsZTE4ODk0NSI+U2hlZXQuMjY1MTwvdGl0bGU+JiN4YTsJCQkJCQk8cmVjdCBpZD0icmVjdDE4ODk0NyIgeD0iMCIgeT0iNDMuODgiIHN0eWxlPSJmaWxsOiNGRjhDMDA7IiB3aWR0aD0iMS4wMiIgaGVpZ2h0PSIyOC4wNCIvPiYjeGE7CQkJCQk8L2c+JiN4YTsJCQkJCTxnIGlkPSJzaGFwZTI2NTItMTMzIiB0cmFuc2Zvcm09InRyYW5zbGF0ZSg1Ni4wODA3KSI+JiN4YTsJCQkJCQk8dGl0bGUgaWQ9InRpdGxlMTg4OTUwIj5TaGVldC4yNjUyPC90aXRsZT4mI3hhOwkJCQkJCTxyZWN0IGlkPSJyZWN0MTg4OTUyIiB4PSIwIiB5PSI0My44OCIgc3R5bGU9ImZpbGw6IzdEQjkxMjsiIHdpZHRoPSIxLjAyIiBoZWlnaHQ9IjI4LjA0Ii8+JiN4YTsJCQkJCTwvZz4mI3hhOwkJCQk8L2c+JiN4YTsJCQk8L2c+JiN4YTsJCTwvZz4mI3hhOwkJPGcgaWQ9Imdyb3VwMjY1My0xMzUiIHRyYW5zZm9ybT0idHJhbnNsYXRlKDEwMC44OTQsLTQ0LjQ4NDQpIj4mI3hhOwkJCTx0aXRsZSBpZD0idGl0bGUxODg5NTgiPlNoZWV0LjI2NTM8L3RpdGxlPiYjeGE7CQkJPGcgaWQ9InNoYXBlMjY1NC0xMzYiIHRyYW5zZm9ybT0idHJhbnNsYXRlKDAsLTExLjA5MjYpIj4mI3hhOwkJCQk8dGl0bGUgaWQ9InRpdGxlMTg4OTYwIj5TaGVldC4yNjU0PC90aXRsZT4mI3hhOwkJCQk8cGF0aCBpZD0icGF0aDE4ODk2MiIgaW5rc2NhcGU6Y29ubmVjdG9yLWN1cnZhdHVyZT0iMCIgc3R5bGU9ImZpbGw6I0U3M0YyNDsiIGQ9Ik0wLDcwLjM1bDEuNDksMS41N2wwLjE4LTAuMTdsLTEuNDQtMS41OCAgICAgIEwwLDcwLjM1eiIvPiYjeGE7CQkJPC9nPiYjeGE7CQkJPGcgaWQ9InNoYXBlMjY1NS0xMzgiIHRyYW5zZm9ybT0idHJhbnNsYXRlKDAsLTExLjA5MjYpIj4mI3hhOwkJCQk8dGl0bGUgaWQ9InRpdGxlMTg4OTY1Ij5TaGVldC4yNjU1PC90aXRsZT4mI3hhOwkJCQk8cGF0aCBpZD0icGF0aDE4ODk2NyIgaW5rc2NhcGU6Y29ubmVjdG9yLWN1cnZhdHVyZT0iMCIgc3R5bGU9ImZpbGw6I0Y1OEIyMzsiIGQ9Ik0wLDcwLjM1bDEuNDksMS41N2wwLjE4LTAuMTdsLTEuNDQtMS41OCAgICAgIEwwLDcwLjM1eiIvPiYjeGE7CQkJPC9nPiYjeGE7CQkJPGcgaWQ9InNoYXBlMjY1Ni0xNDAiIHRyYW5zZm9ybT0idHJhbnNsYXRlKDAuODEzNDM5LC0xMS45NjU5KSI+JiN4YTsJCQkJPHRpdGxlIGlkPSJ0aXRsZTE4ODk3MCI+U2hlZXQuMjY1NjwvdGl0bGU+JiN4YTsJCQkJPHBhdGggaWQ9InBhdGgxODg5NzIiIGlua3NjYXBlOmNvbm5lY3Rvci1jdXJ2YXR1cmU9IjAiIHN0eWxlPSJmaWxsOiNBREFEQUQ7IiBkPSJNMCw3MC43OGwwLjk1LDEuMTRsMC4yNy0wLjIybC0wLjk5LTEuMTMgICAgICBMMCw3MC43OHoiLz4mI3hhOwkJCTwvZz4mI3hhOwkJCTxnIGlkPSJzaGFwZTI2NTctMTQyIiB0cmFuc2Zvcm09InRyYW5zbGF0ZSgxLjUzNjMyLC0xMi40ODk3KSI+JiN4YTsJCQkJPHRpdGxlIGlkPSJ0aXRsZTE4ODk3NSI+U2hlZXQuMjY1NzwvdGl0bGU+JiN4YTsJCQkJPHBhdGggaWQ9InBhdGgxODg5NzciIGlua3NjYXBlOmNvbm5lY3Rvci1jdXJ2YXR1cmU9IjAiIHN0eWxlPSJmaWxsOiNBREFEQUQ7IiBkPSJNMCw3MC43NGwwLjksMS4xOGwwLjI3LTAuMTdsLTAuOS0xLjE4ICAgICAgTDAsNzAuNzR6Ii8+JiN4YTsJCQk8L2c+JiN4YTsJCQk8ZyBpZD0ic2hhcGUyNjU4LTE0NCIgdHJhbnNmb3JtPSJ0cmFuc2xhdGUoMi4zMDQyMSwtMTIuOTcpIj4mI3hhOwkJCQk8dGl0bGUgaWQ9InRpdGxlMTg4OTgwIj5TaGVldC4yNjU4PC90aXRsZT4mI3hhOwkJCQk8cGF0aCBpZD0icGF0aDE4ODk4MiIgaW5rc2NhcGU6Y29ubmVjdG9yLWN1cnZhdHVyZT0iMCIgc3R5bGU9ImZpbGw6I0FEQURBRDsiIGQ9Ik0wLDcwLjdsMC44NiwxLjIybDAuMjctMC4xN2wtMC44Ni0xLjIzICAgICAgTDAsNzAuN3oiLz4mI3hhOwkJCTwvZz4mI3hhOwkJCTxnIGlkPSJzaGFwZTI2NTktMTQ2IiB0cmFuc2Zvcm09InRyYW5zbGF0ZSgzLjExNzY1LC0xMy40MDY5KSI+JiN4YTsJCQkJPHRpdGxlIGlkPSJ0aXRsZTE4ODk4NSI+U2hlZXQuMjY1OTwvdGl0bGU+JiN4YTsJCQkJPHBhdGggaWQ9InBhdGgxODg5ODciIGlua3NjYXBlOmNvbm5lY3Rvci1jdXJ2YXR1cmU9IjAiIHN0eWxlPSJmaWxsOiNBREFEQUQ7IiBkPSJNMCw3MC42NWwwLjc3LDEuMjdsMC4yNy0wLjE3bC0wLjc3LTEuMjcgICAgICBMMCw3MC42NXoiLz4mI3hhOwkJCTwvZz4mI3hhOwkJCTxnIGlkPSJzaGFwZTI2NjAtMTQ4IiB0cmFuc2Zvcm09InRyYW5zbGF0ZSgzLjg0MDUzLC0xMy40MDY5KSI+JiN4YTsJCQkJPHRpdGxlIGlkPSJ0aXRsZTE4ODk5MCI+U2hlZXQuMjY2MDwvdGl0bGU+JiN4YTsJCQkJPHBhdGggaWQ9InBhdGgxODg5OTIiIGlua3NjYXBlOmNvbm5lY3Rvci1jdXJ2YXR1cmU9IjAiIHN0eWxlPSJmaWxsOiNFNzNGMjQ7IiBkPSJNMCw3MC4wNGwxLjA0LDEuODhsMC4yNy0wLjEzbC0xLjA0LTEuODggICAgICBMMCw3MC4wNHoiLz4mI3hhOwkJCTwvZz4mI3hhOwkJCTxnIGlkPSJzaGFwZTI2NjEtMTUwIiB0cmFuc2Zvcm09InRyYW5zbGF0ZSgzLjg0MDUzLC0xMy40MDY5KSI+JiN4YTsJCQkJPHRpdGxlIGlkPSJ0aXRsZTE4ODk5NSI+U2hlZXQuMjY2MTwvdGl0bGU+JiN4YTsJCQkJPHBhdGggaWQ9InBhdGgxODg5OTciIGlua3NjYXBlOmNvbm5lY3Rvci1jdXJ2YXR1cmU9IjAiIHN0eWxlPSJmaWxsOiNGNThCMjM7IiBkPSJNMCw3MC4wNGwxLjA0LDEuODhsMC4yNy0wLjEzbC0xLjA0LTEuODggICAgICBMMCw3MC4wNHoiLz4mI3hhOwkJCTwvZz4mI3hhOwkJCTxnIGlkPSJzaGFwZTI2NjItMTUyIiB0cmFuc2Zvcm09InRyYW5zbGF0ZSg0Ljc0NDUzLC0xNC4yMzY4KSI+JiN4YTsJCQkJPHRpdGxlIGlkPSJ0aXRsZTE4OTAwMCI+U2hlZXQuMjY2MjwvdGl0bGU+JiN4YTsJCQkJPHBhdGggaWQ9InBhdGgxODkwMDIiIGlua3NjYXBlOmNvbm5lY3Rvci1jdXJ2YXR1cmU9IjAiIHN0eWxlPSJmaWxsOiNBREFEQUQ7IiBkPSJNMCw3MC42MWwwLjY4LDEuMzFsMC4yNy0wLjEzbC0wLjYzLTEuMzEgICAgICBMMCw3MC42MXoiLz4mI3hhOwkJCTwvZz4mI3hhOwkJCTxnIGlkPSJzaGFwZTI2NjMtMTU0IiB0cmFuc2Zvcm09InRyYW5zbGF0ZSg1LjYwMjk4LC0xNC41NDIzKSI+JiN4YTsJCQkJPHRpdGxlIGlkPSJ0aXRsZTE4OTAwNSI+U2hlZXQuMjY2MzwvdGl0bGU+JiN4YTsJCQkJPHBhdGggaWQ9InBhdGgxODkwMDciIGlua3NjYXBlOmNvbm5lY3Rvci1jdXJ2YXR1cmU9IjAiIHN0eWxlPSJmaWxsOiNBREFEQUQ7IiBkPSJNMCw3MC41N2wwLjU5LDEuMzVsMC4zMS0wLjEzbC0wLjU4LTEuMzUgICAgICBMMCw3MC41N3oiLz4mI3hhOwkJCTwvZz4mI3hhOwkJCTxnIGlkPSJzaGFwZTI2NjQtMTU2IiB0cmFuc2Zvcm09InRyYW5zbGF0ZSg2LjUwNjQ1LC0xNC44NDc5KSI+JiN4YTsJCQkJPHRpdGxlIGlkPSJ0aXRsZTE4OTAxMCI+U2hlZXQuMjY2NDwvdGl0bGU+JiN4YTsJCQkJPHBhdGggaWQ9InBhdGgxODkwMTIiIGlua3NjYXBlOmNvbm5lY3Rvci1jdXJ2YXR1cmU9IjAiIHN0eWxlPSJmaWxsOiNBREFEQUQ7IiBkPSJNMCw3MC41MmwwLjUsMS40bDAuMzEtMC4xM2wtMC41NC0xLjM1ICAgICAgTDAsNzAuNTJ6Ii8+JiN4YTsJCQk8L2c+JiN4YTsJCQk8ZyBpZD0ic2hhcGUyNjY1LTE1OCIgdHJhbnNmb3JtPSJ0cmFuc2xhdGUoNy40MDk5MiwtMTUuMTEpIj4mI3hhOwkJCQk8dGl0bGUgaWQ9InRpdGxlMTg5MDE1Ij5TaGVldC4yNjY1PC90aXRsZT4mI3hhOwkJCQk8cGF0aCBpZD0icGF0aDE4OTAxNyIgaW5rc2NhcGU6Y29ubmVjdG9yLWN1cnZhdHVyZT0iMCIgc3R5bGU9ImZpbGw6I0FEQURBRDsiIGQ9Ik0wLDcwLjUybDAuNDEsMS40bDAuMzEtMC4wOWwtMC40NS0xLjM5ICAgICAgTDAsNzAuNTJ6Ii8+JiN4YTsJCQk8L2c+JiN4YTsJCQk8ZyBpZD0ic2hhcGUyNjY2LTE2MCIgdHJhbnNmb3JtPSJ0cmFuc2xhdGUoOC4yNjgzNywtMTQuODkxMykiPiYjeGE7CQkJCTx0aXRsZSBpZD0idGl0bGUxODkwMjAiPlNoZWV0LjI2NjY8L3RpdGxlPiYjeGE7CQkJCTxwYXRoIGlkPSJwYXRoMTg5MDIyIiBpbmtzY2FwZTpjb25uZWN0b3ItY3VydmF0dXJlPSIwIiBzdHlsZT0iZmlsbDojRTczRjI0OyIgZD0iTTAsNjkuOTFsMC41NCwyLjAxbDAuMjctMC4wNGwtMC41NC0yLjA2ICAgICAgTDAsNjkuOTF6Ii8+JiN4YTsJCQk8L2c+JiN4YTsJCQk8ZyBpZD0ic2hhcGUyNjY3LTE2MiIgdHJhbnNmb3JtPSJ0cmFuc2xhdGUoOC4yNjgzNywtMTQuODkxMykiPiYjeGE7CQkJCTx0aXRsZSBpZD0idGl0bGUxODkwMjUiPlNoZWV0LjI2Njc8L3RpdGxlPiYjeGE7CQkJCTxwYXRoIGlkPSJwYXRoMTg5MDI3IiBpbmtzY2FwZTpjb25uZWN0b3ItY3VydmF0dXJlPSIwIiBzdHlsZT0iZmlsbDojRjU4QjIzOyIgZD0iTTAsNjkuOTFsMC41NCwyLjAxbDAuMjctMC4wNGwtMC41NC0yLjA2ICAgICAgTDAsNjkuOTF6Ii8+JiN4YTsJCQk8L2c+JiN4YTsJCQk8ZyBpZD0ic2hhcGUyNjY4LTE2NCIgdHJhbnNmb3JtPSJ0cmFuc2xhdGUoOS4yMTczOCwtMTUuNTQ2NCkiPiYjeGE7CQkJCTx0aXRsZSBpZD0idGl0bGUxODkwMzAiPlNoZWV0LjI2Njg8L3RpdGxlPiYjeGE7CQkJCTxwYXRoIGlkPSJwYXRoMTg5MDMyIiBpbmtzY2FwZTpjb25uZWN0b3ItY3VydmF0dXJlPSIwIiBzdHlsZT0iZmlsbDojQURBREFEOyIgZD0iTTAsNzAuNDhsMC4zMiwxLjQ0bDAuMzEtMC4wNGwtMC4zMS0xLjQ0ICAgICAgTDAsNzAuNDh6Ii8+JiN4YTsJCQk8L2c+JiN4YTsJCQk8ZyBpZD0ic2hhcGUyNjY5LTE2NiIgdHJhbnNmb3JtPSJ0cmFuc2xhdGUoMTAuMTY2NCwtMTUuNjc3OCkiPiYjeGE7CQkJCTx0aXRsZSBpZD0idGl0bGUxODkwMzUiPlNoZWV0LjI2Njk8L3RpdGxlPiYjeGE7CQkJCTxwYXRoIGlkPSJwYXRoMTg5MDM3IiBpbmtzY2FwZTpjb25uZWN0b3ItY3VydmF0dXJlPSIwIiBzdHlsZT0iZmlsbDojQURBREFEOyIgZD0iTTAsNzAuNDhsMC4xOCwxLjQ0bDAuMzYtMC4wNGwtMC4yMi0xLjQ0ICAgICAgTDAsNzAuNDh6Ii8+JiN4YTsJCQk8L2c+JiN4YTsJCQk8ZyBpZD0ic2hhcGUyNjcwLTE2OCIgdHJhbnNmb3JtPSJ0cmFuc2xhdGUoMTEuMDY5OSwtMTUuODA4NikiPiYjeGE7CQkJCTx0aXRsZSBpZD0idGl0bGUxODkwNDAiPlNoZWV0LjI2NzA8L3RpdGxlPiYjeGE7CQkJCTxwYXRoIGlkPSJwYXRoMTg5MDQyIiBpbmtzY2FwZTpjb25uZWN0b3ItY3VydmF0dXJlPSIwIiBzdHlsZT0iZmlsbDojQURBREFEOyIgZD0iTTAsNzAuNDhsMC4xOCwxLjQ0SDAuNWwtMC4xNC0xLjQ0SDB6Ii8+JiN4YTsJCQk8L2c+JiN4YTsJCQk8ZyBpZD0ic2hhcGUyNjcxLTE3MCIgdHJhbnNmb3JtPSJ0cmFuc2xhdGUoMTIuMDE4OSwtMTUuODUyNSkiPiYjeGE7CQkJCTx0aXRsZSBpZD0idGl0bGUxODkwNDUiPlNoZWV0LjI2NzE8L3RpdGxlPiYjeGE7CQkJCTxwYXRoIGlkPSJwYXRoMTg5MDQ3IiBpbmtzY2FwZTpjb25uZWN0b3ItY3VydmF0dXJlPSIwIiBzdHlsZT0iZmlsbDojQURBREFEOyIgZD0iTTAsNzAuNDhsMC4wOSwxLjQ0aDAuMzJsLTAuMDktMS40OEwwLDcwLjQ4eiIvPiYjeGE7CQkJPC9nPiYjeGE7CQkJPGcgaWQ9InNoYXBlMjY3Mi0xNzIiIHRyYW5zZm9ybT0idHJhbnNsYXRlKDEyLjk2NzQsLTE1LjM3MTcpIj4mI3hhOwkJCQk8dGl0bGUgaWQ9InRpdGxlMTg5MDUwIj5TaGVldC4yNjcyPC90aXRsZT4mI3hhOwkJCQk8cGF0aCBpZD0icGF0aDE4OTA1MiIgaW5rc2NhcGU6Y29ubmVjdG9yLWN1cnZhdHVyZT0iMCIgc3R5bGU9ImZpbGw6I0U3M0YyNDsiIGQ9Ik0wLDcxLjkyaDAuMzJ2LTIuMUgwLjA1TDAsNzEuOTJ6Ii8+JiN4YTsJCQk8L2c+JiN4YTsJCQk8ZyBpZD0ic2hhcGUyNjczLTE3NCIgdHJhbnNmb3JtPSJ0cmFuc2xhdGUoMTIuOTY3NCwtMTUuMzcxNykiPiYjeGE7CQkJCTx0aXRsZSBpZD0idGl0bGUxODkwNTUiPlNoZWV0LjI2NzM8L3RpdGxlPiYjeGE7CQkJCTxwYXRoIGlkPSJwYXRoMTg5MDU3IiBpbmtzY2FwZTpjb25uZWN0b3ItY3VydmF0dXJlPSIwIiBzdHlsZT0iZmlsbDojRjU4QjIzOyIgZD0iTTAsNzEuOTJoMC4zMnYtMi4xSDAuMDVMMCw3MS45MnoiLz4mI3hhOwkJCTwvZz4mI3hhOwkJCTxnIGlkPSJzaGFwZTI2NzQtMTc2IiB0cmFuc2Zvcm09InRyYW5zbGF0ZSgxMy44MjU4LC0xNS44NTI1KSI+JiN4YTsJCQkJPHRpdGxlIGlkPSJ0aXRsZTE4OTA2MCI+U2hlZXQuMjY3NDwvdGl0bGU+JiN4YTsJCQkJPHBhdGggaWQ9InBhdGgxODkwNjIiIGlua3NjYXBlOmNvbm5lY3Rvci1jdXJ2YXR1cmU9IjAiIHN0eWxlPSJmaWxsOiNBREFEQUQ7IiBkPSJNMCw3MS45MmgwLjMybDAuMDktMS40NEgwLjA5TDAsNzEuOTJ6Ii8+JiN4YTsJCQk8L2c+JiN4YTsJCQk8ZyBpZD0ic2hhcGUyNjc1LTE3OCIgdHJhbnNmb3JtPSJ0cmFuc2xhdGUoMTQuNjg0MywtMTUuNzY1MSkiPiYjeGE7CQkJCTx0aXRsZSBpZD0idGl0bGUxODkwNjUiPlNoZWV0LjI2NzU8L3RpdGxlPiYjeGE7CQkJCTxwYXRoIGlkPSJwYXRoMTg5MDY3IiBpbmtzY2FwZTpjb25uZWN0b3ItY3VydmF0dXJlPSIwIiBzdHlsZT0iZmlsbDojQURBREFEOyIgZD0iTTAsNzEuODhsMC4zMiwwLjA0bDAuMTgtMS40NGwtMC4zMi0wLjA0ICAgICAgTDAsNzEuODh6Ii8+JiN4YTsJCQk8L2c+JiN4YTsJCQk8ZyBpZD0ic2hhcGUyNjc2LTE4MCIgdHJhbnNmb3JtPSJ0cmFuc2xhdGUoMTUuNTQyNywtMTUuNjMzOCkiPiYjeGE7CQkJCTx0aXRsZSBpZD0idGl0bGUxODkwNzAiPlNoZWV0LjI2NzY8L3RpdGxlPiYjeGE7CQkJCTxwYXRoIGlkPSJwYXRoMTg5MDcyIiBpbmtzY2FwZTpjb25uZWN0b3ItY3VydmF0dXJlPSIwIiBzdHlsZT0iZmlsbDojQURBREFEOyIgZD0iTTAsNzEuODhsMC4zMiwwLjA0bDAuMjctMS40NGwtMC4zMi0wLjA0ICAgICAgTDAsNzEuODh6Ii8+JiN4YTsJCQk8L2c+JiN4YTsJCQk8ZyBpZD0ic2hhcGUyNjc3LTE4MiIgdHJhbnNmb3JtPSJ0cmFuc2xhdGUoMTYuNDAxMiwtMTUuNTAzKSI+JiN4YTsJCQkJPHRpdGxlIGlkPSJ0aXRsZTE4OTA3NSI+U2hlZXQuMjY3NzwvdGl0bGU+JiN4YTsJCQkJPHBhdGggaWQ9InBhdGgxODkwNzciIGlua3NjYXBlOmNvbm5lY3Rvci1jdXJ2YXR1cmU9IjAiIHN0eWxlPSJmaWxsOiNBREFEQUQ7IiBkPSJNMCw3MS44OGwwLjMyLDAuMDRsMC4zMS0xLjRsLTAuMzEtMC4wOCAgICAgIEwwLDcxLjg4eiIvPiYjeGE7CQkJPC9nPiYjeGE7CQkJPGcgaWQ9InNoYXBlMjY3OC0xODQiIHRyYW5zZm9ybT0idHJhbnNsYXRlKDE3LjE2OTYsLTE0Ljg0NzkpIj4mI3hhOwkJCQk8dGl0bGUgaWQ9InRpdGxlMTg5MDgwIj5TaGVldC4yNjc4PC90aXRsZT4mI3hhOwkJCQk8cGF0aCBpZD0icGF0aDE4OTA4MiIgaW5rc2NhcGU6Y29ubmVjdG9yLWN1cnZhdHVyZT0iMCIgc3R5bGU9ImZpbGw6I0U3M0YyNDsiIGQ9Ik0wLDcxLjg4bDAuMjcsMC4wNGwwLjU0LTIuMDFsLTAuMjctMC4wNCAgICAgIEwwLDcxLjg4eiIvPiYjeGE7CQkJPC9nPiYjeGE7CQkJPGcgaWQ9InNoYXBlMjY3OS0xODYiIHRyYW5zZm9ybT0idHJhbnNsYXRlKDE3LjE2OTYsLTE0Ljg0NzkpIj4mI3hhOwkJCQk8dGl0bGUgaWQ9InRpdGxlMTg5MDg1Ij5TaGVldC4yNjc5PC90aXRsZT4mI3hhOwkJCQk8cGF0aCBpZD0icGF0aDE4OTA4NyIgaW5rc2NhcGU6Y29ubmVjdG9yLWN1cnZhdHVyZT0iMCIgc3R5bGU9ImZpbGw6I0Y1OEIyMzsiIGQ9Ik0wLDcxLjg4bDAuMjcsMC4wNGwwLjU0LTIuMDFsLTAuMjctMC4wNCAgICAgIEwwLDcxLjg4eiIvPiYjeGE7CQkJPC9nPiYjeGE7CQkJPGcgaWQ9InNoYXBlMjY4MC0xODgiIHRyYW5zZm9ybT0idHJhbnNsYXRlKDE4LjExODEsLTE1LjA2NjEpIj4mI3hhOwkJCQk8dGl0bGUgaWQ9InRpdGxlMTg5MDkwIj5TaGVldC4yNjgwPC90aXRsZT4mI3hhOwkJCQk8cGF0aCBpZD0icGF0aDE4OTA5MiIgaW5rc2NhcGU6Y29ubmVjdG9yLWN1cnZhdHVyZT0iMCIgc3R5bGU9ImZpbGw6I0FEQURBRDsiIGQ9Ik0wLDcxLjgzbDAuMjcsMC4wOWwwLjUtMS40bC0wLjMyLTAuMDggICAgICBMMCw3MS44M3oiLz4mI3hhOwkJCTwvZz4mI3hhOwkJCTxnIGlkPSJzaGFwZTI2ODEtMTkwIiB0cmFuc2Zvcm09InRyYW5zbGF0ZSgxOC45MzE1LC0xNC43NjA1KSI+JiN4YTsJCQkJPHRpdGxlIGlkPSJ0aXRsZTE4OTA5NSI+U2hlZXQuMjY4MTwvdGl0bGU+JiN4YTsJCQkJPHBhdGggaWQ9InBhdGgxODkwOTciIGlua3NjYXBlOmNvbm5lY3Rvci1jdXJ2YXR1cmU9IjAiIHN0eWxlPSJmaWxsOiNBREFEQUQ7IiBkPSJNMC41NCw3MC40NEwwLDcxLjc5bDAuMzIsMC4xM2wwLjQ5LTEuNCAgICAgIEwwLjU0LDcwLjQ0eiIvPiYjeGE7CQkJPC9nPiYjeGE7CQkJPGcgaWQ9InNoYXBlMjY4Mi0xOTIiIHRyYW5zZm9ybT0idHJhbnNsYXRlKDE5Ljc0NSwtMTQuNDU1KSI+JiN4YTsJCQkJPHRpdGxlIGlkPSJ0aXRsZTE4OTEwMCI+U2hlZXQuMjY4MjwvdGl0bGU+JiN4YTsJCQkJPHBhdGggaWQ9InBhdGgxODkxMDIiIGlua3NjYXBlOmNvbm5lY3Rvci1jdXJ2YXR1cmU9IjAiIHN0eWxlPSJmaWxsOiNBREFEQUQ7IiBkPSJNMC41OSw3MC40NEwwLDcxLjc5bDAuMjcsMC4xM2wwLjYzLTEuMzUgICAgICBMMC41OSw3MC40NHoiLz4mI3hhOwkJCTwvZz4mI3hhOwkJCTxnIGlkPSJzaGFwZTI2ODMtMTk0IiB0cmFuc2Zvcm09InRyYW5zbGF0ZSgyMC41MTI5LC0xNC4xMDU0KSI+JiN4YTsJCQkJPHRpdGxlIGlkPSJ0aXRsZTE4OTEwNSI+U2hlZXQuMjY4MzwvdGl0bGU+JiN4YTsJCQkJPHBhdGggaWQ9InBhdGgxODkxMDciIGlua3NjYXBlOmNvbm5lY3Rvci1jdXJ2YXR1cmU9IjAiIHN0eWxlPSJmaWxsOiNBREFEQUQ7IiBkPSJNMC42OCw3MC40OEwwLDcxLjc5bDAuMzIsMC4xM2wwLjY3LTEuMzEgICAgICBMMC42OCw3MC40OHoiLz4mI3hhOwkJCTwvZz4mI3hhOwkJCTxnIGlkPSJzaGFwZTI2ODQtMTk2IiB0cmFuc2Zvcm09InRyYW5zbGF0ZSgyMS4wNTUxLC0xMy4zMTk1KSI+JiN4YTsJCQkJPHRpdGxlIGlkPSJ0aXRsZTE4OTExMCI+U2hlZXQuMjY4NDwvdGl0bGU+JiN4YTsJCQkJPHBhdGggaWQ9InBhdGgxODkxMTIiIGlua3NjYXBlOmNvbm5lY3Rvci1jdXJ2YXR1cmU9IjAiIHN0eWxlPSJmaWxsOiNFNzNGMjQ7IiBkPSJNMS4wOCw2OS45NUwwLDcxLjc5bDAuMjcsMC4xM2wxLjA0LTEuODMgICAgICBMMS4wOCw2OS45NXoiLz4mI3hhOwkJCTwvZz4mI3hhOwkJCTxnIGlkPSJzaGFwZTI2ODUtMTk4IiB0cmFuc2Zvcm09InRyYW5zbGF0ZSgyMS4wNTUxLC0xMy4zMTk1KSI+JiN4YTsJCQkJPHRpdGxlIGlkPSJ0aXRsZTE4OTExNSI+U2hlZXQuMjY4NTwvdGl0bGU+JiN4YTsJCQkJPHBhdGggaWQ9InBhdGgxODkxMTciIGlua3NjYXBlOmNvbm5lY3Rvci1jdXJ2YXR1cmU9IjAiIHN0eWxlPSJmaWxsOiNGNThCMjM7IiBkPSJNMS4wOCw2OS45NUwwLDcxLjc5bDAuMjcsMC4xM2wxLjA0LTEuODMgICAgICBMMS4wOCw2OS45NXoiLz4mI3hhOwkJCTwvZz4mI3hhOwkJCTxnIGlkPSJzaGFwZTI2ODYtMjAwIiB0cmFuc2Zvcm09InRyYW5zbGF0ZSgyMi4wNDkyLC0xMy4zMTk1KSI+JiN4YTsJCQkJPHRpdGxlIGlkPSJ0aXRsZTE4OTEyMCI+U2hlZXQuMjY4NjwvdGl0bGU+JiN4YTsJCQkJPHBhdGggaWQ9InBhdGgxODkxMjIiIGlua3NjYXBlOmNvbm5lY3Rvci1jdXJ2YXR1cmU9IjAiIHN0eWxlPSJmaWxsOiNBREFEQUQ7IiBkPSJNMC44MSw3MC41MkwwLDcxLjc5bDAuMjcsMC4xM2wwLjgxLTEuMjIgICAgICBMMC44MSw3MC41MnoiLz4mI3hhOwkJCTwvZz4mI3hhOwkJCTxnIGlkPSJzaGFwZTI2ODctMjAyIiB0cmFuc2Zvcm09InRyYW5zbGF0ZSgyMi43NzIsLTEyLjgzOTIpIj4mI3hhOwkJCQk8dGl0bGUgaWQ9InRpdGxlMTg5MTI1Ij5TaGVldC4yNjg3PC90aXRsZT4mI3hhOwkJCQk8cGF0aCBpZD0icGF0aDE4OTEyNyIgaW5rc2NhcGU6Y29ubmVjdG9yLWN1cnZhdHVyZT0iMCIgc3R5bGU9ImZpbGw6I0FEQURBRDsiIGQ9Ik0wLjg2LDcwLjUyTDAsNzEuNzVsMC4yNywwLjE3bDAuODYtMS4yMiAgICAgIEwwLjg2LDcwLjUyeiIvPiYjeGE7CQkJPC9nPiYjeGE7CQkJPGcgaWQ9InNoYXBlMjY4OC0yMDQiIHRyYW5zZm9ybT0idHJhbnNsYXRlKDIzLjQ5NDksLTEyLjM1ODkpIj4mI3hhOwkJCQk8dGl0bGUgaWQ9InRpdGxlMTg5MTMwIj5TaGVldC4yNjg4PC90aXRsZT4mI3hhOwkJCQk8cGF0aCBpZD0icGF0aDE4OTEzMiIgaW5rc2NhcGU6Y29ubmVjdG9yLWN1cnZhdHVyZT0iMCIgc3R5bGU9ImZpbGw6I0FEQURBRDsiIGQ9Ik0wLjk1LDcwLjU3TDAsNzEuNzVsMC4yNywwLjE3bDAuOS0xLjE0ICAgICAgTDAuOTUsNzAuNTd6Ii8+JiN4YTsJCQk8L2c+JiN4YTsJCQk8ZyBpZD0ic2hhcGUyNjg5LTIwNiIgdHJhbnNmb3JtPSJ0cmFuc2xhdGUoMjQuMTcyOCwtMTEuODM0NikiPiYjeGE7CQkJCTx0aXRsZSBpZD0idGl0bGUxODkxMzUiPlNoZWV0LjI2ODk8L3RpdGxlPiYjeGE7CQkJCTxwYXRoIGlkPSJwYXRoMTg5MTM3IiBpbmtzY2FwZTpjb25uZWN0b3ItY3VydmF0dXJlPSIwIiBzdHlsZT0iZmlsbDojQURBREFEOyIgZD0iTTAuOTksNzAuNjFMMCw3MS43NWwwLjI3LDAuMTdsMC45NS0xLjA5ICAgICAgTDAuOTksNzAuNjF6Ii8+JiN4YTsJCQk8L2c+JiN4YTsJCQk8ZyBpZD0ic2hhcGUyNjkwLTIwOCIgdHJhbnNmb3JtPSJ0cmFuc2xhdGUoMjQuNDg5LC0xMC45MTc5KSI+JiN4YTsJCQkJPHRpdGxlIGlkPSJ0aXRsZTE4OTE0MCI+U2hlZXQuMjY5MDwvdGl0bGU+JiN4YTsJCQkJPHBhdGggaWQ9InBhdGgxODkxNDIiIGlua3NjYXBlOmNvbm5lY3Rvci1jdXJ2YXR1cmU9IjAiIHN0eWxlPSJmaWxsOiNFNzNGMjQ7IiBkPSJNMS40OSw3MC4xN0wwLDcxLjdsMC4yMywwLjIybDEuNDktMS41NyAgICAgIEwxLjQ5LDcwLjE3eiIvPiYjeGE7CQkJPC9nPiYjeGE7CQkJPGcgaWQ9InNoYXBlMjY5MS0yMTAiIHRyYW5zZm9ybT0idHJhbnNsYXRlKDI0LjQ4OSwtMTAuOTE3OSkiPiYjeGE7CQkJCTx0aXRsZSBpZD0idGl0bGUxODkxNDUiPlNoZWV0LjI2OTE8L3RpdGxlPiYjeGE7CQkJCTxwYXRoIGlkPSJwYXRoMTg5MTQ3IiBpbmtzY2FwZTpjb25uZWN0b3ItY3VydmF0dXJlPSIwIiBzdHlsZT0iZmlsbDojRjU4QjIzOyIgZD0iTTEuNDksNzAuMTdMMCw3MS43bDAuMjMsMC4yMmwxLjQ5LTEuNTcgICAgICBMMS40OSw3MC4xN3oiLz4mI3hhOwkJCTwvZz4mI3hhOwkJCTxnIGlkPSJzaGFwZTI2OTItMjEyIiB0cmFuc2Zvcm09InRyYW5zbGF0ZSgxLjQwMDc1LC0zLjMxODM2KSI+JiN4YTsJCQkJPHRpdGxlIGlkPSJ0aXRsZTE4OTE1MCI+U2hlZXQuMjY5MjwvdGl0bGU+JiN4YTsJCQkJPHBhdGggaWQ9InBhdGgxODkxNTIiIGlua3NjYXBlOmNvbm5lY3Rvci1jdXJ2YXR1cmU9IjAiIHN0eWxlPSJmaWxsOiNFNEVERjE7IiBkPSJNMTkuNTIsNjIuNjZjLTAuMDktMC4wNC0wLjE4LTAuMDktMC4yNy0wLjEzICAgICAgYy0wLjA1LDAtMC4wOS0wLjA0LTAuMDktMC4wNGMtMC4wOS0wLjA1LTAuMTgtMC4wOS0wLjI3LTAuMTNDMTIuNzQsNTkuNDMsNS4xMSw2MC40NCwwLDY1LjM3YzYuNzgsNi41NSw2Ljc4LDYuNTUsNi43OCw2LjU1ICAgICAgYzEuNjctMS42Miw0LjAyLTIuMjMsNi4xOS0xLjc5YzAuMzYsMC4wNCwwLjY3LDAuMTMsMS4wNCwwLjI2YzAuMTMsMC4wNSwwLjI3LDAuMDksMC40LDAuMThjMC43MywwLjMsMS40NSwwLjc0LDIuMDQsMS4zNSAgICAgIGM2Ljc3LTYuNTUsNi43Ny02LjU1LDYuNzctNi41NUMyMi4wOSw2NC4yOCwyMC44Myw2My40LDE5LjUyLDYyLjY2eiIvPiYjeGE7CQkJPC9nPiYjeGE7CQkJPGcgaWQ9InNoYXBlMjY5My0yMTQiIHRyYW5zZm9ybT0idHJhbnNsYXRlKDQuMzgyMywtMTEuMjY2OSkiPiYjeGE7CQkJCTx0aXRsZSBpZD0idGl0bGUxODkxNTUiPlNoZWV0LjI2OTM8L3RpdGxlPiYjeGE7CQkJCTxwYXRoIGlkPSJwYXRoMTg5MTU3IiBpbmtzY2FwZTpjb25uZWN0b3ItY3VydmF0dXJlPSIwIiBzdHlsZT0iZmlsbDojRkZGRkZGOyIgZD0iTTIuNDksNzAuMzljLTAuMDUsMC0wLjA1LDAtMC4wNSwwICAgICAgYy0wLjA5LDAuMDUtMC4xNCwwLjA5LTAuMjMsMC4wOWMwLDAuMDQtMC4wNCwwLjA0LTAuMDksMC4wNGMtMC4wNCwwLjA1LTAuMTMsMC4wOS0wLjIyLDAuMTNjLTAuNjQsMC4zMS0xLjI3LDAuNjYtMS45LDEuMDkgICAgICBjMC45NS0wLjIxLDEuOTktMC4zOSwzLjA3LTAuNTJjMC4zNi0wLjA0LDAuMzYtMC4wNCwwLjM2LTAuMDRjMS41OS0wLjIyLDMuMjEtMC4zMSw0Ljk3LTAuMzFjMy40NCwwLDYuNjUsMC40LDkuMTgsMS4wNSAgICAgIEMxMy4zMyw2OC45MSw3LjUsNjguMzQsMi43MSw3MC4zTDIuNDksNzAuMzl6Ii8+JiN4YTsJCQk8L2c+JiN4YTsJCQk8ZyBpZD0ic2hhcGUyNjk0LTIxNiIgdHJhbnNmb3JtPSJ0cmFuc2xhdGUoMTUuNDA3MSwtNC42NzMwNCkiPiYjeGE7CQkJCTx0aXRsZSBpZD0idGl0bGUxODkxNjAiPlNoZWV0LjI2OTQ8L3RpdGxlPiYjeGE7CQkJCTxwYXRoIGlkPSJwYXRoMTg5MTYyIiBpbmtzY2FwZTpjb25uZWN0b3ItY3VydmF0dXJlPSIwIiBzdHlsZT0iZmlsbDojOTU5NTk1OyIgZD0iTTAuNTksNzEuNjFjNC45Mi03LjU5LDQuOTItNy41OSw0LjkyLTcuNTkgICAgICBjLTAuMDktMC4wNS0wLjE4LTAuMDktMC4yNy0wLjEzYy0wLjk5LDEuMzUtMC45OSwxLjM1LTAuOTksMS4zNUMwLDcxLjc1LDAsNzEuNzUsMCw3MS43NWMwLjE0LDAuMDQsMC4yNywwLjA4LDAuNDEsMC4xNyAgICAgIEwwLjU5LDcxLjYxeiIvPiYjeGE7CQkJPC9nPiYjeGE7CQkJPGcgaWQ9InNoYXBlMjY5NS0yMTgiIHRyYW5zZm9ybT0idHJhbnNsYXRlKDExLjAyNDgpIj4mI3hhOwkJCQk8dGl0bGUgaWQ9InRpdGxlMTg5MTY1Ij5TaGVldC4yNjk1PC90aXRsZT4mI3hhOwkJCQk8cGF0aCBpZD0icGF0aDE4OTE2NyIgaW5rc2NhcGU6Y29ubmVjdG9yLWN1cnZhdHVyZT0iMCIgc3R5bGU9ImZpbGw6I0Y1OEIyMzsiIGQ9Ik05LjUzLDU5LjE3Yy0wLjA5LTAuMDUtMC4xOC0wLjA5LTAuMjctMC4xMyAgICAgIGMtNS45Miw3Ljc3LTUuOTIsNy43Ny01LjkyLDcuNzdDMS45LDY4LjY5LDEuOSw2OC42OSwxLjksNjguNjljLTAuMDUtMC4wNC0wLjE0LTAuMDQtMC4xOC0wLjA0QzAuNzcsNjguNjUsMCw2OS4zOSwwLDcwLjMgICAgICBjMCwwLjg4LDAuNzcsMS42MiwxLjcyLDEuNjJjMC45LDAsMS42Ny0wLjc0LDEuNjctMS42MmMwLTAuNDMtMC4xNC0wLjc4LTAuNDEtMS4wOWMxLjQtMi4xNCwxLjQtMi4xNCwxLjQtMi4xNEw5LjUzLDU5LjE3eiIvPiYjeGE7CQkJPC9nPiYjeGE7CQk8L2c+JiN4YTsJPC9nPiYjeGE7PC9nPiYjeGE7PC9zdmc+;" vertex="1" parent="1">
          <mxGeometry x="425.06" y="502.3" width="64.89" height="28.89" as="geometry" />
        </mxCell>
        <mxCell id="DDIoOHOh3YlPJ9OeS1EO-2139" value="代码分析" style="shape=image;html=1;verticalAlign=top;verticalLabelPosition=bottom;labelBackgroundColor=#ffffff;imageAspect=0;aspect=fixed;image=https://cdn3.iconfinder.com/data/icons/coronavirus-53/64/virus-covid19-report-coronavirus-static-128.png" vertex="1" parent="1">
          <mxGeometry x="150" y="490" width="56.81" height="56.81" as="geometry" />
        </mxCell>
        <mxCell id="DDIoOHOh3YlPJ9OeS1EO-2140" value="" style="arrow;html=1;endArrow=block;endFill=1;strokeColor=none;strokeWidth=4;fontFamily=Helvetica;fontSize=36;fontColor=#FFB366;fillColor=#FFB366;opacity=100" edge="1" parent="1">
          <mxGeometry width="100" height="100" relative="1" as="geometry">
            <mxPoint x="341" y="252" as="sourcePoint" />
            <mxPoint x="421" y="252" as="targetPoint" />
          </mxGeometry>
        </mxCell>
        <mxCell id="DDIoOHOh3YlPJ9OeS1EO-2142" value="分析度量" style="rounded=1;whiteSpace=wrap;html=1;dashed=1;strokeColor=none;strokeWidth=2;fillColor=#FFFFFF;fontFamily=Helvetica;fontSize=14;fontColor=#FFB366;opacity=75;verticalAlign=top;fontStyle=1" vertex="1" parent="1">
          <mxGeometry x="10" y="639.1" width="236" height="121" as="geometry" />
        </mxCell>
        <mxCell id="DDIoOHOh3YlPJ9OeS1EO-2143" value="分析反馈" style="shape=image;verticalLabelPosition=bottom;labelBackgroundColor=#ffffff;verticalAlign=top;aspect=fixed;imageAspect=0;image=data:image/svg+xml,PHN2ZyB4bWxuczpkYz0iaHR0cDovL3B1cmwub3JnL2RjL2VsZW1lbnRzLzEuMS8iIHhtbG5zOmNjPSJodHRwOi8vY3JlYXRpdmVjb21tb25zLm9yZy9ucyMiIHhtbG5zOnJkZj0iaHR0cDovL3d3dy53My5vcmcvMTk5OS8wMi8yMi1yZGYtc3ludGF4LW5zIyIgeG1sbnM6c3ZnPSJodHRwOi8vd3d3LnczLm9yZy8yMDAwL3N2ZyIgeG1sbnM9Imh0dHA6Ly93d3cudzMub3JnLzIwMDAvc3ZnIiB4bWxuczp4bGluaz0iaHR0cDovL3d3dy53My5vcmcvMTk5OS94bGluayIgeG1sbnM6c29kaXBvZGk9Imh0dHA6Ly9zb2RpcG9kaS5zb3VyY2Vmb3JnZS5uZXQvRFREL3NvZGlwb2RpLTAuZHRkIiB4bWxuczppbmtzY2FwZT0iaHR0cDovL3d3dy5pbmtzY2FwZS5vcmcvbmFtZXNwYWNlcy9pbmtzY2FwZSIgdmVyc2lvbj0iMS4xIiBpZD0iTGF5ZXJfMSIgeD0iMHB4IiB5PSIwcHgiIHZpZXdCb3g9IjAgMCA0OC4wMjAxMzggNjcuODg5OTk5IiB4bWw6c3BhY2U9InByZXNlcnZlIiBzb2RpcG9kaTpkb2NuYW1lPSJoZWFsdGhfY2hlY2tfcmVwb3J0LnN2ZyIgd2lkdGg9IjQ4LjAyMDEzOCIgaGVpZ2h0PSI2Ny44ODk5OTkiIGlua3NjYXBlOnZlcnNpb249IjAuOTIuMyAoMjQwNTU0NiwgMjAxOC0wMy0xMSkiPjxtZXRhZGF0YSBpZD0ibWV0YWRhdGE0NjM4MyI+PHJkZjpSREY+PGNjOldvcmsgcmRmOmFib3V0PSIiPjxkYzpmb3JtYXQ+aW1hZ2Uvc3ZnK3htbDwvZGM6Zm9ybWF0PjxkYzp0eXBlIHJkZjpyZXNvdXJjZT0iaHR0cDovL3B1cmwub3JnL2RjL2RjbWl0eXBlL1N0aWxsSW1hZ2UiLz48ZGM6dGl0bGUvPjwvY2M6V29yaz48L3JkZjpSREY+PC9tZXRhZGF0YT48ZGVmcyBpZD0iZGVmczQ2MzgxIi8+PHNvZGlwb2RpOm5hbWVkdmlldyBwYWdlY29sb3I9IiNmZmZmZmYiIGJvcmRlcmNvbG9yPSIjNjY2NjY2IiBib3JkZXJvcGFjaXR5PSIxIiBvYmplY3R0b2xlcmFuY2U9IjEwIiBncmlkdG9sZXJhbmNlPSIxMCIgZ3VpZGV0b2xlcmFuY2U9IjEwIiBpbmtzY2FwZTpwYWdlb3BhY2l0eT0iMCIgaW5rc2NhcGU6cGFnZXNoYWRvdz0iMiIgaW5rc2NhcGU6d2luZG93LXdpZHRoPSIxOTIwIiBpbmtzY2FwZTp3aW5kb3ctaGVpZ2h0PSIxMDE3IiBpZD0ibmFtZWR2aWV3NDYzNzkiIHNob3dncmlkPSJmYWxzZSIgZml0LW1hcmdpbi10b3A9IjAiIGZpdC1tYXJnaW4tbGVmdD0iMCIgZml0LW1hcmdpbi1yaWdodD0iMCIgZml0LW1hcmdpbi1ib3R0b209IjAiIGlua3NjYXBlOnpvb209IjEuMDMwMzAzIiBpbmtzY2FwZTpjeD0iMjQuMzk0OTg5IiBpbmtzY2FwZTpjeT0iLTI4MS41OSIgaW5rc2NhcGU6d2luZG93LXg9Ii04IiBpbmtzY2FwZTp3aW5kb3cteT0iLTgiIGlua3NjYXBlOndpbmRvdy1tYXhpbWl6ZWQ9IjEiIGlua3NjYXBlOmN1cnJlbnQtbGF5ZXI9IkxheWVyXzEiLz4mI3hhOyYjeGE7PGcgaWQ9Imc0NjM3NiIgdHJhbnNmb3JtPSJ0cmFuc2xhdGUoLTI3Mi45ODAwMSwtNzEuMjcpIj4mI3hhOwk8ZGVmcyBpZD0iZGVmczQ2MzQzIj4mI3hhOwkJPHJlY3QgaWQ9IlNWR0lEXzNfIiB4PSIyNzIuOTgwMDEiIHk9IjcxLjI2OTk5NyIgd2lkdGg9IjQ5LjMxMDAwMSIgaGVpZ2h0PSI2OS4wNDAwMDEiLz4mI3hhOwk8L2RlZnM+JiN4YTsJPGNsaXBQYXRoIGlkPSJTVkdJRF80XyI+JiN4YTsJCTx1c2UgeGxpbms6aHJlZj0iI1NWR0lEXzNfIiBzdHlsZT0ib3ZlcmZsb3c6dmlzaWJsZSIgaWQ9InVzZTQ2MzQ1IiB4PSIwIiB5PSIwIiB3aWR0aD0iMTAwJSIgaGVpZ2h0PSIxMDAlIi8+JiN4YTsJPC9jbGlwUGF0aD4mI3hhOwk8ZyBjbGlwLXBhdGg9InVybCgjU1ZHSURfNF8pIiBpZD0iZzQ2Mzc0Ij4mI3hhOwkJPGRlZnMgaWQ9ImRlZnM0NjM0OSI+JiN4YTsJCQk8cmVjdCBpZD0iU1ZHSURfNV8iIHg9IjI3Mi45ODAwMSIgeT0iNzEuMjY5OTk3IiB3aWR0aD0iNDkuMzEwMDAxIiBoZWlnaHQ9IjY5LjA0MDAwMSIvPiYjeGE7CQk8L2RlZnM+JiN4YTsJCTxjbGlwUGF0aCBpZD0iU1ZHSURfNl8iPiYjeGE7CQkJPHVzZSB4bGluazpocmVmPSIjU1ZHSURfNV8iIHN0eWxlPSJvdmVyZmxvdzp2aXNpYmxlIiBpZD0idXNlNDYzNTEiIHg9IjAiIHk9IjAiIHdpZHRoPSIxMDAlIiBoZWlnaHQ9IjEwMCUiLz4mI3hhOwkJPC9jbGlwUGF0aD4mI3hhOwkJPHBhdGggc3R5bGU9ImZpbGw6I2JkZGRmNCIgZD0ibSAzMTcuMjgsNzEuMjcgaCAtNDAuNjIgYyAtMC41NiwwIC0xLjA0LDAuNDUgLTEuMDQsMS4wNCB2IDI3LjkzIGMgMCwwLjU5IDAuNDksMS4wNCAxLjA0LDEuMDQgaCA0MC42NSBjIDAuNTYsMCAxLjAxLC0wLjQ1IDEuMDEsLTEuMDQgViA3Mi4zMSBjIDAuMDEsLTAuNTkgLTAuNDQsLTEuMDQgLTEuMDQsLTEuMDQgeiIgY2xpcC1wYXRoPSJ1cmwoI1NWR0lEXzZfKSIgaWQ9InBhdGg0NjM1NCIgaW5rc2NhcGU6Y29ubmVjdG9yLWN1cnZhdHVyZT0iMCIvPiYjeGE7CQk8cGF0aCBzdHlsZT0iZmlsbDojZTRmMmZiIiBkPSJtIDMxNy4yOCw3MS4yNyBoIC00LjQ5IGMgMC41MiwwLjAzIDAuOTQsMC40OSAwLjk0LDEuMDQgdiAyNy45MyBjIDAsMC41NiAtMC40MiwxLjAxIC0wLjk0LDEuMDQgaCA0LjUyIGMgMC41NiwwIDEuMDEsLTAuNDUgMS4wMSwtMS4wNCBWIDcyLjMxIGMgMC4wMSwtMC41OSAtMC40NCwtMS4wNCAtMS4wNCwtMS4wNCB6IiBjbGlwLXBhdGg9InVybCgjU1ZHSURfNl8pIiBpZD0icGF0aDQ2MzU2IiBpbmtzY2FwZTpjb25uZWN0b3ItY3VydmF0dXJlPSIwIi8+JiN4YTsJCTxwYXRoIHN0eWxlPSJmaWxsOiM1N2E3ZGIiIGQ9Im0gMzE5Ljk2LDkyLjQyIGggLTEyLjIxIGMgLTAuNDUsMCAtMC44MywwLjI0IC0wLjk3LDAuNjYgLTEuMzIsMy4yMyAtNS4zMiw1LjUgLTkuODEsNS41IC00LjQ1LDAgLTguNDUsLTIuMjYgLTkuNzcsLTUuNSAtMC4xNCwtMC40MiAtMC41MiwtMC42NiAtMC45NywtMC42NiBoIC0xMi4yMSBjIC0wLjU5LDAgLTEuMDQsMC40NSAtMS4wNCwxLjA0IHYgNDQuNjYgYyAwLDAuNTkgMC40NSwxLjA0IDEuMDQsMS4wNCBoIDQ1Ljk0IGMgMC41NiwwIDEuMDQsLTAuNDUgMS4wNCwtMS4wNCBWIDkzLjQ2IGMgMC4wMSwtMC41OSAtMC40OCwtMS4wNCAtMS4wNCwtMS4wNCB6IiBjbGlwLXBhdGg9InVybCgjU1ZHSURfNl8pIiBpZD0icGF0aDQ2MzU4IiBpbmtzY2FwZTpjb25uZWN0b3ItY3VydmF0dXJlPSIwIi8+JiN4YTsJCTxwYXRoIHN0eWxlPSJmaWxsOiMzZTkxZDkiIGQ9Im0gMzE5Ljk2LDkyLjQyIGggLTQuNDUgYyAwLjUyLDAuMDcgMC44NywwLjUyIDAuODMsMS4wNCB2IDQ0LjY2IGMgMC4wMywwLjUyIC0wLjMxLDAuOTcgLTAuODMsMS4wNCBoIDQuNDUgYyAwLjU2LDAgMS4wNCwtMC40NSAxLjA0LC0xLjA0IFYgOTMuNDYgYyAwLjAxLC0wLjU5IC0wLjQ4LC0xLjA0IC0xLjA0LC0xLjA0IHoiIGNsaXAtcGF0aD0idXJsKCNTVkdJRF82XykiIGlkPSJwYXRoNDYzNjAiIGlua3NjYXBlOmNvbm5lY3Rvci1jdXJ2YXR1cmU9IjAiLz4mI3hhOwkJPHBhdGggc3R5bGU9ImZpbGw6I2ZmZmZmZiIgZD0ibSAzMDguMjgsMTE4LjQgYyAwLDYuMjMgLTUuMDgsMTEuMjcgLTExLjMsMTEuMjcgLTYuMjIsMCAtMTEuMjcsLTUuMDQgLTExLjI3LC0xMS4yNyAwLC02LjIzIDUuMDQsLTExLjI3IDExLjI3LC0xMS4yNyA2LjIyLDAgMTEuMyw1LjA1IDExLjMsMTEuMjcgeiIgY2xpcC1wYXRoPSJ1cmwoI1NWR0lEXzZfKSIgaWQ9InBhdGg0NjM2MiIgaW5rc2NhcGU6Y29ubmVjdG9yLWN1cnZhdHVyZT0iMCIvPiYjeGE7CQk8cGF0aCBzdHlsZT0iZmlsbDojNzFiZTcxIiBkPSJtIDI5OC44MiwxMTYuNTkgdiAtMy40NCBjIDAsLTAuMzggLTAuMzEsLTAuNjYgLTAuNywtMC42NiBoIC0yLjI2IGMgLTAuMzgsMCAtMC43LDAuMjggLTAuNywwLjY2IHYgMy40NCBoIC0zLjQ0IGMgLTAuMzgsMCAtMC42NiwwLjMxIC0wLjY2LDAuNyB2IDIuMjYgYyAwLDAuMzggMC4yOCwwLjcgMC42NiwwLjcgaCAzLjQ0IHYgMy40MSBjIDAsMC4zOCAwLjMxLDAuNyAwLjcsMC43IGggMi4yNiBjIDAuMzgsMCAwLjcsLTAuMzEgMC43LC0wLjcgdiAtMy40MSBoIDMuNDEgYyAwLjM4LDAgMC43LC0wLjMxIDAuNywtMC43IHYgLTIuMyBjIDAsLTAuMzggLTAuMzEsLTAuNjYgLTAuNywtMC42NiB6IiBjbGlwLXBhdGg9InVybCgjU1ZHSURfNl8pIiBpZD0icGF0aDQ2MzY0IiBpbmtzY2FwZTpjb25uZWN0b3ItY3VydmF0dXJlPSIwIi8+JiN4YTsJCTxwYXRoIHN0eWxlPSJmaWxsOiM1N2E3ZGIiIGQ9Im0gMjgzLjQ4LDgwLjE3IGggNy41NSBjIDEuNzcsMCAzLjIsMS40MyAzLjIsMy4yIDAsMS43NyAtMS40MywzLjIzIC0zLjIsMy4yMyBoIC03LjU1IGMgLTEuNzcsMCAtMy4yMywtMS40NiAtMy4yMywtMy4yMyAwLC0xLjc3IDEuNDYsLTMuMjMgMy4yMywtMy4yIHoiIGNsaXAtcGF0aD0idXJsKCNTVkdJRF82XykiIGlkPSJwYXRoNDYzNjYiIGlua3NjYXBlOmNvbm5lY3Rvci1jdXJ2YXR1cmU9IjAiLz4mI3hhOwkJPHBhdGggc3R5bGU9ImZpbGw6I2Y0YWU3YSIgZD0ibSAyODcuMjQsODAuMTcgaCAzLjc5IGMgMS43NywwIDMuMiwxLjQzIDMuMiwzLjIgMCwxLjc3IC0xLjQzLDMuMjMgLTMuMiwzLjIzIGggLTMuNzkgeiIgY2xpcC1wYXRoPSJ1cmwoI1NWR0lEXzZfKSIgaWQ9InBhdGg0NjM2OCIgaW5rc2NhcGU6Y29ubmVjdG9yLWN1cnZhdHVyZT0iMCIvPiYjeGE7CQk8cGF0aCBzdHlsZT0iZmlsbDojNTdhN2RiIiBkPSJtIDMwMi45Niw4MC4xNyBoIDcuNTUgYyAxLjc3LDAgMy4yLDEuNDMgMy4yLDMuMiAwLDEuNzcgLTEuNDMsMy4yMyAtMy4yLDMuMjMgaCAtNy41NSBjIC0xLjc3LDAgLTMuMjMsLTEuNDYgLTMuMjMsLTMuMjMgLTAuMDEsLTEuNzcgMS40NSwtMy4yMyAzLjIzLC0zLjIgeiIgY2xpcC1wYXRoPSJ1cmwoI1NWR0lEXzZfKSIgaWQ9InBhdGg0NjM3MCIgaW5rc2NhcGU6Y29ubmVjdG9yLWN1cnZhdHVyZT0iMCIvPiYjeGE7CQk8cGF0aCBzdHlsZT0iZmlsbDojZjRhZTdhIiBkPSJtIDMwNi43MSw4MC4xNyBoIDMuNzkgYyAxLjc3LDAgMy4yLDEuNDMgMy4yLDMuMiAwLDEuNzcgLTEuNDMsMy4yMyAtMy4yLDMuMjMgaCAtMy43OSB6IiBjbGlwLXBhdGg9InVybCgjU1ZHSURfNl8pIiBpZD0icGF0aDQ2MzcyIiBpbmtzY2FwZTpjb25uZWN0b3ItY3VydmF0dXJlPSIwIi8+JiN4YTsJPC9nPiYjeGE7PC9nPiYjeGE7PC9zdmc+;" vertex="1" parent="1">
          <mxGeometry x="101.88" y="675.99" width="38.12" height="54" as="geometry" />
        </mxCell>
        <mxCell id="DDIoOHOh3YlPJ9OeS1EO-2144" value="线上监控" style="aspect=fixed;html=1;points=[];align=center;image;fontSize=12;image=img/lib/azure2/analytics/Analysis_Services.svg;" vertex="1" parent="1">
          <mxGeometry x="160.00000000000006" y="680.5899999999999" width="68" height="51.81" as="geometry" />
        </mxCell>
        <mxCell id="DDIoOHOh3YlPJ9OeS1EO-2146" value="质量标准" style="shape=image;html=1;verticalAlign=top;verticalLabelPosition=bottom;labelBackgroundColor=#ffffff;imageAspect=0;aspect=fixed;image=https://cdn2.iconfinder.com/data/icons/seo-flat-6/128/23_Page_Rank_Badge-128.png;fontColor=#0F0F0F;" vertex="1" parent="1">
          <mxGeometry x="26" y="678.4" width="54" height="54" as="geometry" />
        </mxCell>
        <mxCell id="DDIoOHOh3YlPJ9OeS1EO-2149" value="持续测试" style="outlineConnect=0;dashed=0;verticalLabelPosition=bottom;verticalAlign=top;align=center;html=1;shape=mxgraph.aws3.automation;fillColor=#759C3E;gradientColor=none;" vertex="1" parent="1">
          <mxGeometry x="286" y="490.41" width="55" height="56" as="geometry" />
        </mxCell>
        <mxCell id="DDIoOHOh3YlPJ9OeS1EO-2152" value="测试环境" style="aspect=fixed;perimeter=ellipsePerimeter;html=1;align=center;shadow=0;dashed=0;spacingTop=3;image;image=img/lib/active_directory/server_farm.svg;fontColor=#0F0F0F;" vertex="1" parent="1">
          <mxGeometry x="286" y="226" width="50" height="50" as="geometry" />
        </mxCell>
        <mxCell id="DDIoOHOh3YlPJ9OeS1EO-2154" value="测试设备" style="shape=image;html=1;verticalAlign=top;verticalLabelPosition=bottom;labelBackgroundColor=#ffffff;imageAspect=0;aspect=fixed;image=https://cdn0.iconfinder.com/data/icons/business-381/500/business-work_17-128.png;fontColor=#0F0F0F;" vertex="1" parent="1">
          <mxGeometry x="287.25" y="354.36" width="53.75" height="53.75" as="geometry" />
        </mxCell>
        <mxCell id="DDIoOHOh3YlPJ9OeS1EO-2155" value="" style="shape=mxgraph.arrows.two_way_arrow_horizontal;html=1;verticalLabelPosition=bottom;verticalAlign=top;strokeWidth=2;strokeColor=none;dashed=1;fillColor=#FFFFFF;fontFamily=Verdana;fontSize=12;fontColor=#00BEF2;rotation=90;" vertex="1" parent="1">
          <mxGeometry x="15.22" y="586" width="56.57" height="39" as="geometry" />
        </mxCell>
        <mxCell id="DDIoOHOh3YlPJ9OeS1EO-2156" value="" style="shape=mxgraph.arrows.two_way_arrow_horizontal;html=1;verticalLabelPosition=bottom;verticalAlign=top;strokeWidth=2;strokeColor=none;dashed=1;fillColor=#FFFFFF;fontFamily=Verdana;fontSize=12;fontColor=#00BEF2;rotation=90;" vertex="1" parent="1">
          <mxGeometry x="273.71" y="589.11" width="57.56" height="39" as="geometry" />
        </mxCell>
        <mxCell id="DDIoOHOh3YlPJ9OeS1EO-2157" value="" style="shape=mxgraph.arrows.two_way_arrow_horizontal;html=1;verticalLabelPosition=bottom;verticalAlign=top;strokeWidth=2;strokeColor=none;dashed=1;fillColor=#FFFFFF;fontFamily=Verdana;fontSize=12;fontColor=#00BEF2;rotation=90;" vertex="1" parent="1">
          <mxGeometry x="481.92" y="588.26" width="56.78" height="39" as="geometry" />
        </mxCell>
        <mxCell id="DDIoOHOh3YlPJ9OeS1EO-2161" value="兼容性测试" style="shape=image;verticalLabelPosition=bottom;labelBackgroundColor=#ffffff;verticalAlign=top;aspect=fixed;imageAspect=0;image=data:image/svg+xml,PHN2ZyB4bWxuczpjYz0iaHR0cDovL2NyZWF0aXZlY29tbW9ucy5vcmcvbnMjIiB4bWxuczpkYz0iaHR0cDovL3B1cmwub3JnL2RjL2VsZW1lbnRzLzEuMS8iIHhtbG5zOmlua3NjYXBlPSJodHRwOi8vd3d3Lmlua3NjYXBlLm9yZy9uYW1lc3BhY2VzL2lua3NjYXBlIiB4bWxuczpyZGY9Imh0dHA6Ly93d3cudzMub3JnLzE5OTkvMDIvMjItcmRmLXN5bnRheC1ucyMiIHhtbG5zOnNvZGlwb2RpPSJodHRwOi8vc29kaXBvZGkuc291cmNlZm9yZ2UubmV0L0RURC9zb2RpcG9kaS0wLmR0ZCIgeG1sbnM6c3ZnPSJodHRwOi8vd3d3LnczLm9yZy8yMDAwL3N2ZyIgeG1sbnM9Imh0dHA6Ly93d3cudzMub3JnLzIwMDAvc3ZnIiB4bWxuczp4bGluaz0iaHR0cDovL3d3dy53My5vcmcvMTk5OS94bGluayIgdmVyc2lvbj0iMS4xIiBpZD0ic3ZnNDg4OTYiIGlua3NjYXBlOnZlcnNpb249IjAuOTIuMyAoMjQwNTU0NiwgMjAxOC0wMy0xMSkiIHNvZGlwb2RpOmRvY25hbWU9ImFwaV9hcHBzLnN2ZyIgeD0iMHB4IiB5PSIwcHgiIHZpZXdCb3g9IjAgMCA3NS41MiA2NC41MiIgc3R5bGU9ImVuYWJsZS1iYWNrZ3JvdW5kOm5ldyAwIDAgNzUuNTIgNjQuNTI7IiB4bWw6c3BhY2U9InByZXNlcnZlIj4mI3hhOzxmaWx0ZXIgaWQ9ImZpbHRlcl8yIj4mI3hhOwk8ZmVHYXVzc2lhbkJsdXIgaWQ9ImZlR2F1c3NpYW5CbHVyNDg4NDUiIHN0ZERldmlhdGlvbj0iMiIvPiYjeGE7PC9maWx0ZXI+JiN4YTs8c29kaXBvZGk6bmFtZWR2aWV3IGJvcmRlcmNvbG9yPSIjNjY2NjY2IiBib3JkZXJvcGFjaXR5PSIxIiBmaXQtbWFyZ2luLWJvdHRvbT0iMCIgZml0LW1hcmdpbi1sZWZ0PSIwIiBmaXQtbWFyZ2luLXJpZ2h0PSIwIiBmaXQtbWFyZ2luLXRvcD0iMCIgZ3JpZHRvbGVyYW5jZT0iMTAiIGd1aWRldG9sZXJhbmNlPSIxMCIgaWQ9Im5hbWVkdmlldzQ4ODk4IiBpbmtzY2FwZTpjdXJyZW50LWxheWVyPSJzdmc0ODg5NiIgaW5rc2NhcGU6Y3g9IjU3LjkzMjgyOCIgaW5rc2NhcGU6Y3k9IjUwLjYxMzU1MSIgaW5rc2NhcGU6cGFnZW9wYWNpdHk9IjAiIGlua3NjYXBlOnBhZ2VzaGFkb3c9IjIiIGlua3NjYXBlOndpbmRvdy1oZWlnaHQ9IjEwMTciIGlua3NjYXBlOndpbmRvdy1tYXhpbWl6ZWQ9IjEiIGlua3NjYXBlOndpbmRvdy13aWR0aD0iMTkyMCIgaW5rc2NhcGU6d2luZG93LXg9Ii04IiBpbmtzY2FwZTp3aW5kb3cteT0iLTgiIGlua3NjYXBlOnpvb209IjUuMTc2NDI5OSIgb2JqZWN0dG9sZXJhbmNlPSIxMCIgcGFnZWNvbG9yPSIjZmZmZmZmIiBzaG93Z3JpZD0iZmFsc2UiPiYjeGE7CTwvc29kaXBvZGk6bmFtZWR2aWV3PiYjeGE7PGcgaWQ9InNoYWRvdzQ0MDItMyIgdHJhbnNmb3JtPSJ0cmFuc2xhdGUoMC4zNDU1MTQ1NiwtMjIuMzIyMykiPiYjeGE7CTxnIGlkPSJwYXRoNDg4NTUiIGlua3NjYXBlOmNvbm5lY3Rvci1jdXJ2YXR1cmU9IjAiIHN0eWxlPSJmaWx0ZXI6dXJsKCNmaWx0ZXJfMik7Ij4mI3hhOwkJPHBhdGggc3R5bGU9Im9wYWNpdHk6MC4yMjtmaWxsOiM1QjlCRDU7IiBkPSJNMCw4NS44YzAsMS42NywxLjM2LDMuMDIsMy4wMiwzLjAySDcyLjVjMS42NiwwLDMuMDItMS4zNSwzLjAyLTMuMDJWMzguNTNIMFY4NS44eiIvPiYjeGE7CTwvZz4mI3hhOzwvZz4mI3hhOzxwYXRoIGlkPSJwYXRoNDg4NTgiIGlua3NjYXBlOmNvbm5lY3Rvci1jdXJ2YXR1cmU9IjAiIHN0eWxlPSJmaWxsOiM1OUI0RDk7IiBkPSJNMCw2MS41YzAsMS42NywxLjM2LDMuMDIsMy4wMiwzLjAySDcyLjUgIGMxLjY2LDAsMy4wMi0xLjM1LDMuMDItMy4wMlYxNC4yM0gwVjYxLjV6Ii8+JiN4YTs8ZyBpZD0ic2hhZG93NDQwMy04IiB0cmFuc2Zvcm09InRyYW5zbGF0ZSgyMS4wMzg2MTUsLTI2LjcwMjU4KSI+JiN4YTsJPGcgaWQ9InBhdGg0ODg2MyIgaW5rc2NhcGU6Y29ubmVjdG9yLWN1cnZhdHVyZT0iMCIgc3R5bGU9ImZpbHRlcjp1cmwoI2ZpbHRlcl8yKTsiPiYjeGE7CQk8cGF0aCBzdHlsZT0ib3BhY2l0eTowLjIyO2ZpbGw6IzVCOUJENTsiIGQ9Ik00NS43NywzNC40NWMwLTEuODEtMS4zNi0zLjE3LTMuMTgtMy4xN2MtMS44MSwwLTMuMTcsMS4zNi0zLjE3LDMuMTd2MzEuODdoLTYuMTkgICAgYy0wLjYtMy42My0yLjQyLTcuMS01LjE0LTkuOTdjLTMuNjItMy42Mi04LjMtNS41OS0xMy40NC01LjU5Yy00Ljk4LDAtOS44MiwxLjk3LTEzLjQ0LDUuNTlDMCw1Ny41NiwwLDU5LjUyLDEuMjEsNjAuODggICAgYzEuMjEsMS4yMSwzLjE3LDEuMjEsNC41MywwYzIuNDItMi40Miw1LjU5LTMuNjIsOC45MS0zLjYyczYuNSwxLjM2LDguOTEsMy42MmM0Ljk5LDQuOTksNC45OSwxMi45OSwwLDE3LjgyICAgIGMtMi40MSwyLjQyLTUuNTksMy42My04LjkxLDMuNjNzLTYuNDktMS4zNi04LjkxLTMuNjNjLTEuMjEtMS4yLTMuMTctMS4yLTQuNTMsMEMwLDc5LjkxLDAsODEuODgsMS4yMSw4My4yNCAgICBjMy42MiwzLjYyLDguMzEsNS41OCwxMy40NCw1LjU4YzQuOTksMCw5LjgyLTEuOTYsMTMuNDQtNS41OGMzLjAzLTMuMDIsNC42OS02LjY1LDUuMjktMTAuNThoOS4yMWMxLjgyLDAsMy4xOC0xLjM2LDMuMTgtMy4xNyAgICBWMzQuNDV6Ii8+JiN4YTsJPC9nPiYjeGE7PC9nPiYjeGE7PHBhdGggaWQ9InBhdGg0ODg2NiIgaW5rc2NhcGU6Y29ubmVjdG9yLWN1cnZhdHVyZT0iMCIgc3R5bGU9ImZpbGw6I0ZGRkZGRjsiIGQ9Ik02Ni40Niw1Ljc3YzAtMS44MS0xLjM2LTMuMTctMy4xOC0zLjE3ICBjLTEuODEsMC0zLjE3LDEuMzYtMy4xNywzLjE3djMxLjg3aC02LjE5Yy0wLjYtMy42My0yLjQyLTcuMS01LjE0LTkuOTdjLTMuNjItMy42Mi04LjMtNS41OS0xMy40NC01LjU5ICBjLTQuOTgsMC05LjgyLDEuOTctMTMuNDQsNS41OWMtMS4yMSwxLjIxLTEuMjEsMy4xNywwLDQuNTNjMS4yMSwxLjIxLDMuMTcsMS4yMSw0LjUzLDBjMi40Mi0yLjQyLDUuNTktMy42Miw4LjkxLTMuNjIgIHM2LjUsMS4zNiw4LjkxLDMuNjJjNC45OSw0Ljk5LDQuOTksMTIuOTksMCwxNy44MmMtMi40MSwyLjQyLTUuNTksMy42My04LjkxLDMuNjNzLTYuNDktMS4zNi04LjkxLTMuNjNjLTEuMjEtMS4yLTMuMTctMS4yLTQuNTMsMCAgYy0xLjIxLDEuMjEtMS4yMSwzLjE4LDAsNC41NGMzLjYyLDMuNjIsOC4zMSw1LjU4LDEzLjQ0LDUuNThjNC45OSwwLDkuODItMS45NiwxMy40NC01LjU4YzMuMDMtMy4wMiw0LjY5LTYuNjUsNS4yOS0xMC41OGg5LjIxICBjMS44MiwwLDMuMTgtMS4zNiwzLjE4LTMuMTdWNS43N3oiLz4mI3hhOzxnIGlkPSJzaGFkb3c0NDA0LTEzIiB0cmFuc2Zvcm09InRyYW5zbGF0ZSg5LjU1OTIxNDYsLTM4LjQ4NCkiPiYjeGE7CTxnIGlkPSJwYXRoNDg4NzEiIGlua3NjYXBlOmNvbm5lY3Rvci1jdXJ2YXR1cmU9IjAiIHN0eWxlPSJmaWx0ZXI6dXJsKCNmaWx0ZXJfMik7Ij4mI3hhOwkJPHBhdGggc3R5bGU9Im9wYWNpdHk6MC4yMjtmaWxsOiM1QjlCRDU7IiBkPSJNMjYuMTMsNzMuNzJjLTMuMDIsMC01LjU5LDEuODEtNi44LDQuMzhINi4xOVY0Ni4yM2MwLTEuODEtMS4zNi0zLjE3LTMuMTctMy4xNyAgICBDMS4zNiw0My4wNiwwLDQ0LjU3LDAsNDYuMjN2MzUuMDRjMCwxLjgyLDEuMzYsMy4xNywzLjE3LDMuMTdoMTYuMzFjMS4yMSwyLjU3LDMuNzgsNC4zOCw2LjgsNC4zOGM0LjIzLDAsNy41NS0zLjMyLDcuNTUtNy41NSAgICBDMzMuNjgsNzcuMDQsMzAuMjEsNzMuNzIsMjYuMTMsNzMuNzJ6Ii8+JiN4YTsJPC9nPiYjeGE7PC9nPiYjeGE7PHBhdGggaWQ9InBhdGg0ODg3NCIgaW5rc2NhcGU6Y29ubmVjdG9yLWN1cnZhdHVyZT0iMCIgc3R5bGU9ImZpbGw6I0ZGRkZGRjsiIGQ9Ik0zNS4zNCwzMy4yNmMtMy4wMiwwLTUuNTksMS44MS02LjgsNC4zOEgxNS40VjUuNzcgIGMwLTEuODEtMS4zNi0zLjE3LTMuMTctMy4xN2MtMS42NiwwLTMuMDIsMS41MS0zLjAyLDMuMTd2MzUuMDRjMCwxLjgyLDEuMzYsMy4xNywzLjE3LDMuMTdoMTYuMzFjMS4yMSwyLjU3LDMuNzgsNC4zOCw2LjgsNC4zOCAgYzQuMjMsMCw3LjU1LTMuMzIsNy41NS03LjU1QzQyLjg5LDM2LjU4LDM5LjQyLDMzLjI2LDM1LjM0LDMzLjI2eiIvPiYjeGE7PGcgaWQ9InNoYWRvdzQ0MDUtMTgiIHRyYW5zZm9ybT0idHJhbnNsYXRlKDAuMzQ1NTE0NTYsLTcyLjE2NjkpIj4mI3hhOwk8ZyBpZD0icGF0aDQ4ODc5IiBpbmtzY2FwZTpjb25uZWN0b3ItY3VydmF0dXJlPSIwIiBzdHlsZT0iZmlsdGVyOnVybCgjZmlsdGVyXzIpOyI+JiN4YTsJCTxwYXRoIHN0eWxlPSJvcGFjaXR5OjAuMjI7ZmlsbDojNUI5QkQ1OyIgZD0iTTcyLjUsNzQuMzJIMy4wMkMxLjM2LDc0LjMyLDAsNzUuNjgsMCw3Ny4zNXYxMS40N2g3NS41MlY3Ny4zNSAgICBDNzUuNTIsNzUuNjgsNzQuMTYsNzQuMzIsNzIuNSw3NC4zMnoiLz4mI3hhOwk8L2c+JiN4YTs8L2c+JiN4YTs8cGF0aCBpZD0icGF0aDQ4ODgyIiBpbmtzY2FwZTpjb25uZWN0b3ItY3VydmF0dXJlPSIwIiBzdHlsZT0iZmlsbDojQTBBMUEyOyIgZD0iTTcyLjUsMC4xOEgzLjAyQzEuMzYsMC4xOCwwLDEuNTQsMCwzLjIxdjExLjQ3ICBoNzUuNTJWMy4yMUM3NS41MiwxLjU0LDc0LjE2LDAuMTgsNzIuNSwwLjE4eiIvPiYjeGE7PGcgaWQ9InNoYWRvdzQ0MDYtMjMiIHRyYW5zZm9ybT0idHJhbnNsYXRlKDAuMzQ1NTE0NTYsLTIyLjMyMjMpIj4mI3hhOwk8ZyBpZD0icGF0aDQ4ODg3IiBpbmtzY2FwZTpjb25uZWN0b3ItY3VydmF0dXJlPSIwIiBzdHlsZT0iZmlsdGVyOnVybCgjZmlsdGVyXzIpOyI+JiN4YTsJCTxwYXRoIHN0eWxlPSJvcGFjaXR5OjAuMjI7ZmlsbDojNUI5QkQ1OyIgZD0iTTMuMDIsMjQuNDhDMS4zNiwyNC40OCwwLDI1Ljg0LDAsMjcuNXYxMS4wM3Y0Ljk4Vjg1LjhjMCwxLjY3LDEuMzYsMy4wMiwzLjAyLDMuMDIgICAgaDMuMzJsNTkuNTItNjQuMzRIMy4wMnoiLz4mI3hhOwk8L2c+JiN4YTs8L2c+JiN4YTs8cGF0aCBpZD0icGF0aDQ4ODkwIiBpbmtzY2FwZTpjb25uZWN0b3ItY3VydmF0dXJlPSIwIiBzdHlsZT0iZmlsbDojRkZGRkZGO2ZpbGwtb3BhY2l0eTowLjI7IiBkPSJNMy4wMiwwLjE4ICBDMS4zNiwwLjE4LDAsMS41NCwwLDMuMnYxMS4wM3Y0Ljk4VjYxLjVjMCwxLjY3LDEuMzYsMy4wMiwzLjAyLDMuMDJoMy4zMkw2NS44NiwwLjE4SDMuMDJ6Ii8+JiN4YTs8L3N2Zz4=;" vertex="1" parent="1">
          <mxGeometry x="585" y="365.23" width="47.94" height="41" as="geometry" />
        </mxCell>
        <mxCell id="DDIoOHOh3YlPJ9OeS1EO-2162" value="&lt;font color=&quot;#0f0f0f&quot;&gt;单元测试&lt;/font&gt;" style="aspect=fixed;perimeter=ellipsePerimeter;html=1;align=center;shadow=0;dashed=0;fontColor=#4277BB;labelBackgroundColor=#ffffff;fontSize=12;spacingTop=3;image;image=img/lib/ibm/devops/build_test.svg;" vertex="1" parent="1">
          <mxGeometry x="222.44" y="491.03" width="52.56" height="52.56" as="geometry" />
        </mxCell>
        <mxCell id="DDIoOHOh3YlPJ9OeS1EO-2163" value="测试用例" style="verticalLabelPosition=bottom;html=1;verticalAlign=top;strokeColor=none;fillColor=#3399FF;shape=mxgraph.azure.cloud;dashed=1;fontSize=14;fontColor=#004C99" vertex="1" parent="1">
          <mxGeometry x="153.41" y="233.75" width="50" height="32.5" as="geometry" />
        </mxCell>
        <mxCell id="DDIoOHOh3YlPJ9OeS1EO-2164" value="测试用例" style="verticalLabelPosition=bottom;html=1;verticalAlign=top;strokeColor=none;fillColor=#3399FF;shape=mxgraph.azure.azure_website;dashed=1;fontSize=14;fontColor=#004C99" vertex="1" parent="1">
          <mxGeometry x="156.81" y="365.23" width="43.19" height="40.73" as="geometry" />
        </mxCell>
      </root>
    </mxGraphModel>
  </diagram>
</mxfile>
